<svg width="100" height="100" viewBox="0 0 100 100" fill="none" xmlns="http://www.w3.org/2000/svg">
<path d="M98.4957 11.6546C97.0499 7.11118 95.0903 3.85801 95.0072 3.72129C94.6859 3.19211 94.0244 2.91685 93.4252 3.05417C93.27 3.08958 89.5695 3.95261 85.301 6.08274C79.5383 8.9575 75.5129 12.7954 73.6584 17.1795C72.1148 20.8307 71.893 25.2942 72.9883 30.2252C70.6555 27.6221 68.0313 25.3448 65.1708 23.4277C64.2972 21.7035 61.9877 17.4585 58.377 13.0218C57.1877 11.5613 54.9001 13.3941 56.1016 14.8694C58.5346 17.8595 60.3659 20.8001 61.5112 22.8204L48.1564 20.2191L35.4681 2.926C36.7001 2.94309 37.9365 3.06211 39.1667 3.3032C43.0669 4.06614 46.9195 6.051 50.6193 9.20164C52.0688 10.4364 53.9515 8.18906 52.5209 6.97141C48.4337 3.49119 44.1304 1.28904 39.7299 0.427831C33.0125 -0.885646 25.1779 0.838598 17.0708 5.41624C11.0284 8.8281 6.98765 12.5757 6.81906 12.7331C6.27847 13.2379 6.19234 14.1546 6.64497 14.7442C7.23748 15.9588 9.48293 20.3406 13.2207 25.058C15.424 27.8393 17.7476 30.2197 20.1512 32.1759C19.4683 32.7478 18.8037 33.3459 18.1605 33.9752C14.7252 37.3327 12.0949 41.2933 10.368 45.6232C8.84155 49.4488 8.02058 53.5644 7.97477 57.8064C7.89902 64.743 9.91052 71.4331 13.793 77.1545C17.5857 82.7429 22.8878 87.0337 29.1257 89.5624C30.8715 90.2686 31.9753 87.5555 30.2283 86.8475C27.9682 85.9314 25.8449 84.7577 23.8865 83.3618C24.137 81.9739 24.7179 76.9788 21.3974 71.8079C20.9325 71.0846 22.3222 68.244 23.1517 66.5472C24.0081 64.7986 24.892 62.9907 25.3049 61.2884C25.7435 59.48 25.2499 57.962 23.8786 56.897C22.8719 56.1151 21.5543 55.7104 20.3931 55.3534C19.6388 55.1215 18.7836 54.859 18.4782 54.6045C17.849 54.0778 16.8216 52.1313 15.9957 50.5682C15.0794 48.8342 14.2072 47.1838 13.3166 46.1676C15.3207 41.4117 18.5399 37.2034 22.5714 33.9837C26.2542 36.4905 30.4573 38.2202 34.925 38.5705C29.7439 42.5818 28.0677 47.7045 30.4634 52.6251C33.2611 58.371 39.0195 57.453 44.0998 56.6443C44.9788 56.5039 45.8884 56.3592 46.7594 56.2506C47.0862 56.2097 47.1846 56.2988 47.2505 56.3568C48.3629 57.3456 48.3299 62.0679 48.3061 65.5163C48.2737 70.2863 48.2432 74.7919 50.0213 77.1051C50.9284 78.2843 52.2057 78.8873 53.7028 78.8873C54.6002 78.8873 55.5751 78.6713 56.5976 78.233C61.0195 76.3409 65.6161 70.6464 64.9148 66.1407C64.3021 62.2015 63.8965 59.599 64.8525 57.5012C65.7364 55.5597 67.8731 53.7622 72.0812 51.4685C72.5851 53.736 72.8392 56.095 72.813 58.515C72.7232 66.7755 69.4185 74.5068 63.5087 80.2838C56.9036 86.7401 47.6207 89.9286 38.438 88.9172C36.567 88.7146 36.2438 91.6235 38.1173 91.8298C48.1686 92.9358 58.3312 89.4446 65.5586 82.3785C72.0293 76.0535 75.6467 67.5903 75.745 58.5461C75.8757 46.5546 69.7178 35.9308 60.3439 29.8108C62.2809 28.4308 63.7237 27.2375 64.5239 26.5448C67.9415 28.9947 70.9731 32.0129 73.4953 35.5292C79.5499 43.9722 81.9511 54.2645 80.2579 64.5123C76.7608 85.6665 56.6929 100.036 35.5181 96.5405C25.2615 94.848 16.2791 89.267 10.2245 80.824C4.16924 72.3816 1.76803 62.088 3.46188 51.8408C3.76608 49.9969 0.874977 49.5129 0.569557 51.3635C-1.25258 62.3834 1.33066 73.4521 7.84038 82.5311C14.3513 91.6089 24.0118 97.6111 35.0405 99.4318C37.347 99.812 39.656 100 41.9491 100C50.6169 100 59.0489 97.3108 66.2342 92.1661C75.3217 85.6604 81.3293 76.0095 83.1502 64.9896C84.4849 56.9147 83.452 48.8135 80.2438 41.488C81.7245 41.0516 84.2442 40.2045 87.004 38.8275C92.7654 35.9527 96.7915 32.1149 98.6454 27.7307C100.501 23.3453 100.449 17.7862 98.4957 11.6546ZM13.4021 51.9354C14.493 54.0021 15.5247 55.9552 16.5968 56.8512C17.356 57.4853 18.4128 57.8101 19.5312 58.1537C22.3967 59.0338 22.7296 59.4659 22.4547 60.5981C22.1175 61.9903 21.3039 63.653 20.5178 65.26C19.0035 68.3557 17.5735 71.2781 18.929 73.3899C20.8513 76.3831 21.1805 79.3298 21.1475 81.1627C12.415 73.2947 8.85927 60.8673 12.112 49.5721C12.5432 50.3107 12.9965 51.1688 13.4021 51.9354ZM84.3359 23.147L80.1693 13.0578C82.1967 11.1633 84.549 9.73753 86.5526 8.7335C88.2593 7.87778 89.8829 7.23814 91.1852 6.78464L84.3359 23.147ZM93.8882 7.92051C94.4703 9.17051 95.1453 10.7824 95.7219 12.6043C96.3541 14.6039 96.9344 17.0819 97.0499 19.6667L87.2856 23.692L93.8882 7.92051ZM76.3589 18.3203C76.7914 17.2986 77.3503 16.3513 77.9959 15.4767L82.7391 26.9604L78.4828 37.1301C77.8848 35.8624 77.1805 34.1974 76.5831 32.3059C75.384 28.5187 74.3724 23.0169 76.3589 18.3203ZM85.7518 36.1767C84.1092 37.0007 82.5418 37.6245 81.2652 38.0743L85.6821 27.5232L96.9253 22.8876C96.7622 24.1461 96.4513 25.3937 95.9449 26.5899C93.959 31.2866 89.3056 34.3963 85.7518 36.1767ZM32.8854 35.343C32.3674 35.2417 31.8562 35.1178 31.3522 34.9768L47.5786 23.092L60.9395 25.694C56.0723 29.5257 44.2275 37.5635 32.8854 35.343ZM18.0561 26.1773C14.5859 22.4402 12.0424 18.4442 10.5818 15.8856L27.5846 19.198L18.0561 26.1773ZM21.059 6.63206L28.1728 16.3275L11.0601 12.9944C13.2146 11.2945 16.7709 8.74265 21.059 6.63206ZM32.4145 17.1539L23.79 5.39915C26.372 4.33896 29.1434 3.50461 31.9844 3.13352L43.9154 19.3933L32.4145 17.1539ZM31.5019 19.9609L43.6619 22.3291L28.0555 33.7591C25.1125 32.4011 22.4639 30.4486 20.1464 28.2782L31.5019 19.9609ZM71.2846 48.5681C65.9991 51.3818 63.4109 53.5919 62.1831 56.2878C60.8643 59.1827 61.3475 62.29 62.0164 66.5906C62.4116 69.1266 59.3953 73.8489 55.4431 75.5402C53.9808 76.1658 52.9393 76.0919 52.3462 75.3198C51.1813 73.8049 51.2131 69.22 51.2381 65.5365C51.2729 60.4401 51.3035 56.0388 49.1991 54.1681C48.4423 53.4955 47.4741 53.2111 46.3984 53.3429C45.4767 53.4576 44.5415 53.6066 43.638 53.7506C38.2486 54.6088 34.8572 54.9524 33.1004 51.3434C30.2539 45.498 36.016 41.1682 38.6255 39.5782C39.1569 39.2547 39.6499 38.8733 40.108 38.4485C46.4149 37.6953 52.3743 34.9914 57.6849 31.6046C64.0523 35.4059 68.9402 41.4215 71.2846 48.5681Z" fill="#F07E2C"/>
</svg>
