<svg width="60" height="60" viewBox="0 0 60 60" fill="none" xmlns="http://www.w3.org/2000/svg">
<path d="M34.6875 27.1875C34.0406 27.1875 33.5156 27.7125 33.5156 28.3594C33.5156 29.0062 34.0406 29.5312 34.6875 29.5312C35.3344 29.5312 35.8594 29.0062 35.8594 28.3594C35.8594 27.7125 35.3344 27.1875 34.6875 27.1875Z" fill="white"/>
<path d="M30 20.1562C29.3531 20.1562 28.8281 20.6813 28.8281 21.3281C28.8281 21.975 29.3531 22.5 30 22.5C30.6469 22.5 31.1719 21.975 31.1719 21.3281C31.1719 20.6813 30.6469 20.1562 30 20.1562Z" fill="white"/>
<path d="M15.9375 50.625C15.2906 50.625 14.7656 51.15 14.7656 51.7969C14.7656 52.4437 15.2906 52.9688 15.9375 52.9688C16.5844 52.9688 17.1094 52.4437 17.1094 51.7969C17.1094 51.15 16.5844 50.625 15.9375 50.625Z" fill="white"/>
<path d="M53.2519 47.7748L38.2031 21.0212V6.83039C39.5673 6.34676 40.5469 5.04352 40.5469 3.51562C40.5469 1.57711 38.9698 0 37.0312 0H22.9687C21.0302 0 19.4531 1.57711 19.4531 3.51562C19.4531 5.04352 20.4327 6.34676 21.7969 6.83039V21.0212L6.74812 47.7748C5.30343 50.343 5.32909 53.395 6.81655 55.9384C8.3039 58.4816 10.9509 60 13.8973 60H46.1027C49.0491 60 51.696 58.4816 53.1834 55.9384C54.6709 53.395 54.6965 50.343 53.2519 47.7748ZM23.9901 21.9026C24.0888 21.7273 24.1406 21.5293 24.1406 21.3281V7.03125H25.3125C25.9596 7.03125 26.4844 6.50648 26.4844 5.85938C26.4844 5.21227 25.9596 4.6875 25.3125 4.6875H22.9687C22.3226 4.6875 21.7969 4.1618 21.7969 3.51562C21.7969 2.86945 22.3226 2.34375 22.9687 2.34375H37.0312C37.6774 2.34375 38.2031 2.86945 38.2031 3.51562C38.2031 4.1618 37.6774 4.6875 37.0312 4.6875H34.6875C34.0404 4.6875 33.5156 5.21227 33.5156 5.85938C33.5156 6.50648 34.0404 7.03125 34.6875 7.03125H35.8594V21.3281C35.8594 21.5295 35.9112 21.7271 36.0098 21.9026L42.917 34.1823C38.6988 33.8407 34.4953 34.6938 30.6333 36.6936C25.6685 39.2629 20.1416 39.7152 14.9301 38.0093L23.9901 21.9026ZM51.1602 54.7552C50.0979 56.5717 48.2072 57.6562 46.1027 57.6562H13.8973C11.7928 57.6562 9.9021 56.5717 8.83979 54.7552C7.77726 52.9384 7.75886 50.7584 8.79093 48.9237L13.7606 40.0887C16.1719 40.9307 18.6637 41.3557 21.1946 41.3557C21.5693 41.3557 21.9449 41.3464 22.3212 41.3278C25.5913 41.1659 28.7503 40.307 31.7107 38.775C35.6707 36.7247 40.0262 36.0169 44.3415 36.7147L51.2092 48.9237C52.2411 50.7584 52.2228 52.9384 51.1602 54.7552Z" fill="white"/>
<path d="M25.3125 27.1875C23.374 27.1875 21.7969 28.7646 21.7969 30.7031C21.7969 32.6416 23.374 34.2188 25.3125 34.2188C27.251 34.2188 28.8281 32.6416 28.8281 30.7031C28.8281 28.7646 27.251 27.1875 25.3125 27.1875ZM25.3125 31.875C24.6663 31.875 24.1406 31.3493 24.1406 30.7031C24.1406 30.057 24.6663 29.5312 25.3125 29.5312C25.9587 29.5312 26.4844 30.057 26.4844 30.7031C26.4844 31.3493 25.9587 31.875 25.3125 31.875Z" fill="white"/>
<path d="M44.0625 50.625H20.625C19.9779 50.625 19.4531 51.1498 19.4531 51.7969C19.4531 52.444 19.9779 52.9688 20.625 52.9688H44.0625C44.7096 52.9688 45.2344 52.444 45.2344 51.7969C45.2344 51.1498 44.7096 50.625 44.0625 50.625Z" fill="white"/>
</svg>
