<svg width="60" height="60" viewBox="0 0 60 60" fill="none" xmlns="http://www.w3.org/2000/svg">
<g id="caixa-de-leite 1">
<path id="Vector" d="M41.8551 10.944V5.51212L18.3994 2.46899V7.83993L11.6611 20.2984V53.7934L34.2525 57.4215L48.3389 53.7174V20.2412L41.8551 10.944ZM46.4639 20.8304V51.1252L41.7356 47.5965L41.8453 14.2079L46.4639 20.8304ZM39.8601 47.7399L35.1431 53.7512V24.2368L39.9675 15.0606L39.8601 47.7399ZM40.9692 49.3637L45.2817 52.5826L36.6651 54.8481L40.9692 49.3637ZM19.8497 9.09993L36.6693 11.5632L36.9412 9.7079L20.2744 7.26665V4.60274L39.9801 7.15931V11.0068L33.6895 22.9726L14.0517 19.8193L19.8497 9.09993ZM13.5361 21.6357L33.2681 24.8045V33.1248C32.2125 33.1984 31.0523 33.5134 29.8026 34.0679C27.1959 35.2402 25.9317 33.8692 24.0834 31.5362C22.672 29.754 21.0731 27.737 18.4101 27.9746C16.9659 28.1017 15.6942 28.6267 14.6292 29.5346L15.8456 30.9615C16.6083 30.3113 17.5265 29.9349 18.5775 29.8421C20.2308 29.6945 21.3356 31.0862 22.6139 32.7006C23.9465 34.3829 25.5295 36.3817 28.0406 36.3817C28.7934 36.3817 29.6297 36.2017 30.5676 35.7802C31.5637 35.3387 32.4675 35.0813 33.2686 35.0077V55.3646L13.5365 52.1963L13.5361 21.6357Z" fill="white"/>
</g>
</svg>
