<svg width="30" height="30" viewBox="0 0 30 30" fill="none" xmlns="http://www.w3.org/2000/svg">
<path d="M26.6399 20.8804C24.6954 19.3304 22.722 18.3914 20.8013 19.9392L19.6544 20.8746C18.8153 21.5536 17.2551 24.7264 11.223 18.2591C5.19219 11.8001 8.78105 10.7945 9.62143 10.1213L10.7746 9.18468C12.6852 7.63344 11.9642 5.68064 10.5862 3.67046L9.75458 2.45289C8.37029 0.447396 6.86289 -0.869695 4.94724 0.679204L3.91216 1.52214C3.0655 2.09698 0.698889 3.96549 0.124822 7.5152C-0.566069 11.7744 1.61338 16.6517 6.60663 22.0032C11.5936 27.357 16.4763 30.0462 21.1015 29.9994C24.9454 29.9608 27.2668 28.0384 27.9928 27.3395L29.0317 26.4953C30.9423 24.9476 29.7552 23.3718 27.8094 21.8182L26.6399 20.8804Z" fill="white"/>
</svg>
