<svg width="40" height="40" viewBox="0 0 40 40" fill="none" xmlns="http://www.w3.org/2000/svg">
<path d="M27.1262 23.532L21.5491 19.3492V10.8288C21.5491 9.97204 20.8566 9.27954 19.9999 9.27954C19.1432 9.27954 18.4507 9.97204 18.4507 10.8288V20.1239C18.4507 20.6119 18.68 21.072 19.0704 21.3633L25.2671 26.0109C25.5459 26.22 25.8713 26.3207 26.1951 26.3207C26.6676 26.3207 27.1323 26.1084 27.436 25.6995C27.9504 25.0162 27.811 24.0449 27.1262 23.532Z" fill="white"/>
<path d="M20 0C8.97133 0 0 8.97133 0 20C0 31.0287 8.97133 40 20 40C31.0287 40 40 31.0287 40 20C40 8.97133 31.0287 0 20 0ZM20 36.9016C10.6816 36.9016 3.09836 29.3184 3.09836 20C3.09836 10.6816 10.6816 3.09836 20 3.09836C29.3199 3.09836 36.9016 10.6816 36.9016 20C36.9016 29.3184 29.3184 36.9016 20 36.9016Z" fill="white"/>
</svg>
