<svg width="150" height="150" viewBox="0 0 150 150" fill="none" xmlns="http://www.w3.org/2000/svg">
<rect x="0.5" y="0.5" width="149" height="149" rx="14.5" fill="#FFE8D2" stroke="#F56311"/>
<path d="M36 111H113C115.75 111 118 108.75 118 106V43C118 40.25 115.75 38 113 38H36C33.25 38 31 40.25 31 43V106C31 108.75 33.25 111 36 111ZM99.54 47.89C104.31 47.89 108.18 51.76 108.18 56.53C108.18 61.3 104.31 65.17 99.54 65.17C94.77 65.17 90.9 61.3 90.9 56.53C90.9 51.76 94.77 47.89 99.54 47.89ZM40.29 96.95L62.48 66.25C64.09 64.02 66.73 64.02 68.34 66.25L81.46 84.39C83.07 86.62 85.71 86.62 87.32 84.39L90.89 79.45C92.5 77.22 95.14 77.22 96.75 79.45L109.4 96.95C111.01 99.18 110.08 101 107.33 101H42.36C39.61 101 38.68 99.18 40.29 96.95Z" fill="#F07E2C"/>
</svg>
