<svg width="60" height="60" viewBox="0 0 60 60" fill="none" xmlns="http://www.w3.org/2000/svg">
<path d="M35.1479 33.4009C34.2971 33.0446 33.744 34.3067 34.5854 34.6899C35.38 35.0368 36.2378 35.2044 37.0967 35.2044C41.6483 35.3497 44.9003 30.3482 43.0253 26.2243C42.9186 25.9829 42.6854 25.8212 42.4217 25.806C42.1569 25.7907 41.9073 25.9243 41.7749 26.1528C41.0577 27.3774 39.5682 28.1439 38.155 28.0185C34.9194 27.2521 33.4639 29.1716 32.9003 32.1716C31.46 32.795 30.1815 33.6341 29.3975 34.8259C28.9885 33.0892 28.535 31.3642 28.4589 29.6532C34.2221 28.0173 34.6862 21.4032 34.1319 16.2259C34.0757 15.4243 32.885 15.354 32.7397 16.1485C32.2628 19.0337 27.9022 19.9899 25.9686 22.0548C24.6468 23.3849 23.9307 25.7743 24.935 27.388C25.412 28.1732 26.6096 27.4595 26.1421 26.6661C25.5034 25.5962 26.0671 23.9778 26.9811 23.0321C28.5948 21.3939 31.419 20.631 32.8803 18.8439C33.1792 22.5071 31.8526 27.2075 28.5046 28.1872C28.7026 26.4329 29.4315 24.5825 31.0218 23.6321C31.8046 23.1505 31.1038 21.961 30.2999 22.4251C27.7663 23.9403 26.9577 27.1161 27.0468 29.5829C27.1815 32.9228 28.5151 35.9778 28.7249 39.2814C28.1096 38.2853 27.2846 37.4192 26.3272 36.7466C25.9417 33.0845 21.3479 32.0439 18.6632 34.4122C17.5546 35.3157 16.7014 36.6189 16.1249 38.2853C15.8659 38.972 16.8057 39.5474 17.2979 39.0001C17.612 38.672 17.9366 38.3321 18.2975 38.1177C19.8807 37.1638 20.1772 39.7583 21.5061 40.4017C22.1366 40.772 22.9382 40.7919 23.6225 40.5118C24.5014 40.2165 25.8315 38.6345 24.5717 38.0931C24.1979 37.9888 23.81 38.2091 23.7069 38.5841C23.5803 39.1302 22.6897 39.4923 22.2186 39.1899C21.8928 38.9978 21.6339 38.6052 21.3608 38.1903C20.8452 37.2728 19.8198 36.2603 18.5753 36.538C19.8796 34.5528 23.094 33.6165 24.5296 35.7716C24.1909 35.6357 23.844 35.5196 23.4901 35.4271C22.5925 35.2091 22.2432 36.538 23.135 36.7876C26.2569 37.561 28.5889 40.5235 28.6475 43.7321C28.5479 44.5911 28.4003 45.4466 28.2022 46.295C27.6561 46.3091 27.1382 46.6149 26.6565 46.7368C25.9745 46.5728 25.1413 46.7216 24.6878 47.2888C24.6034 47.3884 24.4733 47.3778 24.4217 47.3696C23.755 47.2595 22.9862 47.5724 22.5925 48.1126C22.1565 48.7138 22.2198 48.9751 21.9186 49.5458C21.4897 50.3544 22.712 51.0224 23.1573 50.2114C23.469 49.6677 23.4233 49.3853 23.728 48.9411C24.1651 48.4747 24.9092 49.1884 25.7846 48.1712C26.005 47.9767 26.3401 48.1501 26.6366 48.1419C27.1253 48.1454 27.41 47.9743 27.7417 47.8384C28.1085 47.6884 28.6053 47.6415 29.0378 47.713C29.7807 47.8454 30.2553 48.4607 31.0475 48.2474C31.5292 48.0669 32.7854 48.4782 32.8932 48.6423C33.4112 49.1532 33.3385 49.5739 33.8413 50.1048C34.4717 50.7692 35.4948 49.8095 34.8632 49.138C34.7753 49.0442 34.7249 48.9411 34.637 48.7524C34.5046 48.4677 34.3229 48.0786 33.8835 47.6439C33.3221 47.0778 31.7495 46.6267 30.771 46.8704C30.6971 46.8845 30.6245 46.8704 30.5647 46.8306C30.294 46.6442 29.9729 46.5001 29.6214 46.404C31.7589 37.8716 25.944 34.581 38.4397 32.0099C38.9143 31.9642 39.328 31.6267 39.2143 31.1134C39.0936 30.6013 38.5803 30.4747 38.1292 30.6376C37.0124 30.8896 35.735 31.179 34.4858 31.581C34.855 30.0751 35.7913 28.8974 37.4038 29.3368C39.0667 29.6732 40.8549 29.1587 42.0796 27.995C42.7323 31.8716 38.7221 34.9489 35.1479 33.4009Z" fill="white"/>
<path d="M20.3063 47.5946C20.2805 47.3473 20.1259 47.1305 19.8985 47.0274C15.2532 44.9051 11.8536 40.6583 10.8012 35.6637C9.91297 30.0223 12.2954 24.0317 16.8212 20.5501L17.4528 22.3172C17.5395 22.5587 17.7505 22.7344 18.0036 22.7754C18.2567 22.8165 18.5122 22.7157 18.6704 22.5118L25.0138 14.3415C25.3302 13.9571 25.104 13.3196 24.613 13.2247L14.522 10.9512C14.2712 10.895 14.0098 10.9794 13.8411 11.1715C13.6712 11.3637 13.6196 11.6333 13.7063 11.8747L14.4739 14.0098C-0.522578 23.3051 0.9575 46.2106 17.263 53.195C17.7305 53.4212 18.3177 53.0063 18.2497 52.486L17.9837 49.7356L20.0239 48.2333C20.2243 48.0856 20.3321 47.843 20.3063 47.5946ZM16.8282 48.8403C16.629 48.9868 16.5212 49.2282 16.5458 49.4743L16.7298 51.3762C2.10242 44.1165 1.70516 23.1036 15.6845 14.911C15.9833 14.7352 16.1016 14.3719 15.9856 14.059L15.463 12.6024L23.2255 14.3508L18.347 20.6344L17.829 19.1837C17.6884 18.7583 17.1282 18.5766 16.7661 18.8426C6.2532 26.0731 6.89187 41.7739 18.2649 47.7809L16.8294 48.8379L16.8282 48.8403Z" fill="white"/>
<path d="M54.1955 25.725C51.8939 18.7136 46.324 13.2105 39.3115 11.0121C39.0724 10.9371 38.8111 10.9945 38.6271 11.1644C38.442 11.3332 38.3611 11.5886 38.415 11.8324L39.0033 14.5312L37.1541 16.2632C36.765 16.6078 36.9197 17.3015 37.4201 17.4457C48.8002 21.0632 52.0181 35.0132 43.5935 43.3781L42.758 41.6964C42.6443 41.4667 42.4135 41.3168 42.1568 41.3062C41.9013 41.298 41.6588 41.4257 41.5263 41.646L36.1896 50.5078C35.9201 50.9273 36.2201 51.5332 36.7193 51.5695L47.0084 52.6382C47.2603 52.6652 47.5135 52.5503 47.6588 52.3394C47.8052 52.1285 47.824 51.8542 47.7103 51.6246L46.6967 49.5949C53.6998 43.8457 56.647 34.466 54.1978 25.7226L54.1955 25.725ZM45.1955 49.7425L45.8775 51.1089L37.9627 50.2863L42.0666 43.4707L42.7521 44.8511C42.942 45.2578 43.5197 45.3726 43.8478 45.0644C53.4361 36.6457 50.9541 21.13 38.9517 16.5035C40.9568 14.6238 40.5642 15.3937 40.0521 12.7558C55.4295 18.2378 58.3017 39.0597 45.3853 48.8402C45.1029 49.0535 45.0267 49.4402 45.1931 49.7414L45.1955 49.7425Z" fill="white"/>
</svg>
