<svg width="30" height="20" viewBox="0 0 30 20" fill="none" xmlns="http://www.w3.org/2000/svg">
<path d="M29.2681 0.630609L29.2677 0.630228L29.267 0.629685C28.8186 0.224666 28.2171 -0.00135919 27.5913 6.14983e-06H2.4088C1.78954 -0.00127545 1.19382 0.220063 0.746678 0.617562L0.745857 0.618269L0.745388 0.618649L0.745095 0.618921L0.744568 0.619464C0.508227 0.827302 0.320244 1.07783 0.192196 1.35561C0.0641489 1.63339 -0.00125305 1.93256 1.8182e-05 2.23468V17.7652C0.000421761 18.3578 0.254333 18.926 0.705981 19.345C1.15763 19.764 1.77008 19.9996 2.4088 20H27.5911C28.2299 19.9997 28.8424 19.7641 29.294 19.3451C29.7457 18.926 29.9996 18.3578 30 17.7652V2.23468C30.0011 1.9353 29.9368 1.63883 29.811 1.36313C29.6852 1.08744 29.5005 0.838256 29.2681 0.630609ZM19.272 9.98489L28.7828 1.79902C28.8415 1.93779 28.8715 2.08559 28.8712 2.23468V17.7652C28.8713 17.9134 28.8415 18.0603 28.7833 18.1984L19.272 9.98489ZM27.5911 1.04681C27.7106 1.04689 27.8294 1.06243 27.9442 1.09296L15.0098 12.2254L8.18075 6.34789L2.07189 1.08921C2.18168 1.0613 2.29497 1.04704 2.4088 1.04681H27.5911ZM1.21619 18.1984C1.15799 18.0604 1.12818 17.9134 1.1283 17.7652V2.23468C1.12791 2.08094 1.15975 1.92859 1.22205 1.78613L7.41317 7.11543L10.7373 9.97636L1.21619 18.1984ZM2.4088 18.953C2.28847 18.9529 2.16874 18.9372 2.05314 18.9061L11.5669 10.6903L14.6261 13.3232C14.7305 13.413 14.8676 13.4629 15.0099 13.4629C15.1522 13.4629 15.2893 13.413 15.3937 13.3232L18.4428 10.6989L27.9467 18.9062C27.8311 18.9372 27.7113 18.9529 27.591 18.953H2.4088Z" fill="white"/>
</svg>
