<svg width="100" height="115" viewBox="0 0 100 115" fill="none" xmlns="http://www.w3.org/2000/svg">
<path fill-rule="evenodd" clip-rule="evenodd" d="M31.494 67.0781L32.8321 69.2707C37.9616 73.5186 40.3086 76.7882 42.4816 79.8168C44.2006 82.2122 45.834 84.4869 48.1705 86.8537L47.1081 84.9172C45.3645 83.1522 44.0997 81.3892 42.7677 79.5335C40.1137 75.836 37.2483 71.8431 31.494 67.0781ZM51.5113 89.9957C54.5794 70.0439 40.7429 66.2385 27.8564 63.5794C34.3568 72.7909 28.3471 90.8992 51.5113 89.9957ZM75.8757 54.8482L76.1629 52.202C67.5261 60.6124 63.872 67.4174 60.4864 73.7215C58.4292 77.5532 56.4735 81.1946 53.4871 84.8968L53.3352 87.3911C56.4866 83.4841 58.5255 79.6877 60.6709 75.692C63.9388 69.6073 67.4656 63.0384 75.8757 54.8482ZM39.1909 39.2821L39.1988 39.2581L39.2014 39.2495L39.204 39.2424C39.2522 39.1004 39.3015 38.9576 39.353 38.8148L39.3575 38.8007C39.4094 38.6552 39.4639 38.5088 39.518 38.3613L39.5192 38.3594L39.5278 38.3354C39.5785 38.2016 39.6304 38.0683 39.6831 37.9337L39.7066 37.8737C39.7585 37.7438 39.8101 37.6136 39.8646 37.4837L39.8769 37.4523L39.8937 37.4139L40.0674 37.0008L40.0733 36.9859C40.2033 36.6846 40.3377 36.3813 40.4781 36.0765L40.4789 36.0745C40.5491 35.9215 40.6208 35.7678 40.6936 35.6148L40.6962 35.6093C40.7605 35.4735 40.8254 35.337 40.8919 35.2009L40.9614 35.0596L41.0992 34.7787L41.1507 34.6756L41.1683 34.6402L41.3893 34.2024H41.3904L41.5895 33.8156L41.635 33.7269L41.6519 33.6948L41.8703 33.2809L41.8871 33.2476L41.8965 33.2311C42.65 31.8144 43.4847 30.3527 44.3697 28.8321L44.4067 28.7685L44.5068 28.5971L44.6442 28.3609L44.7095 28.2503L44.7831 28.124L44.9224 27.8854L45.0154 27.727L45.0621 27.6457L45.2025 27.406L45.3242 27.1977L45.3444 27.1656L45.4867 26.9231L45.6289 26.6799L45.6375 26.665L45.7716 26.4355L45.9157 26.1903L45.9527 26.1267L46.0595 25.9435L46.2044 25.6963L46.2701 25.583L46.3489 25.4476L46.4946 25.1977L46.5902 25.0345L46.6413 24.947L46.7877 24.6956L46.9124 24.4798L46.9345 24.4421L47.2291 23.9321L47.2362 23.9192L47.3762 23.6752L47.5249 23.4178L47.5607 23.3543L47.5738 23.3323L47.8214 22.898L47.8871 22.7819L47.9696 22.6363L48.1179 22.3739L48.2135 22.2052L48.2669 22.1102L48.5275 21.6457L48.5406 21.6206L48.5653 21.5783L48.8528 21.0604L48.8636 21.0408L48.8689 21.031L48.8916 20.9894C49.081 20.6465 49.2707 20.2997 49.46 19.9506L49.5242 19.8317L49.5594 19.7674L49.8428 19.2381L49.8573 19.2107L50.1778 18.6057L50.2032 18.5571L50.4989 17.9894L50.5023 17.9827L50.7936 17.4158L50.8268 17.3523L50.8436 17.3182C50.9444 17.12 51.0452 16.9211 51.1453 16.7211L51.1517 16.7073L51.4306 16.1467L51.5035 15.9992L51.7667 15.4602L51.7869 15.4178L51.8142 15.3625L52.0789 14.8086L52.101 14.7615L52.1028 14.7579L52.1263 14.7089C52.3202 14.2978 52.5132 13.8823 52.7044 13.4618L52.7511 13.3586L53.0211 12.7579L53.0424 12.7089C53.1361 12.4971 53.2298 12.2848 53.3232 12.0702L53.3422 12.0251C53.4416 11.7984 53.539 11.5708 53.6361 11.3413C53.2679 10.0388 52.9333 8.69125 52.6413 7.29227C52.5782 7.59278 52.5143 7.89212 52.4467 8.18793L52.4397 8.22205C52.3773 8.49706 52.3142 8.7705 52.2481 9.04237L52.2219 9.15222C52.1588 9.4131 52.0939 9.67203 52.0281 9.93017L52.0072 10.0094C51.9385 10.2766 51.8683 10.5422 51.7966 10.8058L51.7817 10.8592C51.707 11.133 51.6308 11.4049 51.5524 11.6748L51.5471 11.6932L51.5367 11.7293C51.4613 11.9902 51.384 12.2499 51.3059 12.5073L51.2857 12.5724C51.2103 12.8168 51.1349 13.06 51.0576 13.3005L51.0202 13.4206C50.9403 13.6658 50.8604 13.9098 50.7786 14.1522L50.7655 14.1918C50.6789 14.4519 50.59 14.7101 50.5008 14.9663L50.4944 14.982C50.3092 15.51 50.118 16.0298 49.9234 16.5422L49.9223 16.5441C49.8278 16.7921 49.7322 17.0388 49.6355 17.2832L49.6161 17.3323C49.5224 17.57 49.4275 17.805 49.3312 18.04L49.3144 18.0804C49.2154 18.3229 49.1153 18.5618 49.0145 18.8003L49.0126 18.805L49.0037 18.8254C48.6978 19.5469 48.3838 20.2519 48.0641 20.9423L48.0439 20.9855C47.287 22.6179 46.4983 24.1656 45.7033 25.641L45.6973 25.652L45.3552 26.2825L45.3533 26.2864L45.0341 26.8643L44.9885 26.947C44.7779 27.3268 44.5661 27.7018 44.3559 28.0726L44.3242 28.1279L44.3047 28.162L44.3032 28.1656C43.2942 29.94 42.3013 31.6089 41.3755 33.1997L39.1909 39.2821ZM41.3755 33.1997L41.3464 33.2507L41.2429 33.4276L41.0428 33.7732L41.0361 33.7858L40.9815 33.88L40.8527 34.1047L40.7306 34.317L40.7235 34.3288L40.4711 34.7732L40.4322 34.8415L40.4128 34.8752L40.1577 35.3299L40.1402 35.3613L40.1006 35.4319L39.862 35.8635L39.8594 35.8682L39.856 35.8745L39.8399 35.9039C39.7612 36.0467 39.6838 36.1887 39.6077 36.3307L39.5427 36.4515L39.3418 36.8274L39.3093 36.8886L39.2832 36.94C39.2085 37.082 39.1349 37.2228 39.0621 37.3629L39.0498 37.3888C38.9706 37.5418 38.8937 37.6948 38.8171 37.847L38.7801 37.9208C38.7066 38.0683 38.6345 38.2158 38.5635 38.3613L38.5565 38.3758L38.5408 38.4084C38.4739 38.5473 38.4082 38.6846 38.3443 38.8219L38.3242 38.8647L38.3055 38.9058C38.2424 39.0416 38.18 39.1769 38.1195 39.3115L38.0889 39.3805C38.0265 39.5206 37.966 39.6599 37.9063 39.798L37.8925 39.8293L37.8861 39.8443C37.8241 39.9906 37.7636 40.1353 37.7046 40.2801L37.6774 40.3476C37.6221 40.4837 37.5687 40.6202 37.5168 40.7556L37.4993 40.8011C37.4425 40.951 37.3861 41.1012 37.3327 41.2515L37.3308 41.2554C37.2774 41.4056 37.2255 41.5567 37.1755 41.7069L37.1632 41.7438C37.1169 41.8831 37.0728 42.0212 37.031 42.1597L37.0142 42.213C36.9693 42.3594 36.9275 42.5069 36.8872 42.6524L36.8816 42.6693C36.8439 42.8093 36.808 42.9474 36.7729 43.0875L36.7554 43.1569C36.7229 43.2903 36.6923 43.4229 36.6631 43.5559L36.6538 43.603C36.6228 43.7474 36.594 43.8921 36.5675 44.0369L36.5634 44.06C36.5388 44.1965 36.516 44.3339 36.4958 44.4692L36.4861 44.5375C36.466 44.6783 36.4465 44.8184 36.4309 44.9596L36.4297 44.9659C36.4133 45.1134 36.3999 45.2609 36.3887 45.4084L36.386 45.4398C36.3756 45.5798 36.3677 45.7207 36.3625 45.8619L36.3606 45.8953C36.3554 46.0435 36.3517 46.1911 36.3517 46.3374C36.3517 50.2797 37.0168 54.2205 38.6136 57.5194C38.3522 58.2715 38.1979 59.0282 38.1979 59.8301C38.1979 61.5822 38.5979 63.3323 39.6155 64.5516C40.4498 65.5528 41.7026 66.1989 43.4951 66.1989C45.2902 66.1989 46.5483 65.5488 47.3878 64.5426C48.7102 62.9572 49.2292 60.7258 49.2292 58.5084C49.2292 57.0004 48.3573 55.5128 47.2948 53.6999C46.092 51.6481 44.6427 49.1761 43.9425 45.8176L43.8469 45.3613L43.5075 46.9918C42.9626 49.6038 41.6362 51.8658 40.5357 53.743C40.2149 54.2907 39.9094 54.8133 39.6297 55.3221C38.6128 52.0859 38.1696 48.5328 38.1696 44.9808C38.1696 44.8395 38.1722 44.6987 38.1767 44.5579L38.1774 44.5308C38.1811 44.39 38.1871 44.2499 38.1961 44.1087V44.1079L38.1968 44.0922C38.2047 43.9596 38.2151 43.8278 38.2267 43.6952L38.2312 43.6426C38.2435 43.5155 38.2566 43.3872 38.2708 43.2601L38.2741 43.2334L38.2775 43.2036C38.2936 43.069 38.3107 42.9345 38.3301 42.7999L38.3328 42.787C38.3511 42.6552 38.3723 42.5226 38.3951 42.39L38.4041 42.3366C38.4276 42.2001 38.453 42.0636 38.4803 41.927L38.4848 41.9015C38.5109 41.7685 38.5389 41.6367 38.568 41.5033L38.5785 41.4582C38.6084 41.3244 38.6397 41.1918 38.6722 41.0581L38.6778 41.0361L38.6838 41.011C38.7178 40.8737 38.754 40.7364 38.7906 40.5991L38.7936 40.5881C38.8328 40.4441 38.8731 40.3013 38.9153 40.1565L41.3755 33.1997ZM61.3831 56.8694C55.6602 61.1765 51.4639 66.9914 50.484 75.5069C52.3228 79.2075 53.1047 83.8913 52.3657 89.9129C83.8781 86.7442 73.8185 61.6395 81.8854 47.133C78.5432 48.2962 75.1583 49.5245 71.9087 50.9439C72.1253 51.5394 72.2523 52.1212 72.2523 52.7089C72.2523 54.6862 71.7347 56.7423 70.4161 58.3229L70.4153 58.3221C69.4694 59.4559 68.1142 60.1875 66.2437 60.1875C64.4299 60.1875 63.1606 59.5324 62.314 58.5182C61.913 58.0373 61.6079 57.4786 61.3831 56.8694ZM66.4226 42.1918C65.6021 44.7889 64.4071 46.827 63.3809 48.5771C62.4481 50.1699 61.6833 51.4751 61.6833 52.7089V52.7654V52.7882V52.8223L61.684 52.8674V52.8788L61.6848 52.9357V52.947L61.6867 52.9929L61.6874 53.0263L61.6885 53.049L61.6904 53.1055L61.6919 53.1624L61.6926 53.1848L61.6945 53.2189L61.6971 53.264V53.2758L61.7009 53.3323L61.7016 53.3433L61.7042 53.3892L61.7068 53.4225L61.7079 53.4457L61.7121 53.5018L61.7165 53.5579L61.7184 53.5802L61.7218 53.614L61.7251 53.6583L61.7262 53.6705L61.7315 53.7266L61.7333 53.7375L61.7374 53.7827L61.7412 53.816L61.7438 53.8392L61.7498 53.8945V53.8953L61.7569 53.9506L61.7595 53.9718L61.7632 54.0067L61.7692 54.0502L61.7711 54.062L61.7789 54.1173L61.7796 54.1275L61.7867 54.1738L61.7912 54.2048L61.7953 54.2287L61.8035 54.2825V54.284L61.8129 54.3386L61.8166 54.3598L61.8218 54.3939L61.8297 54.4363L61.8316 54.4484L61.842 54.5037L61.8439 54.5127L61.8525 54.5579L61.8588 54.5893L61.8629 54.6124L61.8737 54.665L61.8745 54.6669L61.8857 54.7211L61.8902 54.7403L61.8973 54.7744L61.907 54.816L61.9096 54.8289L61.9219 54.8823L61.9245 54.8917L61.935 54.9361L61.9428 54.9663L61.9488 54.9894L61.9623 55.0408V55.0428L61.9761 55.0953L61.9817 55.1146L61.9903 55.1487L62.0018 55.1883L62.0052 55.2013L62.0201 55.2538L62.0228 55.2621L62.0358 55.3064L62.0448 55.335L62.0515 55.3582L62.0676 55.4076L62.0683 55.4096L62.0851 55.4614L62.0903 55.4798L62.1015 55.5128L62.115 55.5516L62.1191 55.5645L62.1366 55.6151L62.1393 55.6226L62.1553 55.6658L62.165 55.6936L62.1736 55.7164L62.1919 55.7646V55.7662L62.2121 55.8172L62.2184 55.8344L62.2315 55.8666L62.2464 55.9035L62.2517 55.9164L62.2726 55.9655L62.2756 55.9729L62.2931 56.0141L62.3043 56.042L62.314 56.0632L62.3349 56.1091L62.3361 56.1118L62.3577 56.1608C62.5482 56.57 62.7823 56.9498 63.065 57.2899C63.8862 58.2734 65.1189 58.9094 66.883 58.9094C68.5896 58.9094 69.7364 58.3507 70.4583 57.4861V57.4853C71.1656 56.6363 71.4434 55.2169 71.4434 53.7203C71.4434 52.9792 71.21 52.226 70.8381 51.4206L70.8216 51.3864L70.8164 51.3735L70.8059 51.3515L70.7891 51.3166L70.7821 51.3017L70.7723 51.2825L70.7559 51.2464L70.7469 51.2279L70.7391 51.2115L70.7216 51.1761L70.7111 51.155L70.704 51.1412L70.6872 51.1063L70.6741 51.0812L70.6696 51.0714L70.6513 51.0353L70.6372 51.0075L70.6338 51.0004L70.6155 50.9643L70.5994 50.9329L70.5968 50.9294L70.5793 50.8933L70.561 50.8584V50.8572L70.5416 50.8215L70.5233 50.7854L70.5225 50.7838L70.505 50.7497L70.4855 50.7136L70.4822 50.7081L70.4661 50.6775L70.4471 50.6418L70.4426 50.6324L70.4277 50.6049L70.4075 50.5689L70.4011 50.5571L70.3881 50.532L70.3679 50.4963L70.3601 50.4806L70.3477 50.4594L70.3276 50.4225L70.3179 50.4041L70.3074 50.3864L70.288 50.3488L70.2749 50.3276L70.2671 50.3119L70.2469 50.275L70.232 50.2499L70.226 50.2381L70.2047 50.2013L70.189 50.1718L70.1838 50.1632L70.1625 50.1263L70.145 50.0942L70.1416 50.0887L70.1207 50.051L70.1002 50.0149L70.0994 50.0133L70.0774 49.9753L70.0557 49.9376V49.9368L70.0344 49.8996L70.0128 49.8619L70.0102 49.8572L69.9907 49.8242L69.9687 49.7854L69.9646 49.7779L69.9467 49.7477L69.9239 49.7089L69.9179 49.6971L69.9022 49.6705L69.8795 49.6316L69.8712 49.6167L69.8574 49.5928L69.8346 49.5539L69.8242 49.5359L69.8119 49.5155L69.7898 49.4767L69.7764 49.4547L69.7671 49.437L69.7443 49.3986L69.7293 49.3727L69.7204 49.3586L69.6976 49.3201L69.6812 49.2907L69.6748 49.2805L69.652 49.2409L69.6319 49.2075L69.6285 49.2013L69.6046 49.1605L69.5837 49.1248L69.5818 49.1208L69.5583 49.0812L69.5344 49.0408C68.4589 47.2056 67.1877 45.0361 66.4226 42.1918ZM43.7136 46.5006C42.3924 52.8352 38.4284 56.0012 38.4284 59.1691C38.4284 62.3362 39.7496 65.5029 43.7136 65.5029C47.6772 65.5029 48.9984 62.3362 48.9984 59.1691C48.9984 56.0012 45.0348 52.8352 43.7136 46.5006ZM39.769 55.7505C39.3145 56.5406 38.9444 57.2381 38.7697 57.8344C40.1473 60.5426 42.1739 62.7925 45.0049 64.2134C42.5589 61.9635 40.8613 59.0298 39.769 55.7505ZM65.9946 43.778C65.9207 44.133 65.8355 44.4739 65.7425 44.8038C67.3509 48.6065 69.6599 50.9651 69.6599 53.3248C69.6599 55.1836 69.1808 57.0435 67.929 58.1958C69.5363 57.3892 70.1207 55.5284 70.1207 53.6685C70.1207 51.1958 67.026 48.7226 65.9946 43.778ZM53.331 115C36.451 115 21.6652 106.692 13.4698 94.2495C21.4326 103.896 33.9811 110.122 48.0977 110.122C72.1567 110.122 91.6679 92.0447 91.6679 69.7536C91.6679 54.2491 82.226 40.7854 68.3824 34.0228C71.0838 38.858 73.0167 43.1354 73.0167 47.4131C73.0167 48.1016 72.9991 48.7901 72.964 49.4767L72.942 49.4861L72.92 49.4959L72.8983 49.5053H72.8972L72.8755 49.5143L72.8535 49.5245L72.8315 49.5339L72.8087 49.543L72.7866 49.5532L72.7646 49.5626L72.7418 49.5724L72.7202 49.5818L72.6981 49.592L72.6761 49.601L72.6541 49.6112L72.6313 49.6206L72.6096 49.6297L72.5876 49.6399L72.5648 49.6489L72.5428 49.6591L72.5208 49.6693L72.4991 49.6787L72.4887 49.683L72.4763 49.6877L72.4543 49.6979L72.4323 49.7069L72.4102 49.7171L72.3886 49.7266L72.3658 49.7368L72.3438 49.7458L72.3217 49.756L72.3001 49.765L72.2769 49.7752L72.256 49.7854L72.2332 49.7948L72.2112 49.805L72.1892 49.814L72.1675 49.8242L72.1447 49.8344L72.0805 49.8619L72.0786 49.8639L72.057 49.8729L72.0129 49.8925L71.9909 49.9027L71.9681 49.9125L71.9472 49.9219L71.9244 49.9321L71.9024 49.9423L71.8803 49.9514L71.8587 49.9616L71.8366 49.9718L71.8146 49.982L71.7929 49.991L71.7709 50.0012L71.7481 50.0114L71.7268 50.0204L71.7041 50.0306L71.6604 50.051L71.6383 50.06L71.6163 50.0702L71.5943 50.0804L71.5726 50.0906L71.5506 50.0996L71.5401 50.0785L71.5349 50.0667L71.5181 50.0333L71.5039 50.0031L71.5024 50.0004L71.4856 49.9663L71.4699 49.9329L71.4662 49.9266L71.4524 49.8988L71.4367 49.8658L71.4285 49.8501L71.4191 49.8317L71.4023 49.7976L71.39 49.7736L71.3848 49.7642L71.3672 49.7301L71.3504 49.6971V49.696L71.3321 49.6618L71.3146 49.6277L71.3112 49.6206L71.297 49.594L71.2795 49.5598L71.2705 49.543L71.2612 49.5257L71.2425 49.4916L71.2294 49.4657L71.2249 49.4563L71.2066 49.4225L71.1883 49.3884L71.1872 49.3872L71.1689 49.3531L71.1506 49.3189L71.1454 49.3091L71.1312 49.284L71.1129 49.2491L71.1025 49.2307L71.0935 49.2142L71.0741 49.1801L71.0584 49.1514L71.055 49.1448L71.0356 49.1098L71.0162 49.0749L71.0143 49.0722L70.996 49.0388L70.977 49.0039L70.9706 48.9929L70.9568 48.969L70.9374 48.9329L70.9251 48.9125L70.9172 48.898L70.8971 48.8627L70.8803 48.8325L70.8769 48.827L70.8567 48.7909L70.8366 48.756L70.834 48.7513L70.8153 48.7199L70.7951 48.6842L70.7873 48.6701L70.775 48.6481L70.754 48.612L70.7406 48.5892L70.7331 48.5763L70.7118 48.5394L70.6935 48.5073L70.6909 48.5033L70.6696 48.4665L70.6495 48.4308L70.6461 48.4253L70.6278 48.3939L70.6065 48.3578L70.5979 48.3421L70.5856 48.3209L70.5643 48.284L70.5498 48.2593L70.5427 48.2472L70.5206 48.2103L70.5005 48.1754L70.4997 48.1734L70.4777 48.1357L70.4557 48.0989L70.4512 48.0914L70.4336 48.062L70.4116 48.0243L70.4023 48.0067L70.3522 47.9219L70.3459 47.9117L70.3242 47.8741L70.3022 47.836C69.1038 45.7917 67.6605 43.3299 66.9629 39.9835L66.6664 38.5641L66.1724 40.9298L66.1496 41.0388L66.1417 41.0765L66.1261 41.1467L66.1093 41.2213L66.1022 41.2542L66.0779 41.3605L66.0768 41.3648L66.0521 41.4665L66.0428 41.5077L66.0267 41.5724L66.0077 41.6489L66.0006 41.6763L65.9733 41.7807L65.9715 41.7889L65.9461 41.8839L65.9349 41.929L65.9188 41.9871L65.8971 42.0675L65.8908 42.0894L65.862 42.1907L65.8583 42.2036L65.8329 42.2923L65.8191 42.3393L65.803 42.3927L65.7732 42.4924L65.7425 42.5908L65.7373 42.6085L65.7119 42.6905L65.6962 42.7411L65.6802 42.7882L65.6533 42.8729L65.6488 42.8858L65.6163 42.9827L65.6092 43.0027L65.5838 43.0785L65.5655 43.1318L65.5506 43.1742L65.5207 43.2601L65.5181 43.2691L65.4837 43.3641L65.4759 43.388L65.4494 43.4582L65.4292 43.5143L65.4154 43.5512L65.3829 43.6399L65.3811 43.6442L65.3459 43.7364L65.3355 43.7642L65.3108 43.8278L65.2873 43.8866L65.275 43.92L65.2391 44.0094V44.0102L65.2022 44.1004L65.1899 44.131L65.1663 44.1899L65.1409 44.2519L65.1294 44.2793L65.0924 44.368L65.0909 44.3707L65.0547 44.4555L65.0397 44.4896L65.017 44.543L64.9889 44.6065L64.9792 44.6297L64.9408 44.7164L64.9154 44.7744L64.9031 44.8031L64.8863 44.8388L64.8642 44.8886L64.8556 44.907L64.825 44.9733L64.7862 45.0581L64.747 45.142L64.7294 45.1809L64.7081 45.2252L64.6756 45.2931L64.6689 45.3087L64.6286 45.3907L64.6222 45.4049L64.589 45.4727L64.5688 45.5155L64.5487 45.5551L64.5143 45.6249L64.5091 45.6359L64.4688 45.7171L64.4598 45.7336L64.4284 45.7972L64.4056 45.8415L64.387 45.8764L64.3511 45.9486L64.3466 45.9561L64.3063 46.0353L64.2959 46.0545L64.2652 46.1134L64.2406 46.1605L64.2249 46.1918L64.1431 46.3468L64.1308 46.3688L64.102 46.4233L64.0755 46.4719L64.061 46.4998L64.0203 46.5743L64.0195 46.5751L63.9784 46.6508L63.9642 46.6767L63.937 46.7266L63.9194 46.7576L63.909 46.7772L63.9056 46.7834L63.8914 46.8085L63.8772 46.8341L63.807 46.9604L63.7984 46.9772L63.7932 46.9855L63.779 47.0102L63.7652 47.0353L63.6255 47.2832L63.6117 47.3072L63.5975 47.3319L63.5833 47.3558L63.5766 47.368L63.5695 47.3809L63.5415 47.4296L63.5273 47.4535L63.4721 47.5504L63.4668 47.5598L63.4582 47.5743L63.444 47.5983L63.4299 47.6222L63.4168 47.6461L63.4123 47.6536L63.403 47.6701L63.3888 47.6932L63.3757 47.7171L63.3615 47.7411L63.357 47.7477L63.3473 47.765L63.3335 47.7882L63.3204 47.8121L63.3062 47.836L63.3029 47.8415L63.2921 47.8592L63.279 47.8831L63.2648 47.9062L63.2517 47.9302L63.2491 47.9337L63.2379 47.9533L63.2248 47.9761L63.2107 48L63.1965 48.0231L63.1957 48.0259L63.1834 48.0463L63.1692 48.0694L63.1561 48.0922L63.1431 48.1153L63.1412 48.1181L63.13 48.1385L63.1158 48.1624L63.1027 48.1844L63.0885 48.2075V48.2095L63.0755 48.2307L63.0624 48.2538L63.0493 48.2766L63.0351 48.2997C61.848 50.3256 60.8744 51.9874 60.8744 53.7203V53.7599V53.7995V53.8038V53.8399L60.8752 53.8796V53.887L60.8759 53.9192L60.8771 53.9588V53.971L60.8778 53.9984L60.8785 54.0381V54.0537L60.8797 54.0777L60.8804 54.1173L60.8812 54.1369L60.8823 54.1569L60.8838 54.1965L60.8849 54.2205L60.8856 54.2373L60.8875 54.2758L60.889 54.3037V54.3154L60.892 54.3562L60.8935 54.3864V54.3947L60.8961 54.4343L60.8987 54.4696V54.4739L60.9013 54.5135L60.9043 54.5524L60.9051 54.5532L60.9077 54.5932L60.911 54.6324V54.6355L60.9148 54.6712L60.9174 54.7109L60.9181 54.7175L60.9219 54.7505L60.9252 54.7893L60.926 54.8003L60.9293 54.8289L60.9331 54.8678L60.9349 54.8823L60.9375 54.9074L60.9417 54.9459L60.9435 54.9643L60.9461 54.9855L60.9506 55.0243L60.9532 55.0463L60.9558 55.0632L60.9611 55.1028L60.9637 55.1283L60.9656 55.1412L60.9708 55.1801L60.9753 55.2095L60.9771 55.2189L60.9824 55.2574L60.9876 55.2915L60.9883 55.2962L60.9936 55.335L60.9999 55.3719V55.3735L61.0059 55.4123L61.013 55.4512V55.4527L61.019 55.4888L61.0261 55.5277L61.0268 55.5339L61.0331 55.5653L61.0399 55.6042L61.0417 55.6144L61.047 55.6418L61.0541 55.6807L61.0567 55.6936L61.0619 55.7183L61.0697 55.756L61.0735 55.7736L61.078 55.794L61.0858 55.8317L61.0899 55.8529L61.0936 55.8705L61.1015 55.9074L61.1075 55.9321L61.1104 55.9451L61.119 55.9827L61.1261 56.0106L61.128 56.0208L61.1366 56.0577L61.1444 56.0891L61.1463 56.0945L61.156 56.1322L61.1646 56.1671V56.1691L61.1751 56.206L61.1228 56.2476L60.9155 56.4131L60.8636 56.4559L60.849 56.4668L60.8121 56.4971L60.6067 56.6658L60.5548 56.7073L60.504 56.7505L60.4532 56.7921L60.4024 56.8356L60.2515 56.9627L60.2504 56.9635L60.1996 57.0059L60.1944 57.0106L60.1496 57.0494L60.0996 57.0926L60.0488 57.1357L59.9987 57.1793L59.9487 57.2224L59.939 57.2319L59.8277 57.3284L59.6014 57.5296L59.5547 57.57L59.5521 57.5736L59.5028 57.6179L59.3071 57.796L59.2582 57.8399L59.2414 57.8568L59.21 57.8851L58.9688 58.111L58.9318 58.1459L58.9206 58.1573L58.645 58.4225L58.6346 58.4319L58.6264 58.4402L58.5871 58.4778L58.3526 58.7101L58.3246 58.7379L58.3056 58.7572C58.2126 58.8513 58.1192 58.9451 58.0281 59.04C57.9273 59.1432 57.8272 59.2483 57.7282 59.3527L57.7043 59.3786L57.6931 59.3904C57.5949 59.4955 57.4963 59.6006 57.3992 59.7066L57.3675 59.7415C57.2745 59.8427 57.1823 59.9443 57.0912 60.0467L57.0527 60.0898C56.9638 60.1895 56.8761 60.2891 56.7887 60.3904L56.764 60.4182L56.714 60.4763L56.497 60.7305L56.4604 60.7736L56.4339 60.805L56.1972 61.0918L56.1621 61.1334L56.1587 61.1377L56.1445 61.1554C56.0586 61.2613 55.9723 61.3672 55.8876 61.4743L55.87 61.4974L55.8596 61.5112C55.7744 61.6179 55.69 61.7258 55.6075 61.8337L55.5507 61.9086L55.3349 62.193L55.2707 62.2797L55.0619 62.5653L54.9884 62.6677L54.805 62.9278L54.7303 63.0337C54.6646 63.1295 54.5989 63.2244 54.5339 63.3213L54.4443 63.4551C54.3845 63.5445 54.3251 63.6336 54.2661 63.7242L54.1776 63.8603L54.0469 64.0671L53.9203 64.2668L53.768 64.5159L53.6907 64.6438L53.545 64.8902L53.436 65.0781L53.3135 65.2911L53.2317 65.4374L53.1257 65.6293L53.1036 65.6716L52.9554 65.9482L52.8799 66.0891L52.7466 66.348L52.6675 66.5037L52.5371 66.7685L52.5196 66.8035L52.4229 67.0035L52.328 67.2044L52.235 67.4053L52.2343 67.4072C52.1114 67.6752 51.9919 67.9474 51.8761 68.222L51.8754 68.2256C51.8239 68.3484 51.7738 68.4708 51.7238 68.5944L51.6894 68.6791C51.6413 68.7999 51.5938 68.9215 51.5471 69.0432L51.5315 69.0836C51.4807 69.2166 51.4306 69.3499 51.3813 69.4837L51.3798 69.4892C51.198 69.9871 51.0296 70.4939 50.8727 71.011C49.274 70.8627 47.8053 70.563 46.458 70.1318C46.0569 69.7548 45.6413 69.3935 45.2103 69.0459C43.4802 67.6512 41.4894 66.55 39.3444 65.6477C35.1044 61.0863 33.4576 54.2503 33.4576 47.4131C33.4576 42.896 35.613 38.3778 38.5538 33.2044C23.0742 34.0302 10.7519 48.0353 10.7519 65.184C10.7519 82.8647 23.8498 97.2032 40.0016 97.2032C46.9737 97.2032 53.3747 94.5296 58.4012 90.0694C52.2238 97.0706 43.5609 101.426 33.9688 101.426C15.2123 101.426 0 84.7744 0 64.2401C0 43.7069 15.2123 27.0549 33.9688 27.0549C36.5877 27.0549 39.1364 27.3794 41.5843 27.9941C45.8892 20.6171 50.7823 11.7697 53.2369 -3.44388e-06C55.9391 12.9549 61.5944 22.3711 66.169 30.1805C85.6986 35.3484 100 52.0106 100 71.7611C100 95.6375 79.1011 115 53.331 115Z" fill="#F07E2C"/>
</svg>
