<svg width="25" height="30" viewBox="0 0 25 30" fill="none" xmlns="http://www.w3.org/2000/svg">
<path d="M17.2436 8.78906C16.0065 8.78906 15 7.86908 15 6.73828V0H3.52564C1.5816 0 0 1.44568 0 3.22266V26.7773C0 28.5543 1.5816 30 3.52564 30H21.4744C23.4184 30 25 28.5543 25 26.7773V8.78906H17.2436ZM5.25641 21.0938H9.91795C10.449 21.0938 10.8795 21.4873 10.8795 21.9727C10.8795 22.458 10.449 22.8516 9.91795 22.8516H5.25641C4.72538 22.8516 4.29487 22.458 4.29487 21.9727C4.29487 21.4873 4.72538 21.0938 5.25641 21.0938ZM4.29487 17.2852C4.29487 16.7998 4.72538 16.4062 5.25641 16.4062H19.359C19.89 16.4062 20.3205 16.7998 20.3205 17.2852C20.3205 17.7705 19.89 18.1641 19.359 18.1641H5.25641C4.72538 18.1641 4.29487 17.7705 4.29487 17.2852ZM19.359 11.7188C19.89 11.7188 20.3205 12.1123 20.3205 12.5977C20.3205 13.083 19.89 13.4766 19.359 13.4766H5.25641C4.72538 13.4766 4.29487 13.083 4.29487 12.5977C4.29487 12.1123 4.72538 11.7188 5.25641 11.7188H19.359Z" fill="#F07E2C"/>
<path d="M16.7307 6.73852C16.7307 6.90006 16.8744 7.03148 17.0512 7.03148H24.379C24.2031 6.73465 23.9768 6.46201 23.7049 6.22688L17.524 0.881836C17.2841 0.674414 17.0169 0.501387 16.7307 0.364746V6.73852H16.7307Z" fill="#F07E2C"/>
</svg>
