<svg width="60" height="60" viewBox="0 0 60 60" fill="none" xmlns="http://www.w3.org/2000/svg">
<g id="folha 1" clip-path="url(#clip0_45_25)">
<g id="Group">
<g id="Group_2">
<path id="Vector" d="M54.7353 0.808424C54.6554 0.514728 54.4566 0.26762 54.1865 0.126954C53.6537 -0.154982 52.9932 0.0484035 52.7111 0.581217C52.7104 0.582574 52.7096 0.583931 52.709 0.585288C52.709 0.615441 47.1788 11.3441 30.2024 13.2136C27.9879 13.4499 25.8233 14.0276 23.7857 14.9263C20.1385 16.5119 17.1263 19.2716 15.2281 22.7662C13.456 26.0489 12.7221 29.7922 13.1234 33.5009C13.4191 36.2045 14.322 38.8063 15.7649 41.1117C12.7495 43.2767 3.1848 50.7608 2.32241 58.7937C2.25909 59.3932 2.6939 59.9305 3.29335 59.9938C3.89296 60.0572 4.43014 59.6223 4.49347 59.0229C5.28349 51.8524 14.2572 44.899 17.0554 42.8847C20.4145 47.0097 25.4442 49.3376 30.8416 49.7175C34.4744 49.9519 38.1115 49.3324 41.4617 47.9083C45.0985 46.3824 48.3105 43.9962 50.8214 40.9549C57.2923 33.1149 60.374 19.9378 54.7353 0.808424ZM17.6826 40.0322C17.2665 39.3768 16.8997 38.6914 16.585 37.9817C15.9229 36.4842 15.4957 34.8936 15.3186 33.2657C14.9492 29.9993 15.58 26.6977 17.1278 23.7975C18.8007 20.7227 21.4544 18.2963 24.6662 16.9044C26.5024 16.1049 28.4512 15.5944 30.4436 15.3907C41.6487 14.1845 48.2402 9.19714 51.6416 5.57872C49.6431 12.1581 46.2025 18.209 41.5703 23.2909L40.9069 16.6089C40.8731 16.007 40.3578 15.5464 39.7559 15.5802C39.1541 15.614 38.6935 16.1293 38.7273 16.7312C38.7289 16.7609 38.7318 16.7906 38.7358 16.82L39.5862 25.4077C34.5143 30.5519 27.4644 35.7202 17.6826 40.0322ZM49.1328 39.5557V39.5618C46.8514 42.3394 43.929 44.5208 40.6174 45.9182C37.5721 47.2051 34.2668 47.7587 30.9683 47.5344C26.3764 47.3017 22.0673 45.2459 18.9973 41.8233C22.5949 40.2313 26.0735 38.3832 29.4063 36.2931L38.9891 38.1023C39.5847 38.1957 40.1431 37.7884 40.2364 37.1929C40.3264 36.6185 39.9503 36.0742 39.3811 35.9554L32.0176 34.5623C35.4176 32.2272 38.5825 29.5672 41.4678 26.6199C41.5207 26.5743 41.5691 26.5238 41.6125 26.4691C49.2233 18.5447 52.4617 10.7048 53.8126 5.88025C57.5396 21.7772 54.6871 32.8375 49.1328 39.5557Z" fill="white"/>
</g>
</g>
</g>
<defs>
<clipPath id="clip0_45_25">
<rect width="60" height="60" fill="white"/>
</clipPath>
</defs>
</svg>
