<svg width="71" height="100" viewBox="0 0 71 100" fill="none" xmlns="http://www.w3.org/2000/svg">
<path d="M23.9257 21.875C27.4257 21.875 30.2734 19.0275 30.2734 15.5273C30.2734 12.0271 27.4257 9.17969 23.9257 9.17969C20.4257 9.17969 17.5781 12.0271 17.5781 15.5273C17.5781 19.0275 20.4255 21.875 23.9257 21.875ZM23.9257 13.0859C25.272 13.0859 26.3671 14.1811 26.3671 15.5273C26.3671 16.8736 25.272 17.9688 23.9257 17.9688C22.5794 17.9688 21.4843 16.8736 21.4843 15.5273C21.4843 14.1811 22.5794 13.0859 23.9257 13.0859Z" fill="#F07E2C"/>
<path d="M43.9454 17.5781C48.7917 17.5781 52.7344 13.6354 52.7344 8.78906C52.7344 3.94277 48.7917 0 43.9454 0C39.0991 0 35.1563 3.94277 35.1563 8.78906C35.1563 13.6354 39.0991 17.5781 43.9454 17.5781ZM43.9454 3.90625C46.6378 3.90625 48.8282 6.09668 48.8282 8.78906C48.8282 11.4814 46.6378 13.6719 43.9454 13.6719C41.253 13.6719 39.0626 11.4814 39.0626 8.78906C39.0626 6.09668 41.253 3.90625 43.9454 3.90625Z" fill="#F07E2C"/>
<path d="M51.9945 72.5601C51.4533 71.6302 50.2617 71.3134 49.3301 71.8515C45.6178 73.9946 41.001 72.8243 36.1131 71.5855C30.6985 70.2126 24.5614 68.657 19.0288 71.8515C18.7341 72.0216 18.4888 72.2659 18.3175 72.5601L10.0381 86.7794C9.35466 87.9633 9.33005 89.334 9.97204 90.4459C10.6017 91.5366 11.7742 92.1877 13.1084 92.1877H26.3679C27.4466 92.1877 28.321 91.3131 28.321 90.2346C28.321 89.1561 27.4466 88.2815 26.3679 88.2815L13.6841 88.2809L21.4193 74.9964C25.4796 72.9196 30.1837 74.112 35.1534 75.3718C39.9629 76.5907 44.9172 77.847 49.5217 76.0761L56.6285 88.2813H43.9459C42.8672 88.2813 41.9928 89.1559 41.9928 90.2344C41.9928 91.3129 42.8672 92.1875 43.9459 92.1875H57.2039C58.5381 92.1875 59.7103 91.5364 60.34 90.4459C60.982 89.3338 60.9574 87.9631 60.2703 86.7727L51.9945 72.5601Z" fill="#F07E2C"/>
<path d="M69.0745 86.3117L44.9217 44.8314V37.164C47.1949 36.3578 48.8279 34.1869 48.8279 31.6406C48.8279 28.4098 46.1994 25.7812 42.9686 25.7812H27.3436C24.1128 25.7812 21.4843 28.4098 21.4843 31.6406C21.4843 34.1867 23.1173 36.3578 25.3905 37.164V44.8868L1.64355 85.6703C0.567965 87.2039 0 89.0025 0 90.8788C0 95.9083 4.11912 99.9999 9.18239 99.9999H61.1441H61.1523C62.7374 99.9999 64.3216 99.5714 65.7333 98.7605C67.8599 97.5392 69.3773 95.5673 70.0058 93.2083C70.6315 90.8605 70.3003 88.4103 69.0745 86.3117ZM27.3436 29.6875H42.9686C44.0455 29.6875 44.9217 30.5637 44.9217 31.6406C44.9217 32.7176 44.0455 33.5937 42.9686 33.5937H27.3436C26.2667 33.5937 25.3905 32.7176 25.3905 31.6406C25.3905 30.5637 26.2667 29.6875 27.3436 29.6875ZM66.2314 92.2025C65.8728 93.5482 65.005 94.6741 63.7878 95.373C62.9669 95.8445 62.0558 96.0935 61.1505 96.0935C61.149 96.0935 61.1474 96.0935 61.146 96.0935H9.18239C6.27302 96.0935 3.90623 93.754 3.90623 90.8786C3.90623 89.7914 4.241 88.7498 4.87459 87.8667C4.91053 87.8164 4.94412 87.7646 4.97537 87.7111L29.0315 46.3966C29.2054 46.0982 29.2968 45.7589 29.2968 45.4138V37.4998H41.0155V45.3583C41.0155 45.7036 41.1071 46.0427 41.2807 46.3411L65.7001 88.2794C66.3984 89.4748 66.587 90.8679 66.2314 92.2025Z" fill="#F07E2C"/>
<path d="M35.1577 88.2812H35.1563C34.0776 88.2812 33.204 89.1559 33.204 90.2344C33.204 91.3129 34.079 92.1875 35.1577 92.1875C36.2364 92.1875 37.1108 91.3129 37.1108 90.2344C37.1108 89.1559 36.2364 88.2812 35.1577 88.2812Z" fill="#F07E2C"/>
</svg>
