<svg width="100" height="100" viewBox="0 0 100 100" fill="none" xmlns="http://www.w3.org/2000/svg">
<path d="M97.5118 5.36703C96.649 4.88266 95.6557 4.62661 94.6396 4.62661C93.1379 4.62661 91.6945 5.18969 90.6795 6.1719L88.2145 8.55898C88.2164 8.46191 88.2202 8.36485 88.2202 8.26758V4.87856C88.2202 2.22117 85.7825 0.059082 82.7858 0.059082C81.3165 0.059082 79.9826 0.579779 79.0034 1.42293C78.0243 0.579779 76.6902 0.059082 75.2208 0.059082C72.2244 0.059082 69.7865 2.22097 69.7865 4.87856V8.26797C69.7865 8.36543 69.7902 8.4627 69.7922 8.56015L67.3278 6.17346C66.315 5.19066 64.8712 4.627 63.3662 4.627C62.3485 4.627 61.3553 4.88344 60.4946 5.36839C58.1056 6.7133 57.3051 9.4869 58.6722 11.6834L60.4948 14.6101C61.8906 16.8554 64.1119 18.6678 66.7484 19.7137L73.5204 22.4022C67.6877 24.3695 63.5307 29.3767 63.5307 35.2313V54.6868C63.5307 64.1535 65.0985 73.5016 68.1933 82.5317C68.1953 82.5378 68.1975 82.5437 68.1995 82.5495C68.6261 83.7929 69.08 85.0307 69.5643 86.2614L73.6407 96.6212C74.448 98.6732 76.5532 99.9989 79.0037 99.9989C81.4539 99.9989 83.5591 98.6732 84.3664 96.6212L88.4428 86.2614C92.4122 76.1662 94.4698 65.4866 94.4764 54.6868V48.0581C94.4764 47.249 93.7371 46.5933 92.8247 46.5933C91.9123 46.5933 91.173 47.249 91.173 48.0581V54.6866C91.173 57.216 91.0552 59.7365 90.8253 62.2445H84.4382C83.5258 62.2445 82.7865 62.9001 82.7865 63.7093C82.7865 64.5185 83.5258 65.1741 84.4382 65.1741H90.5009C89.6261 72.0168 87.8989 78.7523 85.324 85.296L81.2476 95.6558C80.8375 96.6978 79.8196 97.0689 79.0039 97.0689C78.1879 97.0689 77.17 96.6978 76.76 95.6558L72.6831 85.296C72.4572 84.722 72.2394 84.146 72.0264 83.569H75.221C76.1334 83.569 76.8727 82.9134 76.8727 82.1042C76.8727 81.295 76.1334 80.6394 75.221 80.6394H71.0094C68.2405 72.2084 66.8339 63.5009 66.8339 54.6864V46.5242H76.2904C77.2029 46.5242 77.9422 45.8685 77.9422 45.0593C77.9422 44.2502 77.2029 43.5945 76.2904 43.5945H66.8339V39.02H70.7363C71.6487 39.02 72.388 38.3643 72.388 37.5551C72.388 36.746 71.6487 36.0903 70.7363 36.0903H66.8339V35.2309C66.8339 29.2806 72.2918 24.4399 79.001 24.4385H79.0015H79.0034H79.0037H79.0041H79.0043H79.0067C85.7155 24.44 91.1728 29.2808 91.1728 35.2307V41.1785C91.1728 41.9877 91.9121 42.6433 92.8245 42.6433C93.7369 42.6433 94.4762 41.9877 94.4762 41.1785V35.2307C94.4762 29.3765 90.3194 24.3693 84.4871 22.402L91.2593 19.7135C93.8963 18.6677 96.1175 16.855 97.5131 14.6099L99.3335 11.6828C100.701 9.48749 99.9015 6.71389 97.5118 5.36703ZM82.7858 2.98874C83.9608 2.98874 84.9168 3.83658 84.9168 4.87856V8.26797C84.9168 9.85975 84.5726 11.4257 83.9103 12.8882C83.907 12.8962 83.9033 12.904 83.9 12.9121C83.595 13.5814 83.2234 14.229 82.7874 14.8472L80.6551 17.8702V4.87856C80.6551 3.83658 81.6109 2.98874 82.7858 2.98874ZM73.0901 4.87856C73.0901 3.83658 74.0461 2.98874 75.221 2.98874C76.3959 2.98874 77.3519 3.83658 77.3519 4.87856V17.8702L75.2195 14.847C73.8265 12.8722 73.0901 10.5972 73.0901 8.26778V4.87856ZM63.3871 13.1945L61.5643 10.267C61.0392 9.42382 61.3471 8.3584 62.2657 7.84122C62.5965 7.65489 62.977 7.55646 63.3664 7.55646C63.946 7.55646 64.501 7.77247 64.8906 8.15078L71.1336 14.197C71.4934 14.9575 71.9211 15.695 72.4191 16.4009L74.7253 19.6706L68.098 17.0395C66.1117 16.2515 64.4389 14.8864 63.3871 13.1945ZM96.4415 10.2674L94.6207 13.1953C93.5693 14.8863 91.8964 16.2513 89.91 17.0394L83.2811 19.671L85.5878 16.4005C86.0862 15.6943 86.5141 14.956 86.8741 14.1949L93.1152 8.15098C93.5056 7.77286 94.0613 7.55626 94.6396 7.55626C95.0294 7.55626 95.4115 7.65528 95.7425 7.84102C96.6597 8.35801 96.967 9.42362 96.4415 10.2674Z" fill="#F07E2C"/>
<path d="M28.4788 43.5278C42.0105 43.5278 53.0192 33.7646 53.0192 21.7638C53.0192 9.76297 42.0105 0 28.4788 0C14.9469 0 3.93817 9.76317 3.93817 21.764C3.93817 33.7648 14.9469 43.5278 28.4788 43.5278ZM28.4788 2.92965C40.189 2.92965 49.7158 11.3788 49.7158 21.764C49.7158 32.1492 40.189 40.5984 28.4788 40.5984C16.7686 40.5984 7.24159 32.1492 7.24159 21.764C7.24159 11.3788 16.7684 2.92965 28.4788 2.92965Z" fill="#F07E2C"/>
<path d="M21.5599 26.8241C22.5201 27.6754 23.7814 28.1012 25.0426 28.1012C26.3038 28.1012 27.5653 27.6754 28.5253 26.8241L39.9146 16.7232C40.5596 16.151 40.5596 15.2236 39.9146 14.6516C39.2695 14.0797 38.2237 14.0797 37.5788 14.6516L26.1895 24.7524C25.557 25.3135 24.5281 25.313 23.8957 24.7526L20.5451 21.781C19.9001 21.2087 18.8542 21.2089 18.2094 21.7808C17.5643 22.353 17.5643 23.2804 18.2094 23.8524L21.5599 26.8241Z" fill="#F07E2C"/>
<path d="M53.4502 59.1092C52.9292 58.7045 52.3951 58.3194 51.8635 57.9649C51.1341 57.4787 50.0988 57.6086 49.5506 58.2551C49.0023 58.9018 49.1489 59.8201 49.8781 60.3062C50.3446 60.6174 50.8141 60.9562 51.2739 61.3131C56.3156 65.2292 56.6607 70.8786 56.0626 74.9281C54.6769 84.3079 47.1797 94.1473 41.4027 96.6777C39.8115 97.3738 33.7916 97.0271 30.0246 96.5584C29.8722 96.5392 29.7174 96.5392 29.565 96.5584C25.7982 97.0271 19.7781 97.3746 18.1873 96.6779C12.4099 94.1473 4.91291 84.3079 3.52723 74.9281C2.9291 70.8786 3.27419 65.2292 8.31586 61.3131C19.0584 52.9692 28.3273 59.8162 28.7125 60.1086C28.7136 60.1096 28.7151 60.1102 28.7162 60.1109C28.971 60.3059 29.291 60.4311 29.6359 60.4605C30.4294 60.6721 32.3213 61.1002 34.6531 61.1002C36.716 61.1002 39.1189 60.7642 41.3982 59.6447C44.9754 57.8877 47.3655 54.6635 48.5021 50.0616C48.7539 49.0431 48.4764 47.9906 47.7408 47.1744C47.0044 46.3566 45.9061 45.8838 44.7279 45.8763C42.0292 45.8631 38.0968 46.2082 34.7097 47.9652C32.4264 49.1495 30.7141 50.8228 29.6101 52.9155C28.877 51.1915 27.8939 49.3818 26.6095 47.9349C26.0453 47.2994 25.0067 47.1896 24.2901 47.6898C23.5732 48.1902 23.4497 49.1111 24.0139 49.7468C25.5386 51.4646 26.5893 53.9118 27.2526 55.8924C26.1662 55.4333 24.8686 54.9901 23.3935 54.6821C19.2383 53.8151 12.8722 53.8792 6.13891 59.1094C1.27937 62.884 -0.756636 68.4856 0.251346 75.3086C1.81342 85.8817 10.1863 96.4408 16.7246 99.3048C17.924 99.8298 19.9615 100 22.0988 100C25.2128 100 28.5389 99.6388 29.7945 99.4876C31.9119 99.7427 39.9172 100.595 42.8647 99.3046C49.4026 96.4408 57.7757 85.8817 59.3376 75.3088C60.3458 68.4856 58.31 62.8839 53.4502 59.1092ZM36.3779 50.4937C39.1174 49.0728 42.4177 48.7904 44.705 48.8056C44.9479 48.8072 45.0943 48.9298 45.1602 49.0027C45.2251 49.0749 45.3267 49.2269 45.2754 49.4347C44.3533 53.1679 42.5177 55.7372 39.8197 57.0711C36.7893 58.5697 33.2954 58.2035 31.5195 57.8633C31.8822 54.4557 33.513 51.98 36.3779 50.4937Z" fill="#F07E2C"/>
</svg>
