<svg width="26" height="30" viewBox="0 0 26 30" fill="none" xmlns="http://www.w3.org/2000/svg">
<path d="M21.1152 10.377V4.57617C21.1152 2.05078 19.0645 0 16.5391 0H9.44922C6.92383 0 4.87891 2.05078 4.87891 4.57617V10.3828C2.43555 10.6406 0.583984 12.7031 0.583984 15.1582V25.2012C0.583984 27.8496 2.73437 30 5.38281 30H20.6055C23.2539 30 25.4043 27.8496 25.4043 25.2012V15.1523C25.4102 12.6973 23.5586 10.6406 21.1152 10.377ZM10.2695 4.70508H15.7305C16.1055 4.70508 16.4102 5.00977 16.4102 5.38477V10.3535H9.58984V5.38477C9.58984 5.00977 9.89453 4.70508 10.2695 4.70508ZM14.5293 20.4082V23.3555C14.5293 24.1992 13.8437 24.8848 13 24.8848C12.1562 24.8848 11.4707 24.1992 11.4707 23.3555V20.4082C10.2402 19.5645 9.92383 17.877 10.7676 16.6465C11.6113 15.416 13.2988 15.0996 14.5293 15.9434C15.7598 16.7871 16.0762 18.4746 15.2324 19.7051C15.0449 19.9805 14.8047 20.2207 14.5293 20.4082Z" fill="#F07E2C"/>
</svg>
