<svg width="280" height="75" viewBox="0 0 280 75" fill="none" xmlns="http://www.w3.org/2000/svg">
<path fill-rule="evenodd" clip-rule="evenodd" d="M236.798 43.7466L237.642 45.1765C240.877 47.9469 242.357 50.0792 243.727 52.0544C244.811 53.6167 245.841 55.1001 247.315 56.6437L246.645 55.3808C245.545 54.2297 244.748 53.0799 243.908 51.8697C242.234 49.4583 240.427 46.8542 236.798 43.7466ZM249.422 58.6928C251.356 45.6808 242.631 43.199 234.504 41.4649C238.603 47.4723 234.814 59.2821 249.422 58.6928ZM264.787 35.7705L264.968 34.0448C259.521 39.5298 257.217 43.9679 255.082 48.0792C253.784 50.5781 252.551 52.953 250.668 55.3675L250.572 56.9942C252.559 54.4462 253.845 51.9703 255.198 49.3644C257.259 45.3961 259.483 41.112 264.787 35.7705ZM241.652 25.6187L241.657 25.6031L241.659 25.5975L241.66 25.5929C241.691 25.5003 241.722 25.4072 241.754 25.314L241.757 25.3048C241.79 25.2099 241.824 25.1145 241.858 25.0183L241.859 25.017L241.864 25.0014C241.896 24.9141 241.929 24.8271 241.962 24.7394L241.977 24.7002C242.01 24.6155 242.042 24.5306 242.077 24.4459L242.085 24.4254L242.095 24.4004L242.205 24.1309L242.208 24.1212C242.29 23.9247 242.375 23.727 242.464 23.5282L242.464 23.5269C242.509 23.4271 242.554 23.3268 242.6 23.227L242.601 23.2234C242.642 23.1349 242.683 23.0459 242.725 22.9571L242.769 22.865L242.855 22.6818L242.888 22.6145L242.899 22.5915L243.038 22.3059H243.039L243.165 22.0537L243.193 21.9958L243.204 21.9749L243.342 21.7049L243.352 21.6832L243.358 21.6724C243.833 20.7485 244.36 19.7952 244.918 18.8035L244.941 18.7621L245.004 18.6503L245.091 18.4963L245.132 18.4241L245.179 18.3417L245.266 18.1862L245.325 18.0828L245.355 18.0298L245.443 17.8735L245.52 17.7376L245.533 17.7167L245.622 17.5585L245.712 17.3999L245.717 17.3902L245.802 17.2405L245.893 17.0806L245.916 17.0392L245.984 16.9197L246.075 16.7585L246.116 16.6845L246.166 16.5963L246.258 16.4333L246.318 16.3269L246.35 16.2698L246.443 16.1058L246.521 15.9651L246.535 15.9405L246.721 15.6079L246.726 15.5995L246.814 15.4403L246.908 15.2725L246.93 15.231L246.938 15.2167L247.095 14.9335L247.136 14.8577L247.188 14.7628L247.282 14.5917L247.342 14.4816L247.376 14.4197L247.54 14.1168L247.548 14.1004L247.564 14.0728L247.745 13.7351L247.752 13.7223L247.755 13.7159L247.77 13.6887C247.889 13.4651 248.009 13.2389 248.128 13.0112L248.169 12.9337L248.191 12.8918L248.369 12.5466L248.379 12.5287L248.581 12.1342L248.597 12.1024L248.783 11.7322L248.785 11.7279L248.969 11.3582L248.99 11.3167L249.001 11.2945C249.064 11.1652 249.128 11.0355 249.191 10.905L249.195 10.8961L249.371 10.5305L249.417 10.4343L249.583 10.0827L249.595 10.0551L249.613 10.019L249.78 9.65775L249.793 9.62705L249.795 9.62475L249.809 9.59277C249.932 9.32463 250.053 9.05368 250.174 8.7794L250.203 8.71211L250.374 8.3204L250.387 8.28842C250.446 8.15025 250.505 8.01184 250.564 7.87189L250.576 7.84246C250.639 7.69457 250.7 7.54618 250.762 7.3965C250.529 6.54707 250.318 5.66821 250.134 4.75583C250.094 4.95181 250.054 5.14703 250.012 5.33995L250.007 5.36221C249.968 5.54156 249.928 5.71989 249.886 5.89719L249.87 5.96883C249.83 6.13898 249.789 6.30785 249.748 6.4762L249.734 6.52788C249.691 6.70212 249.647 6.87533 249.602 7.04726L249.592 7.08205C249.545 7.26064 249.497 7.43795 249.448 7.61398L249.444 7.62601L249.438 7.64954C249.39 7.81969 249.341 7.98907 249.292 8.15691L249.279 8.19937C249.232 8.35877 249.184 8.51741 249.135 8.67425L249.112 8.75254C249.062 8.91245 249.011 9.07159 248.96 9.22971L248.951 9.25554C248.897 9.42517 248.841 9.59354 248.784 9.7606L248.78 9.77084C248.664 10.1152 248.543 10.4542 248.42 10.7884L248.42 10.7896C248.36 10.9514 248.3 11.1123 248.239 11.2717L248.226 11.3037C248.167 11.4587 248.108 11.612 248.047 11.7652L248.036 11.7916C247.974 11.9497 247.911 12.1055 247.847 12.2611L247.846 12.2641L247.84 12.2774C247.647 12.748 247.449 13.2077 247.248 13.658L247.235 13.6862C246.758 14.7508 246.26 15.7601 245.759 16.7224L245.755 16.7296L245.539 17.1407L245.538 17.1433L245.337 17.5202L245.308 17.5742C245.175 17.8218 245.042 18.0664 244.909 18.3082L244.889 18.3443L244.877 18.3665L244.876 18.3688C244.24 19.5261 243.613 20.6145 243.03 21.652L241.652 25.6187ZM243.03 21.652L243.011 21.6852L242.946 21.8006L242.82 22.026L242.816 22.0342L242.781 22.0956L242.7 22.2422L242.623 22.3806L242.618 22.3883L242.459 22.6782L242.435 22.7227L242.423 22.7447L242.262 23.0413L242.251 23.0617L242.226 23.1078L242.075 23.3892L242.074 23.3923L242.071 23.3964L242.061 23.4156C242.012 23.5087 241.963 23.6013 241.915 23.6939L241.874 23.7727L241.747 24.0179L241.727 24.0578L241.71 24.0913C241.663 24.1839 241.617 24.2758 241.571 24.3671L241.563 24.384C241.513 24.4838 241.465 24.5836 241.416 24.6828L241.393 24.7309C241.347 24.8271 241.301 24.9233 241.256 25.0183L241.252 25.0277L241.242 25.049C241.2 25.1395 241.158 25.2291 241.118 25.3186L241.105 25.3465L241.094 25.3734C241.054 25.4619 241.015 25.5502 240.976 25.6379L240.957 25.683C240.918 25.7743 240.88 25.8651 240.842 25.9552L240.833 25.9757L240.829 25.9854C240.79 26.0808 240.752 26.1752 240.715 26.2696L240.698 26.3136C240.663 26.4024 240.629 26.4915 240.596 26.5797L240.585 26.6094C240.549 26.7071 240.514 26.8051 240.48 26.9031L240.479 26.9057C240.445 27.0037 240.413 27.1022 240.381 27.2002L240.373 27.2242C240.344 27.3151 240.316 27.4051 240.29 27.4954L240.279 27.5302C240.251 27.6257 240.225 27.7219 240.199 27.8168L240.196 27.8278C240.172 27.9191 240.149 28.0092 240.127 28.1005L240.116 28.1458C240.096 28.2328 240.076 28.3193 240.058 28.406L240.052 28.4367C240.032 28.5309 240.014 28.6253 239.998 28.7197L239.995 28.7348C239.979 28.8238 239.965 28.9134 239.952 29.0017L239.946 29.0462C239.934 29.138 239.921 29.2294 239.911 29.3215L239.911 29.3256C239.9 29.4218 239.892 29.518 239.885 29.6142L239.883 29.6346C239.877 29.726 239.872 29.8178 239.868 29.9099L239.867 29.9317C239.864 30.0284 239.861 30.1246 239.861 30.22C239.861 32.7911 240.281 35.3612 241.288 37.5127C241.123 38.0031 241.026 38.4967 241.026 39.0196C241.026 40.1623 241.278 41.3037 241.92 42.0989C242.446 42.7518 243.236 43.1732 244.366 43.1732C245.498 43.1732 246.292 42.7492 246.821 42.093C247.655 41.0591 247.982 39.6038 247.982 38.1577C247.982 37.1742 247.433 36.204 246.763 35.0217C246.004 33.6835 245.09 32.0714 244.649 29.881L244.588 29.5835L244.374 30.6468C244.031 32.3503 243.194 33.8255 242.5 35.0498C242.298 35.407 242.105 35.7478 241.929 36.0796C241.287 33.9691 241.008 31.6518 241.008 29.3353C241.008 29.2432 241.01 29.1513 241.012 29.0595L241.013 29.0418C241.015 28.95 241.019 28.8586 241.025 28.7665V28.766L241.025 28.7558C241.03 28.6693 241.037 28.5833 241.044 28.4969L241.047 28.4626C241.055 28.3797 241.063 28.296 241.072 28.2131L241.074 28.1957L241.076 28.1763C241.086 28.0885 241.097 28.0008 241.109 27.913L241.111 27.9045C241.122 27.8186 241.136 27.7321 241.15 27.6456L241.156 27.6108C241.171 27.5218 241.187 27.4328 241.204 27.3437L241.207 27.3271C241.223 27.2403 241.241 27.1544 241.259 27.0674L241.266 27.038C241.285 26.9507 241.304 26.8642 241.325 26.777L241.328 26.7627L241.332 26.7463C241.354 26.6567 241.376 26.5672 241.4 26.4776L241.401 26.4705C241.426 26.3766 241.452 26.2835 241.478 26.189L243.03 21.652ZM255.647 37.0887C252.038 39.8977 249.392 43.69 248.774 49.2436C249.933 51.6571 250.426 54.7117 249.96 58.6389C269.833 56.5723 263.489 40.1997 268.576 30.7389C266.469 31.4975 264.334 32.2986 262.285 33.2243C262.421 33.6127 262.501 33.9921 262.501 34.3754C262.501 35.6649 262.175 37.0058 261.344 38.0367L261.343 38.0361C260.747 38.7756 259.892 39.2527 258.712 39.2527C257.568 39.2527 256.768 38.8255 256.234 38.1641C255.981 37.8504 255.789 37.4861 255.647 37.0887ZM258.825 27.5164C258.308 29.2102 257.554 30.5393 256.907 31.6807C256.319 32.7195 255.836 33.5707 255.836 34.3754V34.4122V34.4271V34.4493L255.837 34.4787V34.4862L255.837 34.5233V34.5307L255.839 34.5606L255.839 34.5824L255.84 34.5972L255.841 34.634L255.842 34.6711L255.842 34.6857L255.843 34.708L255.845 34.7374V34.7451L255.847 34.7819L255.848 34.7891L255.85 34.819L255.851 34.8408L255.852 34.8559L255.855 34.8925L255.857 34.929L255.859 34.9436L255.861 34.9656L255.863 34.9945L255.863 35.0025L255.867 35.0391L255.868 35.0462L255.871 35.0756L255.873 35.0974L255.875 35.1125L255.878 35.1486V35.1491L255.883 35.1852L255.884 35.199L255.887 35.2217L255.891 35.2501L255.892 35.2578L255.897 35.2939L255.897 35.3005L255.902 35.3307L255.904 35.3509L255.907 35.3666L255.912 35.4016V35.4026L255.918 35.4382L255.92 35.452L255.924 35.4743L255.929 35.5019L255.93 35.5098L255.936 35.5459L255.938 35.5518L255.943 35.5812L255.947 35.6017L255.95 35.6168L255.956 35.6511L255.957 35.6523L255.964 35.6877L255.967 35.7002L255.971 35.7224L255.977 35.7496L255.979 35.758L255.987 35.7928L255.989 35.7989L255.995 35.8279L256 35.8476L256.004 35.8627L256.012 35.8962V35.8975L256.021 35.9317L256.025 35.9443L256.03 35.9665L256.037 35.9924L256.039 36.0008L256.049 36.0351L256.05 36.0405L256.059 36.0694L256.064 36.0881L256.069 36.1032L256.079 36.1354L256.079 36.1367L256.09 36.1704L256.093 36.1825L256.1 36.204L256.109 36.2293L256.111 36.2377L256.122 36.2707L256.124 36.2756L256.134 36.3038L256.14 36.3219L256.146 36.3368L256.157 36.3682V36.3692L256.17 36.4025L256.174 36.4138L256.182 36.4347L256.192 36.4588L256.195 36.4672L256.208 36.4992L256.21 36.5041L256.221 36.5309L256.228 36.5491L256.234 36.5629L256.247 36.5929L256.248 36.5947L256.262 36.6266C256.382 36.8935 256.529 37.1412 256.708 37.363C257.226 38.0044 258.003 38.4192 259.115 38.4192C260.192 38.4192 260.915 38.0548 261.37 37.4909V37.4904C261.816 36.9367 261.991 36.0111 261.991 35.035C261.991 34.5517 261.844 34.0604 261.61 33.5351L261.599 33.5129L261.596 33.5044L261.589 33.4901L261.579 33.4673L261.574 33.4576L261.568 33.4451L261.558 33.4215L261.552 33.4095L261.547 33.3988L261.536 33.3757L261.53 33.3619L261.525 33.353L261.515 33.3302L261.506 33.3138L261.503 33.3074L261.492 33.2839L261.483 33.2657L261.481 33.2611L261.469 33.2376L261.459 33.2171L261.458 33.2148L261.446 33.1913L261.435 33.1685V33.1677L261.423 33.1445L261.411 33.1209L261.411 33.1199L261.4 33.0976L261.387 33.0741L261.385 33.0705L261.375 33.0506L261.363 33.0273L261.36 33.0211L261.351 33.0032L261.338 32.9797L261.334 32.972L261.326 32.9556L261.313 32.9324L261.308 32.9221L261.3 32.9083L261.288 32.8843L261.282 32.8722L261.275 32.8607L261.263 32.8361L261.255 32.8223L261.25 32.8121L261.237 32.788L261.227 32.7717L261.224 32.764L261.21 32.7399L261.2 32.7208L261.197 32.7151L261.184 32.6911L261.173 32.6701L261.17 32.6665L261.157 32.642L261.144 32.6184L261.144 32.6174L261.13 32.5926L261.116 32.568V32.5675L261.103 32.5432L261.089 32.5186L261.088 32.5156L261.075 32.4941L261.061 32.4687L261.059 32.4639L261.048 32.4442L261.033 32.4188L261.029 32.4112L261.02 32.3938L261.005 32.3685L261 32.3587L260.991 32.3431L260.977 32.3178L260.97 32.306L260.963 32.2927L260.949 32.2674L260.94 32.2531L260.934 32.2415L260.92 32.2165L260.91 32.1996L260.905 32.1904L260.89 32.1653L260.88 32.1461L260.876 32.1395L260.862 32.1136L260.849 32.0919L260.847 32.0878L260.832 32.0612L260.819 32.0379L260.817 32.0353L260.803 32.0095L260.788 31.9831C260.109 30.7862 259.308 29.3714 258.825 27.5164ZM244.504 30.3265C243.671 34.4578 241.171 36.5225 241.171 38.5885C241.171 40.654 242.004 42.7193 244.504 42.7193C247.004 42.7193 247.837 40.654 247.837 38.5885C247.837 36.5225 245.337 34.4578 244.504 30.3265ZM242.017 36.359C241.73 36.8743 241.497 37.3292 241.386 37.7181C242.255 39.4843 243.533 40.9516 245.318 41.8783C243.776 40.411 242.705 38.4977 242.017 36.359ZM258.555 28.5508C258.509 28.7824 258.455 29.0047 258.396 29.2199C259.411 31.6999 260.867 33.2381 260.867 34.7771C260.867 35.9893 260.565 37.2023 259.775 37.9538C260.789 37.4277 261.157 36.2142 261.157 35.0012C261.157 33.3885 259.206 31.7756 258.555 28.5508ZM250.569 75C239.924 75 230.6 69.5818 225.431 61.4671C230.453 67.7585 238.367 71.8184 247.269 71.8184C262.441 71.8184 274.746 60.0292 274.746 45.4915C274.746 35.3799 268.791 26.5992 260.061 22.1887C261.765 25.3422 262.984 28.1317 262.984 30.9216C262.984 31.3706 262.972 31.8196 262.95 32.2674L262.936 32.2735L262.923 32.2799L262.909 32.2861H262.908L262.895 32.2919L262.881 32.2986L262.867 32.3047L262.852 32.3106L262.839 32.3173L262.825 32.3234L262.81 32.3298L262.797 32.336L262.783 32.3426L262.769 32.3485L262.755 32.3551L262.741 32.3613L262.727 32.3672L262.713 32.3738L262.699 32.3797L262.685 32.3864L262.671 32.393L262.657 32.3992L262.651 32.402L262.643 32.405L262.629 32.4117L262.615 32.4176L262.601 32.4242L262.587 32.4304L262.573 32.437L262.559 32.4429L262.545 32.4496L262.532 32.4554L262.517 32.4621L262.504 32.4687L262.489 32.4749L262.476 32.4815L262.462 32.4874L262.448 32.4941L262.434 32.5007L262.393 32.5186L262.392 32.5199L262.378 32.5258L262.351 32.5386L262.337 32.5452L262.322 32.5516L262.309 32.5578L262.295 32.5644L262.281 32.5711L262.267 32.577L262.253 32.5836L262.239 32.5903L262.225 32.5969L262.212 32.6028L262.198 32.6095L262.184 32.6161L262.17 32.622L262.156 32.6287L262.128 32.642L262.114 32.6478L262.1 32.6545L262.087 32.6611L262.073 32.6678L262.059 32.6737L262.052 32.6599L262.049 32.6522L262.039 32.6304L262.03 32.6107L262.029 32.609L262.018 32.5867L262.008 32.5649L262.006 32.5608L261.997 32.5427L261.987 32.5212L261.982 32.511L261.976 32.4989L261.966 32.4767L261.958 32.4611L261.954 32.4549L261.943 32.4327L261.933 32.4112V32.4104L261.921 32.3881L261.91 32.3659L261.908 32.3613L261.899 32.3439L261.888 32.3216L261.882 32.3106L261.876 32.2994L261.865 32.2771L261.856 32.2602L261.854 32.2541L261.842 32.2321L261.831 32.2098L261.83 32.209L261.818 32.1868L261.807 32.1645L261.803 32.1581L261.795 32.1418L261.783 32.119L261.776 32.107L261.771 32.0962L261.758 32.074L261.749 32.0553L261.746 32.0509L261.734 32.0282L261.722 32.0054L261.721 32.0036L261.709 31.9819L261.697 31.9591L261.693 31.9519L261.685 31.9363L261.672 31.9128L261.665 31.8995L261.66 31.89L261.647 31.867L261.636 31.8473L261.634 31.8437L261.621 31.8202L261.609 31.7974L261.607 31.7943L261.595 31.7738L261.583 31.7506L261.578 31.7413L261.57 31.727L261.557 31.7035L261.548 31.6886L261.543 31.6802L261.53 31.6561L261.519 31.6352L261.517 31.6326L261.503 31.6086L261.491 31.5853L261.489 31.5817L261.477 31.5612L261.464 31.5377L261.458 31.5275L261.45 31.5136L261.437 31.4896L261.428 31.4735L261.423 31.4655L261.409 31.4415L261.397 31.4187L261.396 31.4174L261.382 31.3929L261.369 31.3688L261.366 31.364L261.355 31.3448L261.341 31.3202L261.335 31.3087L261.303 31.2534L261.299 31.2468L261.286 31.2222L261.272 31.1974C260.516 29.8641 259.606 28.2586 259.166 26.0762L258.979 25.1505L258.667 26.6933L258.653 26.7645L258.648 26.789L258.638 26.8348L258.628 26.8834L258.623 26.9049L258.608 26.9743L258.607 26.9771L258.591 27.0433L258.586 27.0702L258.575 27.1124L258.563 27.1623L258.559 27.1802L258.542 27.2483L258.541 27.2537L258.525 27.3156L258.518 27.345L258.507 27.3829L258.494 27.4353L258.49 27.4496L258.472 27.5156L258.469 27.5241L258.453 27.5819L258.445 27.6126L258.434 27.6474L258.416 27.7124L258.396 27.7766L258.393 27.7881L258.377 27.8416L258.367 27.8746L258.357 27.9053L258.34 27.9606L258.337 27.969L258.317 28.0322L258.312 28.0453L258.296 28.0946L258.285 28.1294L258.275 28.1571L258.256 28.2131L258.255 28.219L258.233 28.2809L258.228 28.2965L258.211 28.3423L258.199 28.3789L258.19 28.403L258.169 28.4608L258.168 28.4636L258.146 28.5237L258.14 28.5419L258.124 28.5833L258.109 28.6217L258.101 28.6435L258.079 28.7018V28.7023L258.056 28.7612L258.048 28.7811L258.033 28.8195L258.017 28.8599L258.01 28.8778L257.986 28.9356L257.985 28.9374L257.962 28.9927L257.953 29.015L257.939 29.0498L257.921 29.0912L257.915 29.1063L257.891 29.1628L257.875 29.2007L257.867 29.2194L257.856 29.2427L257.842 29.2752L257.837 29.2872L257.818 29.3304L257.793 29.3857L257.768 29.4404L257.757 29.4658L257.744 29.4947L257.723 29.5389L257.719 29.5492L257.694 29.6027L257.69 29.6119L257.669 29.6561L257.656 29.684L257.643 29.7099L257.622 29.7554L257.618 29.7626L257.593 29.8155L257.587 29.8263L257.568 29.8677L257.553 29.8966L257.541 29.9194L257.519 29.9665L257.516 29.9713L257.491 30.023L257.484 30.0356L257.465 30.0739L257.449 30.1046L257.439 30.1251L257.388 30.2262L257.38 30.2405L257.362 30.2761L257.345 30.3078L257.336 30.326L257.31 30.3746L257.31 30.3751L257.284 30.4245L257.275 30.4413L257.258 30.4738L257.247 30.4941L257.24 30.5068L257.238 30.5109L257.229 30.5273L257.22 30.5439L257.176 30.6263L257.17 30.6373L257.167 30.6427L257.158 30.6588L257.149 30.6752L257.061 30.8369L257.053 30.8525L257.044 30.8686L257.035 30.8842L257.03 30.8922L257.026 30.9006L257.008 30.9323L256.999 30.9479L256.964 31.0111L256.961 31.0173L256.956 31.0267L256.947 31.0424L256.938 31.058L256.93 31.0736L256.927 31.0784L256.921 31.0892L256.912 31.1043L256.904 31.1199L256.895 31.1355L256.892 31.1398L256.886 31.1511L256.877 31.1662L256.869 31.1818L256.86 31.1974L256.858 31.201L256.851 31.2125L256.843 31.2281L256.834 31.2432L256.825 31.2588L256.824 31.2611L256.817 31.2739L256.809 31.2887L256.8 31.3043L256.791 31.3194L256.79 31.3212L256.782 31.3345L256.773 31.3496L256.765 31.3645L256.757 31.3796L256.756 31.3814L256.749 31.3947L256.74 31.4103L256.732 31.4246L256.723 31.4397V31.441L256.714 31.4548L256.706 31.4699L256.698 31.4847L256.689 31.4998C255.94 32.8211 255.326 33.9049 255.326 35.035V35.0608V35.0866V35.0895V35.113L255.327 35.1388V35.1437L255.327 35.1647L255.328 35.1905V35.1985L255.328 35.2164L255.329 35.2422V35.2524L255.33 35.2681L255.33 35.2939L255.331 35.3067L255.331 35.3197L255.332 35.3456L255.333 35.3612L255.333 35.3722L255.335 35.3973L255.335 35.4154V35.4231L255.337 35.4497L255.338 35.4694V35.4748L255.34 35.5006L255.342 35.5237V35.5265L255.343 35.5523L255.345 35.5776L255.346 35.5781L255.347 35.6042L255.349 35.6298V35.6319L255.352 35.6552L255.353 35.681L255.354 35.6853L255.356 35.7068L255.358 35.7322L255.359 35.7393L255.361 35.758L255.363 35.7833L255.364 35.7928L255.366 35.8092L255.369 35.8343L255.37 35.8463L255.372 35.8601L255.374 35.8854L255.376 35.8998L255.378 35.9108L255.381 35.9366L255.383 35.9532L255.384 35.9617L255.387 35.987L255.39 36.0062L255.391 36.0123L255.394 36.0374L255.398 36.0597L255.398 36.0627L255.401 36.0881L255.405 36.1121V36.1131L255.409 36.1385L255.414 36.1638V36.1648L255.417 36.1884L255.422 36.2137L255.422 36.2178L255.426 36.2383L255.431 36.2636L255.432 36.2702L255.435 36.2881L255.44 36.3135L255.441 36.3219L255.445 36.338L255.449 36.3626L255.452 36.3741L255.455 36.3874L255.46 36.412L255.462 36.4258L255.465 36.4373L255.469 36.4614L255.473 36.4775L255.475 36.4859L255.481 36.5105L255.485 36.5286L255.486 36.5353L255.492 36.5593L255.497 36.5798L255.498 36.5834L255.504 36.608L255.509 36.6307V36.632L255.516 36.6561L255.483 36.6832L255.352 36.7912L255.319 36.819L255.31 36.8262L255.287 36.8459L255.157 36.9559L255.125 36.983L255.093 37.0112L255.061 37.0383L255.029 37.0667L254.933 37.1496L254.933 37.1501L254.901 37.1777L254.897 37.1808L254.869 37.2062L254.838 37.2343L254.806 37.2624L254.774 37.2908L254.742 37.319L254.736 37.3251L254.666 37.3881L254.523 37.5193L254.494 37.5457L254.492 37.548L254.461 37.5769L254.338 37.693L254.307 37.7217L254.296 37.7327L254.277 37.7511L254.125 37.8985L254.101 37.9213L254.094 37.9287L253.92 38.1016L253.914 38.1078L253.909 38.1132L253.884 38.1377L253.736 38.2892L253.718 38.3074L253.706 38.3199C253.648 38.3813 253.589 38.4424 253.531 38.5044C253.468 38.5716 253.405 38.6402 253.342 38.7083L253.327 38.7252L253.32 38.7328C253.258 38.8014 253.196 38.87 253.135 38.9391L253.115 38.9618C253.056 39.0278 252.998 39.0941 252.94 39.1609L252.916 39.189C252.86 39.254 252.805 39.319 252.75 39.385L252.734 39.4032L252.703 39.441L252.566 39.6068L252.543 39.635L252.526 39.6554L252.377 39.8425L252.355 39.8696L252.352 39.8724L252.343 39.8839C252.289 39.953 252.235 40.0221 252.181 40.0919L252.17 40.107L252.164 40.116C252.11 40.1856 252.057 40.2559 252.005 40.3263L251.969 40.3752L251.833 40.5607L251.792 40.6172L251.661 40.8035L251.614 40.8702L251.499 41.0399L251.452 41.109C251.41 41.1714 251.369 41.2333 251.328 41.2965L251.271 41.3837C251.234 41.4421 251.196 41.5002 251.159 41.5593L251.103 41.648L251.021 41.7829L250.941 41.9131L250.845 42.0756L250.796 42.159L250.704 42.3197L250.635 42.4422L250.558 42.5811L250.507 42.6766L250.44 42.8017L250.426 42.8293L250.332 43.0097L250.285 43.1016L250.201 43.2704L250.151 43.372L250.069 43.5447L250.057 43.5675L249.996 43.698L249.937 43.829L249.878 43.9599L249.878 43.9612C249.8 44.136 249.725 44.3135 249.652 44.4926L249.651 44.4949C249.619 44.575 249.587 44.6549 249.556 44.7354L249.534 44.7907C249.504 44.8695 249.474 44.9488 249.444 45.0281L249.434 45.0545C249.402 45.1412 249.371 45.2282 249.34 45.3155L249.339 45.319C249.224 45.6437 249.118 45.9743 249.019 46.3115C248.011 46.2148 247.085 46.0193 246.235 45.7381C245.982 45.4923 245.72 45.2566 245.448 45.0299C244.357 44.1204 243.102 43.4022 241.749 42.8137C239.075 39.8389 238.036 35.3806 238.036 30.9216C238.036 27.9757 239.396 25.029 241.25 21.655C231.488 22.1936 223.718 31.3274 223.718 42.5113C223.718 54.0422 231.977 63.3934 242.163 63.3934C246.56 63.3934 250.597 61.6498 253.767 58.7409C249.871 63.3069 244.408 66.1477 238.359 66.1477C226.53 66.1477 216.937 55.2877 216.937 41.8957C216.937 28.5045 226.53 17.6445 238.359 17.6445C240.01 17.6445 241.618 17.8561 243.161 18.257C245.876 13.4459 248.962 7.6759 250.51 0C252.214 8.44884 255.78 14.5899 258.665 19.6829C270.981 23.0533 280 33.9199 280 46.8007C280 62.3723 266.821 75 250.569 75Z" fill="white"/>
<path fill-rule="evenodd" clip-rule="evenodd" d="M208.734 48.3944C208.734 49.901 208.456 51.1548 207.9 52.159C207.344 53.1629 206.613 53.974 205.706 54.594C204.799 55.2129 203.789 55.656 202.677 55.924C201.565 56.1917 200.438 56.3252 199.297 56.3252C197.863 56.3252 196.539 56.1502 195.324 55.7987C194.11 55.4471 193.063 54.8948 192.186 54.1421C191.308 53.3887 190.613 52.4183 190.101 51.231C189.589 50.0425 189.333 48.6287 189.333 46.9894H192.976C193.005 49.1979 193.598 50.8206 194.754 51.8579C195.91 52.8952 197.468 53.414 199.428 53.414C200.043 53.414 200.687 53.331 201.36 53.1629C202.033 52.9956 202.641 52.7363 203.182 52.3848C203.723 52.0333 204.177 51.5733 204.542 51.0048C204.908 50.4356 205.091 49.7325 205.091 48.896C205.091 48.0267 204.93 47.3237 204.608 46.7879C204.286 46.2529 203.833 45.8094 203.247 45.4579C202.662 45.1063 201.96 44.8137 201.141 44.5794C200.321 44.3456 199.414 44.1113 198.419 43.8763C197.219 43.5756 196.114 43.2575 195.105 42.9233C194.096 42.5887 193.217 42.1452 192.471 41.5929C191.725 41.041 191.139 40.346 190.715 39.5102C190.291 38.6733 190.079 37.619 190.079 36.3475C190.079 35.2767 190.291 34.3063 190.715 33.4363C191.139 32.566 191.739 31.8133 192.515 31.1771C193.29 30.541 194.219 30.0567 195.302 29.7213C196.385 29.3871 197.585 29.2198 198.902 29.2198C200.131 29.2198 201.301 29.3617 202.414 29.6463C203.525 29.931 204.498 30.399 205.333 31.0517C206.166 31.704 206.832 32.5579 207.329 33.6113C207.827 34.666 208.09 35.9456 208.12 37.4517H204.608C204.608 35.511 204.067 34.0967 202.984 33.2102C201.902 32.3229 200.57 31.8802 198.99 31.8802C197.877 31.8802 196.978 32.0475 196.29 32.3817C195.602 32.7167 195.075 33.1098 194.709 33.5617C194.345 34.0137 194.096 34.4737 193.963 34.9417C193.832 35.4106 193.766 35.7956 193.766 36.0963C193.766 37.1002 194.081 37.8956 194.709 38.481C195.339 39.0663 196.092 39.5344 196.97 39.886C197.848 40.2375 198.77 40.5221 199.736 40.739C200.701 40.9567 201.521 41.1663 202.194 41.3671C203.013 41.6344 203.811 41.9275 204.586 42.2456C205.362 42.5637 206.056 42.9817 206.671 43.5006C207.286 44.019 207.783 44.6717 208.164 45.4579C208.544 46.2448 208.734 47.2233 208.734 48.3944ZM188.382 46.2863C188.236 47.8587 187.877 49.2644 187.306 50.5025C186.736 51.7406 186.011 52.7952 185.133 53.6571C184.255 54.5183 183.231 55.1794 182.061 55.6394C180.89 56.0994 179.632 56.3252 178.285 56.3252C176.618 56.3252 175.111 55.9821 173.765 55.296C172.418 54.6102 171.285 53.6733 170.355 52.4852C169.426 51.2979 168.709 49.901 168.204 48.294C167.7 46.6875 167.444 44.9644 167.444 43.1237C167.444 41.1829 167.693 39.3675 168.182 37.6779C168.673 35.9879 169.39 34.5152 170.333 33.2598C171.278 32.006 172.441 31.0183 173.83 30.299C175.22 29.5798 176.808 29.2198 178.593 29.2198C179.852 29.2198 181.044 29.4206 182.171 29.8217C183.297 30.224 184.3 30.8175 185.178 31.5956C186.056 32.3817 186.772 33.344 187.328 34.4817C187.884 35.6113 188.236 36.916 188.382 38.3887L171.35 45.5002C171.467 46.5375 171.709 47.499 172.075 48.4025C172.441 49.3063 172.908 50.1013 173.479 50.7871C174.05 51.4648 174.738 51.9998 175.542 52.3848C176.347 52.7698 177.276 52.9621 178.33 52.9621C179.208 52.9621 180.02 52.8033 180.766 52.4852C181.512 52.1671 182.171 51.716 182.741 51.1298C183.312 50.544 183.765 49.8421 184.102 49.0217C184.439 48.2021 184.651 47.2902 184.738 46.2863H188.382ZM184.431 37.3263C184.051 35.829 183.355 34.666 182.346 33.8294C181.336 33.0006 180.115 32.5821 178.681 32.5821C177.423 32.5821 176.332 32.8425 175.411 33.3613C174.489 33.871 173.728 34.5656 173.128 35.4267C172.528 36.2971 172.075 37.301 171.767 38.4556C171.46 39.6013 171.292 40.8067 171.262 42.0702V42.7721L184.431 37.3263ZM166.405 48.3944C166.405 49.901 166.127 51.1548 165.571 52.159C165.015 53.1629 164.284 53.974 163.376 54.594C162.469 55.2129 161.46 55.656 160.348 55.924C159.235 56.1917 158.109 56.3252 156.967 56.3252C155.534 56.3252 154.21 56.1502 152.995 55.7987C151.781 55.4471 150.734 54.8948 149.857 54.1421C148.978 53.3887 148.284 52.4183 147.771 51.231C147.259 50.0425 147.003 48.6287 147.003 46.9894H150.647C150.676 49.1979 151.269 50.8206 152.425 51.8579C153.581 52.8952 155.139 53.414 157.099 53.414C157.714 53.414 158.357 53.331 159.031 53.1629C159.704 52.9956 160.311 52.7363 160.853 52.3848C161.394 52.0333 161.847 51.5733 162.213 51.0048C162.579 50.4356 162.762 49.7325 162.762 48.896C162.762 48.0267 162.6 47.3237 162.279 46.7879C161.956 46.2529 161.504 45.8094 160.918 45.4579C160.333 45.1063 159.63 44.8137 158.811 44.5794C157.991 44.3456 157.084 44.1113 156.09 43.8763C154.89 43.5756 153.785 43.2575 152.775 42.9233C151.766 42.5887 150.888 42.1452 150.142 41.5929C149.396 41.041 148.81 40.346 148.386 39.5102C147.962 38.6733 147.75 37.619 147.75 36.3475C147.75 35.2767 147.962 34.3063 148.386 33.4363C148.81 32.566 149.41 31.8133 150.186 31.1771C150.961 30.541 151.89 30.0567 152.973 29.7213C154.055 29.3871 155.256 29.2198 156.572 29.2198C157.802 29.2198 158.972 29.3617 160.084 29.6463C161.197 29.931 162.169 30.399 163.003 31.0517C163.837 31.704 164.502 32.5579 165 33.6113C165.497 34.666 165.761 35.9456 165.791 37.4517H162.279C162.279 35.511 161.738 34.0967 160.654 33.2102C159.572 32.3229 158.24 31.8802 156.66 31.8802C155.548 31.8802 154.648 32.0475 153.961 32.3817C153.273 32.7167 152.746 33.1098 152.38 33.5617C152.015 34.0137 151.766 34.4737 151.635 34.9417C151.502 35.4106 151.437 35.7956 151.437 36.0963C151.437 37.1002 151.752 37.8956 152.38 38.481C153.01 39.0663 153.763 39.5344 154.641 39.886C155.519 40.2375 156.441 40.5221 157.407 40.739C158.372 40.9567 159.192 41.1663 159.865 41.3671C160.684 41.6344 161.482 41.9275 162.257 42.2456C163.032 42.5637 163.728 42.9817 164.342 43.5006C164.956 44.019 165.454 44.6717 165.834 45.4579C166.215 46.2448 166.405 47.2233 166.405 48.3944ZM146.096 21.439C146.096 22.2425 145.818 22.8948 145.262 23.3971C144.706 23.8987 144.092 24.1498 143.419 24.1498C142.746 24.1498 142.138 23.8987 141.597 23.3971C141.055 22.8948 140.785 22.2425 140.785 21.439C140.785 20.6356 141.055 19.9833 141.597 19.4817C142.138 18.9794 142.746 18.729 143.419 18.729C144.092 18.729 144.706 18.9794 145.262 19.4817C145.818 19.9833 146.096 20.6356 146.096 21.439ZM141.531 29.8217H145.35V55.7225H141.531V29.8217ZM134.566 19.5821H138.386V55.7225H134.566V19.5821ZM118.603 27.3125H115.926L121.194 19.9833H125.451L118.603 27.3125ZM127.602 55.7225V52.159C126.812 53.4979 125.766 54.5263 124.463 55.2463C123.161 55.9656 121.676 56.3252 120.008 56.3252C118.37 56.3252 116.877 55.991 115.531 55.3213C114.185 54.6521 113.036 53.724 112.085 52.5356C111.134 51.3475 110.402 49.9506 109.89 48.3437C109.378 46.7383 109.122 44.9979 109.122 43.1237C109.122 41.1829 109.371 39.3675 109.868 37.6779C110.366 35.9879 111.098 34.5152 112.063 33.2598C113.029 32.006 114.207 31.0183 115.597 30.299C116.987 29.5798 118.56 29.2198 120.316 29.2198C121.808 29.2198 123.191 29.5371 124.463 30.1733C125.736 30.8094 126.783 31.7463 127.602 32.9844V29.8217H131.421V55.7225H127.602ZM127.602 38.481C127.602 37.6444 127.397 36.8583 126.987 36.1298C126.578 35.3933 126.051 34.7744 125.408 34.2556C124.764 33.7371 124.046 33.336 123.256 33.034C122.466 32.7333 121.706 32.5821 120.974 32.5821C119.481 32.5821 118.223 32.884 117.198 33.4779C116.174 34.0806 115.348 34.8748 114.719 35.854C114.09 36.8329 113.636 37.9625 113.358 39.2256C113.08 40.4887 112.941 41.7937 112.941 43.1237C112.941 44.5206 113.102 45.8175 113.424 47.0229C113.746 48.219 114.221 49.2563 114.851 50.1429C115.48 51.0213 116.277 51.716 117.243 52.2094C118.208 52.711 119.349 52.9621 120.667 52.9621C121.545 52.9621 122.393 52.8113 123.212 52.5106C124.032 52.2094 124.771 51.774 125.429 51.1883C126.087 50.6029 126.614 49.909 127.009 49.0883C127.405 48.2771 127.602 47.349 127.602 46.3198V38.481ZM102.947 55.7225V40.0117C102.947 38.9744 102.838 38.0121 102.618 37.1256C102.399 36.239 102.063 35.4775 101.609 34.8413C101.155 34.206 100.577 33.7037 99.8744 33.336C99.1728 32.9671 98.3383 32.7837 97.3731 32.7837C96.2904 32.7837 95.347 33.0179 94.5418 33.486C93.7373 33.9548 93.071 34.591 92.545 35.3933C92.0179 36.1967 91.6227 37.1175 91.3597 38.1548C91.0957 39.1921 90.9645 40.279 90.9645 41.4167V55.7225H87.1457V29.8217H90.9645L90.9716 34.8917C91.6449 32.951 92.662 31.5206 94.0077 30.5998C95.3611 29.6798 96.9557 29.2198 98.8072 29.2198C101.265 29.2198 103.211 30.0394 104.63 31.6794C106.057 33.3187 106.767 35.5271 106.767 38.3048V55.7225H102.947ZM80.1809 55.7225H84V29.8217H80.1809V32.9844C79.3616 31.7463 78.3152 30.8094 77.0425 30.1733C75.7695 29.5371 74.3865 29.2198 72.8938 29.2198C71.1382 29.2198 69.5658 29.5798 68.1757 30.299C66.786 31.0183 65.6078 32.006 64.6422 33.2598C63.6765 34.5152 62.9447 35.9879 62.4479 37.6779C61.9498 39.3675 61.7012 41.1829 61.7012 43.1237C61.7012 44.9979 61.9572 46.7383 62.4691 48.3437C62.9813 49.9506 63.7129 51.3475 64.6644 52.5356C65.6148 53.724 66.7638 54.6521 68.1101 55.3213C69.4558 55.991 70.9485 56.3252 72.5874 56.3252C74.2553 56.3252 75.7402 55.9656 77.0425 55.2463C78.3445 54.5263 79.3908 53.4979 80.1809 52.159V55.7225ZM80.1809 38.481C80.1809 37.6444 79.9764 36.8583 79.5664 36.1298C79.1567 35.3933 78.6297 34.7744 77.986 34.2556C77.3426 33.7371 76.6251 33.336 75.8351 33.034C75.0447 32.7333 74.2846 32.5821 73.553 32.5821C72.0604 32.5821 70.8022 32.884 69.7773 33.4779C68.7535 34.0806 67.9268 34.8748 67.2979 35.854C66.6683 36.8329 66.2155 37.9625 65.9371 39.2256C65.6592 40.4887 65.52 41.7937 65.52 43.1237C65.52 44.5206 65.6811 45.8175 66.0026 47.0229C66.3245 48.219 66.8001 49.2563 67.429 50.1429C68.059 51.0213 68.8561 51.716 69.8217 52.2094C70.7874 52.711 71.9282 52.9621 73.2456 52.9621C74.1235 52.9621 74.9721 52.8113 75.7917 52.5106C76.611 52.2094 77.3496 51.774 78.0078 51.1883C78.666 50.6029 79.1931 49.909 79.5883 49.0883C79.9835 48.2771 80.1809 47.349 80.1809 46.3198V38.481ZM63.1202 32.7837C62.0376 32.7837 61.0942 33.0179 60.289 33.486C59.4844 33.9548 58.8185 34.591 58.2915 35.3933C57.7651 36.1967 57.3702 37.1175 57.1069 38.1548C56.8432 39.1921 56.712 40.279 56.712 41.4167V55.7225H52.8929V29.8217H56.712V34.8917C57.385 32.951 58.394 31.5206 59.7407 30.5998C61.0864 29.6798 62.6816 29.2198 64.5251 29.2198H65.0515C65.2277 29.2198 65.3881 29.2363 65.5341 29.2698L63.1202 32.7837ZM49.7031 32.7837C48.6204 32.7837 47.677 33.0179 46.8718 33.486C46.0673 33.9548 45.4014 34.591 44.875 35.3933C44.348 36.1967 43.9528 37.1175 43.6897 38.1548C43.4267 39.1921 43.2946 40.279 43.2946 41.4167V55.7225H39.4758V29.8217H43.2946V34.8917C43.9679 32.951 44.9769 31.5206 46.3233 30.5998C47.67 29.6798 49.2645 29.2198 51.108 29.2198H51.635C51.8106 29.2198 51.971 29.2363 52.1177 29.2698L49.7031 32.7837ZM37.0326 46.2863H33.3891C33.3013 47.2902 33.0888 48.2021 32.7521 49.0217C32.4161 49.8421 31.9627 50.544 31.3913 51.1298C30.8209 51.716 30.1626 52.1671 29.4166 52.4852C28.67 52.8033 27.8584 52.9621 26.9806 52.9621C25.9265 52.9621 24.9982 52.7698 24.193 52.3848C23.3885 51.9998 22.7003 51.4648 22.1299 50.7871C21.5592 50.1013 21.0917 49.3063 20.7257 48.4025C20.3598 47.499 20.118 46.5375 20.0009 45.5002L37.0326 38.3887C36.8863 36.916 36.5349 35.6113 35.9786 34.4817C35.4229 33.344 34.7062 32.3817 33.8274 31.5956C32.9495 30.8175 31.9476 30.224 30.8209 29.8217C29.6941 29.4206 28.5018 29.2198 27.2439 29.2198C25.4586 29.2198 23.8715 29.5798 22.4814 30.299C21.0916 31.0183 19.9276 32.006 18.9842 33.2598C18.0404 34.5152 17.323 35.9879 16.8333 37.6779C16.3433 39.3675 16.0944 41.1829 16.0944 43.1237C16.0944 44.9644 16.3503 46.6875 16.8552 48.294C17.3603 49.901 18.0771 51.2979 19.006 52.4852C19.9353 53.6733 21.0695 54.6102 22.4151 55.296C23.7615 55.9821 25.2683 56.3252 26.9365 56.3252C28.2829 56.3252 29.5407 56.0994 30.7112 55.6394C31.882 55.1794 32.9061 54.5183 33.784 53.6571C34.6622 52.7952 35.3866 51.7406 35.9571 50.5025C36.5275 49.2644 36.8863 47.8587 37.0326 46.2863ZM33.0817 37.3263C32.7016 35.829 32.0061 34.666 30.9971 33.8294C29.9874 33.0006 28.7655 32.5821 27.3314 32.5821C26.0735 32.5821 24.9831 32.8425 24.0608 33.3613C23.1396 33.871 22.3785 34.5656 21.7788 35.4267C21.1791 36.2971 20.7257 37.301 20.4183 38.4556C20.1109 39.6013 19.9424 40.8067 19.9131 42.0702V42.7721L33.0817 37.3263ZM14.1339 23.6483V55.7225H9.96329V23.6483H6.10115C5.39854 23.6483 4.83518 23.7313 4.41072 23.8987C3.9866 24.066 3.66471 24.2917 3.44509 24.5763C3.22647 24.861 3.0795 25.2044 3.00652 25.6056C2.9332 26.0067 2.89686 26.4252 2.89686 26.8606L0 25.3048C0 24.5683 0.0655772 23.8571 0.197421 23.1713C0.328929 22.4844 0.577487 21.8744 0.943421 21.3387C1.30935 20.8037 1.8142 20.3763 2.45761 20.0594C3.10136 19.7413 3.95026 19.5821 5.00333 19.5821H24.0538V23.6483H14.1339Z" fill="white"/>
<path fill-rule="evenodd" clip-rule="evenodd" d="M200.254 60.5299H200.86V65.7753H200.254V60.5299ZM196.048 65.7746V63.4296H194.455V65.7746H193.85V61.9938C193.85 61.4699 193.969 61.0742 194.206 60.8065C194.444 60.5392 194.793 60.4061 195.251 60.4061C195.714 60.4061 196.063 60.5419 196.299 60.8138C196.535 61.0857 196.653 61.4788 196.653 61.9938V65.7746H196.048ZM196.048 62.1392C196.048 61.9749 196.035 61.8203 196.013 61.6776C195.989 61.5338 195.947 61.4092 195.885 61.3019C195.824 61.1949 195.741 61.1111 195.64 61.0503C195.538 60.9899 195.408 60.9592 195.251 60.9592C195.094 60.9592 194.965 60.9899 194.863 61.0503C194.761 61.1111 194.679 61.1949 194.617 61.3019C194.556 61.4092 194.513 61.5338 194.49 61.6776C194.467 61.8203 194.455 61.9749 194.455 62.1392V62.8757H196.048V62.1392ZM189.408 61.1199V65.7746H188.802V61.1199H188.241C188.139 61.1199 188.058 61.1319 187.996 61.1561C187.934 61.1807 187.888 61.213 187.856 61.2546C187.824 61.2965 187.803 61.3461 187.792 61.4038C187.781 61.4626 187.777 61.523 187.777 61.5865L187.356 61.3603C187.356 61.2538 187.366 61.1499 187.384 61.0503C187.404 60.9511 187.44 60.8626 187.493 60.7849C187.546 60.7072 187.619 60.6449 187.712 60.5988C187.806 60.5526 187.929 60.5299 188.082 60.5299H190.847V61.1199H189.408ZM183.493 65.7746V62.1392C183.493 61.9749 183.481 61.8203 183.458 61.6776C183.435 61.5338 183.392 61.4092 183.33 61.3019C183.269 61.1949 183.187 61.1111 183.085 61.0503C182.983 60.9899 182.854 60.9592 182.697 60.9592C182.539 60.9592 182.41 60.9899 182.308 61.0503C182.206 61.1111 182.125 61.1949 182.063 61.3019C182.001 61.4092 181.958 61.5338 181.936 61.6776C181.912 61.8203 181.9 61.9749 181.9 62.1392V65.7746H181.295V61.9938C181.295 61.4699 181.414 61.0742 181.652 60.8065C181.89 60.5392 182.238 60.4061 182.697 60.4061C183.159 60.4061 183.509 60.5419 183.744 60.8138C183.98 61.0857 184.098 61.4788 184.098 61.9938V65.7746H183.493ZM175.304 65.7746V60.5299H178.12V61.1199H175.91V62.8757H177.936V63.4296H175.91V65.1853H178.165V65.7746H175.304ZM171.097 60.5299H171.703V65.7753H171.097V60.5299ZM167.604 64.2892C167.604 64.5411 167.562 64.7599 167.477 64.9449C167.392 65.1296 167.279 65.283 167.136 65.4069C166.994 65.5307 166.83 65.6238 166.646 65.6842C166.461 65.7446 166.269 65.7746 166.069 65.7746H164.693V60.5299H166.089C166.266 60.5299 166.438 60.5553 166.601 60.6061C166.765 60.6572 166.908 60.7361 167.031 60.8426C167.155 60.9503 167.252 61.0857 167.324 61.2511C167.396 61.4165 167.433 61.6107 167.433 61.8338C167.433 61.9796 167.412 62.1157 167.372 62.2415C167.331 62.368 167.276 62.4811 167.207 62.5803C167.136 62.6807 167.05 62.7638 166.948 62.8315C166.846 62.9003 166.736 62.9492 166.617 62.978C166.918 63.0257 167.159 63.1696 167.337 63.4072C167.516 63.6457 167.604 63.9392 167.604 64.2892ZM166.853 61.9507C166.853 61.6542 166.766 61.4353 166.594 61.2946C166.423 61.1534 166.209 61.083 165.954 61.083H165.298V62.8242H165.954C166.074 62.8242 166.188 62.8061 166.299 62.7699C166.409 62.7338 166.504 62.6788 166.585 62.6065C166.666 62.5334 166.73 62.4422 166.779 62.3326C166.828 62.2234 166.853 62.0961 166.853 61.9507ZM166.999 64.2376C166.999 64.073 166.974 63.9296 166.923 63.8084C166.872 63.6865 166.802 63.5869 166.713 63.5092C166.623 63.4315 166.519 63.3738 166.397 63.3349C166.277 63.2961 166.146 63.2761 166.006 63.2761H165.298V65.2215H165.973C166.109 65.2215 166.24 65.2034 166.365 65.1665C166.491 65.1303 166.6 65.0726 166.693 64.9919C166.787 64.9115 166.861 64.8096 166.917 64.6857C166.972 64.5619 166.999 64.4126 166.999 64.2376ZM160.486 65.7746V62.1392C160.486 61.9749 160.474 61.8196 160.451 61.6742C160.428 61.5276 160.385 61.403 160.323 61.298C160.263 61.1942 160.18 61.1111 160.078 61.0503C159.976 60.9899 159.847 60.9592 159.69 60.9592C159.532 60.9592 159.404 60.9899 159.301 61.0503C159.2 61.1111 159.117 61.1942 159.056 61.298C158.994 61.403 158.952 61.5276 158.929 61.6742C158.905 61.8196 158.893 61.9749 158.893 62.1392V65.7746H158.289V62.1392C158.289 61.9749 158.277 61.8196 158.253 61.6742C158.23 61.5276 158.187 61.403 158.126 61.298C158.064 61.1942 157.983 61.1111 157.881 61.0503C157.779 60.9899 157.649 60.9592 157.492 60.9592C157.335 60.9592 157.205 60.9899 157.103 61.0503C157.002 61.1111 156.92 61.1942 156.858 61.298C156.797 61.403 156.754 61.5276 156.73 61.6742C156.708 61.8196 156.696 61.9749 156.696 62.1392V65.7746H156.09V61.9938C156.09 61.4699 156.21 61.0742 156.448 60.8065C156.685 60.5392 157.033 60.4061 157.492 60.4061C157.751 60.4061 157.974 60.4588 158.161 60.5626C158.348 60.6672 158.492 60.8265 158.594 61.0396C158.692 60.8265 158.834 60.6672 159.021 60.5626C159.208 60.4588 159.431 60.4061 159.69 60.4061C160.149 60.4061 160.497 60.5392 160.734 60.8065C160.972 61.0742 161.091 61.4699 161.091 61.9938V65.7746H160.486ZM151.884 65.7746V63.4296H150.291V65.7746H149.686V61.9938C149.686 61.4699 149.805 61.0742 150.042 60.8065C150.28 60.5392 150.629 60.4061 151.087 60.4061C151.55 60.4061 151.899 60.5419 152.135 60.8138C152.371 61.0857 152.489 61.4788 152.489 61.9938V65.7746H151.884ZM151.884 62.1392C151.884 61.9749 151.872 61.8203 151.849 61.6776C151.825 61.5338 151.783 61.4092 151.721 61.3019C151.66 61.1949 151.578 61.1111 151.476 61.0503C151.374 60.9899 151.244 60.9592 151.087 60.9592C150.931 60.9592 150.801 60.9899 150.699 61.0503C150.597 61.1111 150.515 61.1949 150.453 61.3019C150.392 61.4092 150.35 61.5338 150.326 61.6776C150.302 61.8203 150.291 61.9749 150.291 62.1392V62.8757H151.884V62.1392ZM144.416 64.3396C144.416 64.6215 144.366 64.8611 144.269 65.058C144.171 65.2542 144.041 65.4142 143.88 65.5388C143.719 65.6626 143.535 65.753 143.329 65.8115C143.123 65.8696 142.912 65.8992 142.695 65.8992C142.483 65.8992 142.263 65.8684 142.036 65.808C141.809 65.7472 141.599 65.6453 141.408 65.5019C141.217 65.3588 141.061 65.1665 140.939 64.9261C140.819 64.6857 140.759 64.3857 140.759 64.0269H141.364C141.364 64.2692 141.399 64.4769 141.469 64.6496C141.538 64.8222 141.636 64.9615 141.759 65.0688C141.882 65.1753 142.027 65.253 142.195 65.3011C142.363 65.3499 142.544 65.3742 142.74 65.3742C142.871 65.3742 143.001 65.3561 143.128 65.3199C143.255 65.283 143.37 65.2261 143.472 65.1484C143.574 65.0707 143.656 64.9703 143.718 64.8465C143.78 64.7226 143.81 64.5726 143.81 64.3984C143.81 64.2084 143.773 64.0569 143.698 63.943C143.624 63.8292 143.525 63.7349 143.402 63.663C143.279 63.5896 143.135 63.5299 142.969 63.4838C142.803 63.438 142.629 63.388 142.447 63.3349C142.264 63.2815 142.081 63.2238 141.899 63.163C141.716 63.1026 141.551 63.0222 141.405 62.9226C141.259 62.8234 141.14 62.6922 141.048 62.5296C140.957 62.3672 140.911 62.1565 140.911 61.8992C140.911 61.6226 140.96 61.3892 141.058 61.2003C141.155 61.0107 141.282 60.858 141.437 60.7415C141.592 60.6249 141.769 60.5392 141.966 60.4857C142.163 60.4326 142.364 60.4061 142.567 60.4061C142.801 60.4061 143.02 60.4353 143.224 60.493C143.428 60.5519 143.606 60.6449 143.759 60.7742C143.911 60.9022 144.035 61.0715 144.129 61.2799C144.222 61.4888 144.275 61.7434 144.287 62.0453H143.708C143.708 61.8411 143.678 61.6684 143.616 61.5276C143.554 61.3865 143.471 61.2719 143.367 61.1815C143.264 61.0922 143.142 61.028 143.004 60.9892C142.866 60.9503 142.721 60.9303 142.567 60.9303C142.449 60.9303 142.326 60.9438 142.198 60.9699C142.071 60.9972 141.955 61.0442 141.851 61.113C141.747 61.1807 141.661 61.2719 141.593 61.3857C141.525 61.4996 141.491 61.6442 141.491 61.8196C141.491 62.0038 141.534 62.1511 141.622 62.2603C141.708 62.3688 141.821 62.4592 141.959 62.5296C142.097 62.6003 142.254 62.6599 142.427 62.7076C142.601 62.7565 142.78 62.8072 142.963 62.8615C143.154 62.9192 143.337 62.9796 143.514 63.043C143.69 63.1061 143.845 63.1903 143.979 63.2942C144.112 63.3988 144.219 63.5338 144.297 63.6992C144.376 63.8642 144.416 64.0776 144.416 64.3396ZM135.366 65.7746V60.5299H138.183V61.1199H135.972V62.8757H137.998V63.4296H135.972V65.1853H138.227V65.7746H135.366ZM132.001 64.3396C132.001 64.6215 131.952 64.8611 131.854 65.058C131.756 65.2542 131.627 65.4142 131.465 65.5388C131.304 65.6626 131.121 65.753 130.915 65.8115C130.708 65.8696 130.497 65.8992 130.281 65.8992C130.068 65.8992 129.849 65.8684 129.621 65.808C129.394 65.7472 129.185 65.6453 128.993 65.5019C128.802 65.3588 128.647 65.1665 128.526 64.9261C128.404 64.6857 128.344 64.3857 128.344 64.0269H128.949C128.949 64.2692 128.984 64.4769 129.054 64.6496C129.125 64.8222 129.221 64.9615 129.344 65.0688C129.468 65.1753 129.612 65.253 129.781 65.3011C129.948 65.3499 130.13 65.3742 130.325 65.3742C130.457 65.3742 130.587 65.3561 130.714 65.3199C130.841 65.283 130.956 65.2261 131.058 65.1484C131.159 65.0707 131.242 64.9703 131.303 64.8465C131.365 64.7226 131.396 64.5726 131.396 64.3984C131.396 64.2084 131.359 64.0569 131.284 63.943C131.209 63.8292 131.11 63.7349 130.988 63.663C130.865 63.5896 130.72 63.5299 130.554 63.4838C130.389 63.438 130.214 63.388 130.032 63.3349C129.849 63.2815 129.667 63.2238 129.484 63.163C129.302 63.1026 129.137 63.0222 128.99 62.9226C128.844 62.8234 128.725 62.6922 128.634 62.5296C128.542 62.3672 128.497 62.1565 128.497 61.8992C128.497 61.6226 128.545 61.3892 128.644 61.2003C128.741 61.0107 128.867 60.858 129.022 60.7415C129.178 60.6249 129.354 60.5392 129.551 60.4857C129.749 60.4326 129.95 60.4061 130.154 60.4061C130.387 60.4061 130.606 60.4353 130.809 60.493C131.014 60.5519 131.192 60.6449 131.344 60.7742C131.498 60.9022 131.621 61.0715 131.714 61.2799C131.807 61.4888 131.86 61.7434 131.873 62.0453H131.294C131.294 61.8411 131.263 61.6684 131.201 61.5276C131.14 61.3865 131.057 61.2719 130.953 61.1815C130.849 61.0922 130.727 61.028 130.59 60.9892C130.452 60.9503 130.306 60.9303 130.154 60.9303C130.034 60.9303 129.911 60.9438 129.784 60.9699C129.657 60.9972 129.54 61.0442 129.437 61.113C129.333 61.1807 129.246 61.2719 129.178 61.3857C129.111 61.4996 129.077 61.6442 129.077 61.8196C129.077 62.0038 129.12 62.1511 129.207 62.2603C129.295 62.3688 129.407 62.4592 129.545 62.5296C129.683 62.6003 129.839 62.6599 130.013 62.7076C130.187 62.7565 130.365 62.8072 130.548 62.8615C130.739 62.9192 130.923 62.9796 131.099 63.043C131.276 63.1061 131.431 63.1903 131.564 63.2942C131.698 63.3988 131.804 63.5338 131.883 63.6992C131.962 63.8642 132.001 64.0776 132.001 64.3396ZM124.399 60.5299H125.004V65.7753H124.399V60.5299ZM121.141 64.9449C121.141 65.0519 121.131 65.1546 121.112 65.2542C121.093 65.3534 121.057 65.4419 121.004 65.5199C120.95 65.5976 120.878 65.6599 120.784 65.7057C120.69 65.7519 120.567 65.7746 120.415 65.7746H117.994V60.5299H118.599V65.1853H120.255C120.357 65.1853 120.439 65.1726 120.5 65.1484C120.562 65.1238 120.609 65.0915 120.641 65.0499C120.672 65.0092 120.694 64.9603 120.705 64.9046C120.715 64.8484 120.721 64.7869 120.721 64.7184L121.141 64.9449ZM113.787 65.7746V63.4296H112.194V65.7746H111.589V61.9938C111.589 61.4699 111.708 61.0742 111.946 60.8065C112.183 60.5392 112.532 60.4061 112.99 60.4061C113.453 60.4061 113.803 60.5419 114.039 60.8138C114.274 61.0857 114.392 61.4788 114.392 61.9938V65.7746H113.787ZM113.787 62.1392C113.787 61.9749 113.775 61.8203 113.752 61.6776C113.728 61.5338 113.686 61.4092 113.625 61.3019C113.563 61.1949 113.481 61.1111 113.379 61.0503C113.277 60.9899 113.147 60.9592 112.99 60.9592C112.833 60.9592 112.704 60.9899 112.602 61.0503C112.5 61.1111 112.418 61.1949 112.356 61.3019C112.295 61.4092 112.253 61.5338 112.229 61.6776C112.206 61.8203 112.194 61.9749 112.194 62.1392V62.8757H113.787V62.1392ZM112.665 60.2019H112.277L113.041 59.1384H113.653L112.665 60.2019ZM107.382 65.7746V62.1392C107.382 61.9749 107.37 61.8203 107.347 61.6776C107.324 61.5338 107.281 61.4092 107.219 61.3019C107.158 61.1949 107.076 61.1111 106.975 61.0503C106.873 60.9899 106.743 60.9592 106.586 60.9592C106.428 60.9592 106.299 60.9899 106.197 61.0503C106.095 61.1111 106.014 61.1949 105.952 61.3019C105.89 61.4092 105.848 61.5338 105.825 61.6776C105.801 61.8203 105.789 61.9749 105.789 62.1392V65.7746H105.184V61.9938C105.184 61.4699 105.303 61.0742 105.541 60.8065C105.779 60.5392 106.127 60.4061 106.586 60.4061C107.049 60.4061 107.398 60.5419 107.633 60.8138C107.87 61.0857 107.988 61.4788 107.988 61.9938V65.7746H107.382ZM100.977 65.7746V63.4296H99.3848V65.7746H98.7794V61.9938C98.7794 61.4699 98.8981 61.0742 99.1366 60.8065C99.3737 60.5392 99.7221 60.4061 100.181 60.4061C100.644 60.4061 100.993 60.5419 101.229 60.8138C101.465 61.0857 101.582 61.4788 101.582 61.9938V65.7746H100.977ZM100.977 62.1392C100.977 61.9749 100.966 61.8203 100.942 61.6776C100.919 61.5338 100.877 61.4092 100.815 61.3019C100.753 61.1949 100.672 61.1111 100.569 61.0503C100.468 60.9899 100.339 60.9592 100.181 60.9592C100.024 60.9592 99.8943 60.9899 99.7924 61.0503C99.6905 61.1111 99.6085 61.1949 99.5469 61.3019C99.486 61.4092 99.4433 61.5338 99.4198 61.6776C99.3966 61.8203 99.3848 61.9749 99.3848 62.1392V62.8757H100.977V62.1392ZM90.4702 65.7746V60.5299H93.2863V61.1199H91.0753V62.8757H93.1014V63.4296H91.0753V65.1853H93.3304V65.7746H90.4702ZM86.9767 63.1522C86.9767 63.5507 86.9292 63.9115 86.8337 64.2338C86.7379 64.5572 86.5966 64.833 86.4093 65.0607C86.2229 65.2892 85.9922 65.4657 85.7188 65.5892C85.4447 65.713 85.1292 65.7746 84.773 65.7746H83.8619V60.5299H84.9957C85.3394 60.5299 85.6367 60.5976 85.8869 60.7342C86.1382 60.8699 86.3437 61.0561 86.5058 61.2911C86.6669 61.5269 86.7853 61.8049 86.862 62.1249C86.9387 62.4457 86.9767 62.788 86.9767 63.1522ZM86.3713 63.1449C86.3713 62.8488 86.3407 62.5769 86.2791 62.3292C86.2172 62.0815 86.1234 61.8672 85.9959 61.6884C85.8681 61.5088 85.706 61.3688 85.5086 61.2692C85.3111 61.1699 85.0764 61.1199 84.8046 61.1199H84.4673V65.1853H84.7602C85.0273 65.1853 85.262 65.133 85.4635 65.028C85.6656 64.9242 85.8335 64.7807 85.967 64.598C86.1012 64.4165 86.2014 64.2003 86.2693 63.9503C86.3373 63.6999 86.3713 63.4296 86.3713 63.1376V63.1449ZM78.4633 63.1522C78.4633 63.5265 78.4142 63.8796 78.317 64.2122C78.2191 64.5446 78.0775 64.8365 77.8929 65.0869C77.7086 65.3372 77.4812 65.5349 77.2118 65.6807C76.9421 65.8261 76.6333 65.8992 76.2849 65.8992C75.9411 65.8992 75.6337 65.8261 75.3643 65.6807C75.0946 65.5349 74.8672 65.3372 74.6822 65.0869C74.4972 64.8365 74.3567 64.5446 74.2588 64.2122C74.1606 63.8796 74.1125 63.5265 74.1125 63.1522C74.1125 62.7784 74.1606 62.4249 74.2588 62.0922C74.3567 61.7599 74.4972 61.4688 74.6822 61.2188C74.8672 60.9684 75.0946 60.7703 75.3643 60.6249C75.6337 60.4784 75.9411 60.4061 76.2849 60.4061C76.6333 60.4061 76.9421 60.4784 77.2118 60.6249C77.4812 60.7703 77.7086 60.9684 77.8929 61.2188C78.0775 61.4688 78.2191 61.7599 78.317 62.0922C78.4142 62.4249 78.4633 62.7784 78.4633 63.1522ZM77.8579 63.1522C77.8579 62.8757 77.8263 62.6072 77.7624 62.3472C77.6992 62.088 77.602 61.8557 77.4725 61.6515C77.3427 61.448 77.1802 61.2846 76.9824 61.1634C76.785 61.0422 76.5526 60.9819 76.2849 60.9819C76.0168 60.9819 75.7847 61.0422 75.587 61.1634C75.3895 61.2846 75.2274 61.448 75.0996 61.6515C74.9722 61.8557 74.8766 62.088 74.8134 62.3472C74.7495 62.6072 74.7179 62.8757 74.7179 63.1522C74.7179 63.4296 74.7495 63.698 74.8134 63.9572C74.8766 64.2176 74.9722 64.4492 75.0996 64.653C75.2274 64.8572 75.3895 65.0199 75.587 65.1411C75.7847 65.263 76.0168 65.3238 76.2849 65.3238C76.5526 65.3238 76.785 65.263 76.9824 65.1411C77.1802 65.0199 77.3427 64.8572 77.4725 64.653C77.602 64.4492 77.6992 64.2176 77.7624 63.9572C77.8263 63.698 77.8579 63.4296 77.8579 63.1522ZM70.0139 60.5299H70.6193V65.7753H70.0139V60.5299ZM66.5207 61.9434C66.5207 62.2642 66.4447 62.5415 66.2947 62.7772C66.1437 63.013 65.9318 63.1722 65.6607 63.2546C65.8258 63.2934 65.961 63.3538 66.0646 63.4369C66.1689 63.5192 66.252 63.6222 66.3135 63.7461C66.3751 63.8696 66.4164 64.008 66.4376 64.1615C66.4588 64.3142 66.4692 64.478 66.4692 64.653V65.7746H65.8773V64.748C65.8773 64.5438 65.8625 64.3657 65.8322 64.2122C65.8023 64.0596 65.7491 63.9322 65.6735 63.8299C65.5968 63.728 65.4949 63.6511 65.3677 63.6003C65.2396 63.5499 65.0808 63.5238 64.8898 63.5238H64.2013V65.7746H63.5959V60.5299H65.0997C65.3035 60.5299 65.4925 60.5561 65.6671 60.6096C65.841 60.6638 65.9903 60.7461 66.1161 60.858C66.2415 60.9692 66.3397 61.1146 66.4124 61.2946C66.484 61.4742 66.5207 61.6903 66.5207 61.9434ZM65.9153 62.0157C65.9153 61.7246 65.8369 61.4961 65.6799 61.3315C65.5224 61.1661 65.2588 61.083 64.8898 61.083H64.2013V63.0142H64.877C65.0041 63.0142 65.1306 62.9969 65.2554 62.9634C65.3812 62.9292 65.4925 62.873 65.5904 62.7953C65.6876 62.7176 65.7666 62.6146 65.8258 62.4853C65.885 62.3572 65.9153 62.2007 65.9153 62.0157ZM60.0963 63.1522C60.0963 63.5265 60.0472 63.8796 59.95 64.2122C59.8521 64.5446 59.7116 64.8365 59.5266 65.0869C59.3419 65.3372 59.1142 65.5349 58.8448 65.6807C58.5754 65.8261 58.2663 65.8992 57.9179 65.8992C57.5742 65.8992 57.2667 65.8261 56.9973 65.6807C56.7279 65.5349 56.5002 65.3372 56.3152 65.0869C56.1306 64.8365 55.9897 64.5446 55.8918 64.2122C55.7946 63.8796 55.7458 63.5265 55.7458 63.1522C55.7458 62.7784 55.7946 62.4249 55.8918 62.0922C55.9897 61.7599 56.1306 61.4688 56.3152 61.2188C56.5002 60.9684 56.7279 60.7703 56.9973 60.6249C57.2667 60.4784 57.5742 60.4061 57.9179 60.4061C58.2663 60.4061 58.5754 60.4784 58.8448 60.6249C59.1142 60.7703 59.3419 60.9684 59.5266 61.2188C59.7116 61.4688 59.8521 61.7599 59.95 62.0922C60.0472 62.4249 60.0963 62.7784 60.0963 63.1522ZM59.4913 63.1522C59.4913 62.8757 59.4596 62.6072 59.3954 62.3472C59.3322 62.088 59.236 61.8557 59.1062 61.6515C58.9767 61.448 58.8132 61.2846 58.6154 61.1634C58.418 61.0422 58.1856 60.9819 57.9179 60.9819C57.6498 60.9819 57.4177 61.0422 57.22 61.1634C57.0226 61.2846 56.8608 61.448 56.7333 61.6515C56.6055 61.8557 56.5096 62.088 56.4464 62.3472C56.3825 62.6072 56.3509 62.8757 56.3509 63.1522C56.3509 63.4296 56.3825 63.698 56.4464 63.9572C56.5096 64.2176 56.6055 64.4492 56.7333 64.653C56.8608 64.8572 57.0226 65.0199 57.22 65.1411C57.4177 65.263 57.6498 65.3238 57.9179 65.3238C58.1856 65.3238 58.418 65.263 58.6154 65.1411C58.8132 65.0199 58.9767 64.8572 59.1062 64.653C59.236 64.4492 59.3322 64.2176 59.3954 63.9572C59.4596 63.698 59.4913 63.4296 59.4913 63.1522ZM57.7205 60.2019H57.338L58.0965 59.1384H58.7143L57.7205 60.2019ZM51.8887 61.1199V65.7746H51.2836V61.1199H50.7233C50.6214 61.1199 50.54 61.1319 50.4785 61.1561C50.4166 61.1807 50.3691 61.213 50.3379 61.2546C50.3059 61.2965 50.2847 61.3461 50.2736 61.4038C50.2635 61.4626 50.2578 61.523 50.2578 61.5865L49.8374 61.3603C49.8374 61.2538 49.8468 61.1499 49.8667 61.0503C49.8858 60.9511 49.9222 60.8626 49.975 60.7849C50.0278 60.7072 50.1014 60.6449 50.1946 60.5988C50.2881 60.5526 50.4112 60.5299 50.5636 60.5299H53.3286V61.1199H51.8887ZM46.0129 65.7746V63.4296H44.4207V65.7746H43.8156V61.9938C43.8156 61.4699 43.934 61.0742 44.1718 60.8065C44.4096 60.5392 44.7584 60.4061 45.2165 60.4061C45.6796 60.4061 46.0287 60.5419 46.2642 60.8138C46.5006 61.0857 46.6183 61.4788 46.6183 61.9938V65.7746H46.0129ZM46.0129 62.1392C46.0129 61.9749 46.0011 61.8203 45.9783 61.6776C45.9547 61.5338 45.912 61.4092 45.8511 61.3019C45.7896 61.1949 45.7072 61.1111 45.6053 61.0503C45.5034 60.9899 45.3739 60.9592 45.2165 60.9592C45.0594 60.9592 44.9296 60.9899 44.8287 61.0503C44.7258 61.1111 44.6444 61.1949 44.5828 61.3019C44.5213 61.4092 44.4785 61.5338 44.4557 61.6776C44.4318 61.8203 44.4207 61.9749 44.4207 62.1392V62.8757H46.0129V62.1392ZM40.3221 61.9434C40.3221 62.2642 40.2464 62.5415 40.0954 62.7772C39.9454 63.013 39.7335 63.1722 39.4618 63.2546C39.6276 63.2934 39.7628 63.3538 39.8664 63.4369C39.9706 63.5192 40.0534 63.6222 40.1153 63.7461C40.1768 63.8696 40.2178 64.008 40.2394 64.1615C40.2606 64.3142 40.271 64.478 40.271 64.653V65.7746H39.6784V64.748C39.6784 64.5438 39.6639 64.3657 39.634 64.2122C39.604 64.0596 39.5509 63.9322 39.4742 63.8299C39.3985 63.728 39.2966 63.6511 39.1691 63.6003C39.0413 63.5499 38.8826 63.5238 38.6912 63.5238H38.0031V65.7746H37.3977V60.5299H38.9014C39.1052 60.5299 39.2943 60.5561 39.4682 60.6096C39.6427 60.6638 39.792 60.7461 39.9175 60.858C40.0423 60.9692 40.1412 61.1146 40.2138 61.2946C40.2858 61.4742 40.3221 61.6903 40.3221 61.9434ZM39.717 62.0157C39.717 61.7246 39.638 61.4961 39.4816 61.3315C39.3242 61.1661 39.0602 61.083 38.6912 61.083H38.0031V63.0142H38.6788C38.8059 63.0142 38.9324 62.9969 39.0571 62.9634C39.1826 62.9292 39.2943 62.873 39.3915 62.7953C39.4893 62.7176 39.5684 62.6146 39.6276 62.4853C39.6868 62.3572 39.717 62.2007 39.717 62.0157ZM33.8981 63.1522C33.8981 63.5265 33.849 63.8796 33.7518 64.2122C33.6539 64.5446 33.5123 64.8365 33.3283 65.0869C33.1433 65.3372 32.9156 65.5349 32.6462 65.6807C32.3768 65.8261 32.0681 65.8992 31.7196 65.8992C31.3749 65.8992 31.0685 65.8261 30.7991 65.6807C30.5297 65.5349 30.302 65.3372 30.117 65.0869C29.932 64.8365 29.7914 64.5446 29.6935 64.2122C29.5957 63.8796 29.5472 63.5265 29.5472 63.1522C29.5472 62.7784 29.5957 62.4249 29.6935 62.0922C29.7914 61.7599 29.932 61.4688 30.117 61.2188C30.302 60.9684 30.5297 60.7703 30.7991 60.6249C31.0685 60.4784 31.3749 60.4061 31.7196 60.4061C32.0681 60.4061 32.3768 60.4784 32.6462 60.6249C32.9156 60.7703 33.1433 60.9684 33.3283 61.2188C33.5123 61.4688 33.6539 61.7599 33.7518 62.0922C33.849 62.4249 33.8981 62.7784 33.8981 63.1522ZM33.2927 63.1522C33.2927 62.8757 33.2611 62.6072 33.1972 62.3472C33.1339 62.088 33.0367 61.8557 32.9072 61.6515C32.7774 61.448 32.6146 61.2846 32.4172 61.1634C32.2198 61.0422 31.9874 60.9819 31.7196 60.9819C31.4516 60.9819 31.2192 61.0422 31.0217 61.1634C30.8243 61.2846 30.6622 61.448 30.5344 61.6515C30.4069 61.8557 30.3114 62.088 30.2475 62.3472C30.1843 62.6072 30.1526 62.8757 30.1526 63.1522C30.1526 63.4296 30.1843 63.698 30.2475 63.9572C30.3114 64.2176 30.4069 64.4492 30.5344 64.653C30.6622 64.8572 30.8243 65.0199 31.0217 65.1411C31.2192 65.263 31.4516 65.3238 31.7196 65.3238C31.9874 65.3238 32.2198 65.263 32.4172 65.1411C32.6146 65.0199 32.7774 64.8572 32.9072 64.653C33.0367 64.4492 33.1339 64.2176 33.1972 63.9572C33.2611 63.698 33.2927 63.4296 33.2927 63.1522ZM26.162 64.2892C26.162 64.5411 26.1196 64.7599 26.0342 64.9449C25.9498 65.1296 25.8358 65.283 25.6935 65.4069C25.5512 65.5307 25.3878 65.6238 25.2028 65.6842C25.0178 65.7446 24.8261 65.7746 24.627 65.7746H23.2503V60.5299H24.6458C24.8244 60.5299 24.9949 60.5553 25.1587 60.6061C25.3222 60.6572 25.4651 60.7361 25.5886 60.8426C25.7117 60.9503 25.8099 61.0857 25.8815 61.2511C25.9535 61.4165 25.9898 61.6107 25.9898 61.8338C25.9898 61.9796 25.9703 62.1157 25.9299 62.2415C25.8889 62.368 25.8344 62.4811 25.7638 62.5803C25.6935 62.6807 25.6074 62.7638 25.5055 62.8315C25.4036 62.9003 25.2936 62.9492 25.1745 62.978C25.4762 63.0257 25.7157 63.1696 25.8943 63.4072C26.0729 63.6457 26.162 63.9392 26.162 64.2892ZM25.41 61.9507C25.41 61.6542 25.3245 61.4353 25.1523 61.2946C24.9801 61.1534 24.7666 61.083 24.5123 61.083H23.8558V62.8242H24.5123C24.6307 62.8242 24.7454 62.8061 24.856 62.7699C24.9667 62.7338 25.0622 62.6788 25.1429 62.6065C25.2233 62.5334 25.2882 62.4422 25.3373 62.3326C25.3861 62.2234 25.41 62.0961 25.41 61.9507ZM25.5569 64.2376C25.5569 64.073 25.5317 63.9296 25.4803 63.8084C25.4295 63.6865 25.3592 63.5869 25.27 63.5092C25.1809 63.4315 25.0756 63.3738 24.9549 63.3349C24.8338 63.2961 24.7037 63.2761 24.5627 63.2761H23.8558V65.2215H24.5311C24.667 65.2215 24.7975 65.2034 24.9233 65.1665C25.0481 65.1303 25.1577 65.0726 25.2512 64.9919C25.3444 64.9115 25.4187 64.8096 25.4739 64.6857C25.5294 64.5619 25.5569 64.4126 25.5569 64.2376ZM19.0435 65.7746V63.4296H17.4512V65.7746H16.8458V61.9938C16.8458 61.4699 16.9646 61.0742 17.203 60.8065C17.4401 60.5392 17.7886 60.4061 18.2477 60.4061C18.7101 60.4061 19.0599 60.5419 19.2954 60.8138C19.5311 61.0857 19.6489 61.4788 19.6489 61.9938V65.7746H19.0435ZM19.0435 62.1392C19.0435 61.9749 19.0324 61.8203 19.0088 61.6776C18.9859 61.5338 18.9432 61.4092 18.8813 61.3019C18.8198 61.1949 18.7377 61.1111 18.6358 61.0503C18.5346 60.9899 18.4051 60.9592 18.2477 60.9592C18.0906 60.9592 17.9608 60.9899 17.8589 61.0503C17.757 61.1111 17.6749 61.1949 17.6133 61.3019C17.5515 61.4092 17.5098 61.5338 17.4859 61.6776C17.463 61.8203 17.4512 61.9749 17.4512 62.1392V62.8757H19.0435V62.1392ZM13.5881 64.9449C13.5881 65.0519 13.5787 65.1546 13.5595 65.2542C13.5407 65.3534 13.5043 65.4419 13.4515 65.5199C13.3984 65.5976 13.3251 65.6599 13.2316 65.7057C13.1384 65.7519 13.0153 65.7746 12.8619 65.7746H10.4417V60.5299H11.0467V65.1853H12.7032C12.8051 65.1853 12.8865 65.1726 12.948 65.1484C13.0096 65.1238 13.0563 65.0915 13.0879 65.0499C13.1202 65.0092 13.1418 64.9603 13.1518 64.9046C13.1629 64.8484 13.1677 64.7869 13.1677 64.7184L13.5881 64.9449Z" fill="white"/>
<path fill-rule="evenodd" clip-rule="evenodd" d="M207.857 64.3401C207.857 64.622 207.808 64.8605 207.711 65.0574C207.613 65.2547 207.483 65.4143 207.322 65.5382C207.161 65.662 206.977 65.7532 206.771 65.8112C206.565 65.8701 206.353 65.8989 206.137 65.8989C205.925 65.8989 205.704 65.8689 205.478 65.8085C205.25 65.747 205.041 65.6451 204.85 65.502C204.659 65.3585 204.503 65.167 204.382 64.9266C204.261 64.6862 204.2 64.3862 204.2 64.0266H204.805C204.805 64.2697 204.84 64.4774 204.91 64.6501C204.981 64.8216 205.077 64.9616 205.2 65.0685C205.324 65.1751 205.469 65.2528 205.636 65.3016C205.805 65.3505 205.986 65.3747 206.182 65.3747C206.313 65.3747 206.443 65.3566 206.57 65.3197C206.698 65.2835 206.812 65.2266 206.914 65.1489C207.016 65.0712 207.097 64.9701 207.159 64.8462C207.221 64.7224 207.252 64.5732 207.252 64.3989C207.252 64.2089 207.215 64.0574 207.14 63.9435C207.066 63.8285 206.967 63.7355 206.844 63.6624C206.72 63.5893 206.577 63.5305 206.411 63.4843C206.245 63.4382 206.071 63.3878 205.889 63.3343C205.706 63.2812 205.523 63.2243 205.341 63.1635C205.158 63.1032 204.993 63.0228 204.847 62.9232C204.7 62.8239 204.582 62.6928 204.49 62.5301C204.399 62.3666 204.353 62.157 204.353 61.8993C204.353 61.6232 204.402 61.3897 204.499 61.2001C204.598 61.0105 204.724 60.8578 204.879 60.7412C205.033 60.6243 205.21 60.5397 205.407 60.4862C205.605 60.4328 205.806 60.4058 206.009 60.4058C206.243 60.4058 206.461 60.4355 206.665 60.4935C206.869 60.5524 207.048 60.6451 207.201 60.7735C207.353 60.9028 207.477 61.0716 207.57 61.2805C207.663 61.4893 207.717 61.7439 207.73 62.0451H207.15C207.15 61.8416 207.119 61.6689 207.057 61.5282C206.996 61.387 206.913 61.2716 206.809 61.182C206.705 61.0916 206.584 61.0274 206.446 60.9885C206.308 60.9497 206.162 60.9308 206.009 60.9308C205.89 60.9308 205.768 60.9443 205.64 60.9705C205.512 60.9978 205.397 61.0447 205.293 61.1124C205.188 61.1812 205.102 61.2716 205.034 61.3862C204.966 61.5001 204.932 61.6447 204.932 61.8189C204.932 62.0043 204.977 62.1508 205.064 62.2601C205.15 62.3693 205.263 62.4597 205.401 62.5301C205.539 62.5997 205.695 62.6593 205.869 62.7082C206.043 62.757 206.222 62.8078 206.405 62.8608C206.596 62.9197 206.779 62.9801 206.955 63.0435C207.131 63.1066 207.287 63.1897 207.421 63.2947C207.554 63.3993 207.66 63.5339 207.739 63.6993C207.817 63.8639 207.857 64.0782 207.857 64.3401Z" fill="white"/>
</svg>
