<svg width="200" height="50" viewBox="0 0 200 50" fill="none" xmlns="http://www.w3.org/2000/svg">
<path fill-rule="evenodd" clip-rule="evenodd" d="M169.142 29.1644L169.744 30.1177C172.055 31.9646 173.112 33.3862 174.091 34.703C174.865 35.7445 175.601 36.7334 176.653 37.7625L176.175 36.9205C175.39 36.1531 174.82 35.3866 174.22 34.5798C173.024 32.9722 171.734 31.2361 169.142 29.1644ZM178.158 39.1286C179.54 30.4539 173.308 28.7994 167.503 27.6432C170.431 31.6482 167.724 39.5214 178.158 39.1286ZM189.133 23.847L189.263 22.6965C185.372 26.3532 183.726 29.3119 182.201 32.0528C181.274 33.7188 180.394 35.302 179.048 36.9117L178.98 37.9961C180.399 36.2974 181.318 34.6468 182.284 32.9096C183.756 30.264 185.345 27.408 189.133 23.847ZM172.609 17.0792L172.612 17.0688L172.613 17.065L172.614 17.0619C172.636 17.0002 172.658 16.9381 172.682 16.876L172.684 16.8699C172.707 16.8066 172.732 16.743 172.756 16.6788L172.756 16.678L172.76 16.6676C172.783 16.6094 172.807 16.5514 172.83 16.4929L172.841 16.4668C172.864 16.4104 172.887 16.3537 172.912 16.2973L172.918 16.2836L172.925 16.2669L173.003 16.0873L173.006 16.0808C173.065 15.9498 173.125 15.818 173.188 15.6854L173.189 15.6846C173.22 15.6181 173.253 15.5512 173.285 15.4847L173.287 15.4823C173.316 15.4233 173.345 15.3639 173.375 15.3047L173.406 15.2433L173.468 15.1212L173.491 15.0763L173.499 15.061L173.599 14.8706H173.599L173.689 14.7024L173.71 14.6639L173.717 14.6499L173.816 14.47L173.823 14.4555L173.827 14.4483C174.167 13.8324 174.543 13.1968 174.941 12.5357L174.958 12.5081L175.003 12.4335L175.065 12.3308L175.094 12.2827L175.128 12.2278L175.19 12.1241L175.232 12.0552L175.253 12.0199L175.317 11.9157L175.371 11.8251L175.38 11.8111L175.445 11.7057L175.509 11.5999L175.512 11.5935L175.573 11.4937L175.638 11.3871L175.654 11.3594L175.703 11.2798L175.768 11.1723L175.797 11.123L175.833 11.0642L175.899 10.9555L175.942 10.8846L175.965 10.8465L176.031 10.7372L176.087 10.6434L176.097 10.627L176.229 10.4053L176.233 10.3996L176.296 10.2936L176.363 10.1817L176.379 10.154L176.385 10.1445L176.496 9.95565L176.526 9.90517L176.563 9.84188L176.63 9.72777L176.673 9.65443L176.697 9.61315L176.814 9.4112L176.82 9.40028L176.831 9.38186L176.961 9.1567L176.966 9.14818L176.968 9.14391L176.978 9.12583C177.064 8.97675 177.149 8.82597 177.234 8.67416L177.263 8.62248L177.279 8.59451L177.407 8.36441L177.413 8.35247L177.558 8.08945L177.569 8.0683L177.702 7.82148L177.704 7.81858L177.835 7.57211L177.85 7.54448L177.858 7.52964C177.903 7.4435 177.948 7.35702 177.993 7.27003L177.996 7.26406L178.122 7.02032L178.155 6.95618L178.273 6.72182L178.282 6.7034L178.295 6.67935L178.414 6.4385L178.424 6.41804L178.425 6.4165L178.435 6.39518C178.523 6.21642 178.61 6.03579 178.696 5.85294L178.717 5.80808L178.838 5.54694L178.848 5.52561C178.89 5.43351 178.932 5.34123 178.974 5.24793L178.983 5.22831C179.028 5.12972 179.072 5.03079 179.115 4.931C178.95 4.36471 178.799 3.77881 178.667 3.17056C178.639 3.30121 178.61 3.43136 178.58 3.55997L178.576 3.57481C178.548 3.69437 178.52 3.81326 178.49 3.93147L178.478 3.97923C178.45 4.09266 178.421 4.20523 178.391 4.31747L178.382 4.35192C178.351 4.46808 178.319 4.58355 178.287 4.69818L178.28 4.72137C178.246 4.84043 178.212 4.95864 178.177 5.07599L178.174 5.08401L178.17 5.0997C178.136 5.21313 178.101 5.32605 178.066 5.43794L178.057 5.46625C178.023 5.57252 177.989 5.67827 177.954 5.78283L177.937 5.83503C177.901 5.94163 177.865 6.04773 177.828 6.15314L177.822 6.17036C177.783 6.28345 177.743 6.39569 177.703 6.50707L177.7 6.51389C177.617 6.74348 177.531 6.96949 177.443 7.19225L177.443 7.1931C177.4 7.3009 177.357 7.40819 177.313 7.51446L177.305 7.53578C177.262 7.63914 177.22 7.74132 177.176 7.84349L177.169 7.86105C177.124 7.96647 177.079 8.07035 177.034 8.17405L177.033 8.1761L177.029 8.18497C176.891 8.49865 176.75 8.80516 176.606 9.10536L176.596 9.12412C176.255 9.83387 175.9 10.5068 175.542 11.1483L175.539 11.1531L175.385 11.4272L175.384 11.4289L175.241 11.6801L175.22 11.7161C175.125 11.8812 175.03 12.0443 174.935 12.2055L174.921 12.2295L174.912 12.2444L174.911 12.2459C174.457 13.0174 174.01 13.743 173.593 14.4346L172.609 17.0792ZM173.593 14.4346L173.58 14.4568L173.533 14.5337L173.443 14.684L173.44 14.6895L173.415 14.7304L173.357 14.8282L173.302 14.9204L173.299 14.9255L173.185 15.1188L173.168 15.1485L173.159 15.1632L173.044 15.3608L173.036 15.3745L173.018 15.4052L172.911 15.5928L172.91 15.5949L172.908 15.5976L172.901 15.6104C172.865 15.6725 172.831 15.7342 172.796 15.796L172.767 15.8485L172.677 16.0119L172.662 16.0385L172.65 16.0609C172.617 16.1226 172.583 16.1838 172.551 16.2447L172.545 16.256C172.509 16.3225 172.475 16.389 172.44 16.4552L172.424 16.4873C172.39 16.5514 172.358 16.6156 172.326 16.6788L172.323 16.6851L172.316 16.6993C172.286 16.7597 172.256 16.8194 172.227 16.8791L172.218 16.8977L172.21 16.9156C172.181 16.9746 172.153 17.0335 172.126 17.092L172.112 17.122C172.084 17.1829 172.057 17.2434 172.03 17.3035L172.024 17.3171L172.021 17.3236C171.993 17.3872 171.966 17.4502 171.939 17.5131L171.927 17.5424C171.902 17.6016 171.878 17.661 171.854 17.7198L171.847 17.7396C171.821 17.8048 171.796 17.8701 171.772 17.9354L171.771 17.9371C171.747 18.0025 171.723 18.0681 171.701 18.1335L171.695 18.1495C171.674 18.21 171.654 18.2701 171.636 18.3303L171.628 18.3535C171.608 18.4171 171.589 18.4812 171.571 18.5445L171.568 18.5519C171.551 18.6128 171.535 18.6728 171.519 18.7337L171.512 18.7639C171.497 18.8219 171.483 18.8795 171.47 18.9374L171.466 18.9578C171.452 19.0206 171.439 19.0835 171.427 19.1465L171.425 19.1565C171.414 19.2159 171.404 19.2756 171.395 19.3344L171.39 19.3641C171.381 19.4253 171.372 19.4862 171.365 19.5476L171.365 19.5504C171.357 19.6145 171.351 19.6786 171.346 19.7428L171.345 19.7564C171.34 19.8173 171.337 19.8786 171.335 19.94L171.334 19.9545C171.331 20.0189 171.33 20.0831 171.33 20.1467C171.33 21.8607 171.629 23.5741 172.349 25.0084C172.231 25.3354 172.161 25.6645 172.161 26.0131C172.161 26.7749 172.341 27.5358 172.8 28.0659C173.176 28.5012 173.74 28.7821 174.547 28.7821C175.356 28.7821 175.923 28.4995 176.301 28.062C176.897 27.3727 177.13 26.4025 177.13 25.4385C177.13 24.7828 176.738 24.136 176.259 23.3478C175.717 22.4557 175.064 21.3809 174.749 19.9207L174.706 19.7223L174.553 20.4312C174.308 21.5669 173.71 22.5504 173.214 23.3665C173.07 23.6047 172.932 23.8319 172.806 24.0531C172.348 22.6461 172.149 21.1012 172.149 19.5569C172.149 19.4955 172.15 19.4342 172.152 19.373L172.152 19.3612C172.154 19.3 172.156 19.2391 172.16 19.1777V19.1773L172.161 19.1705C172.164 19.1129 172.169 19.0556 172.174 18.9979L172.176 18.975C172.182 18.9198 172.188 18.864 172.194 18.8087L172.196 18.7971L172.197 18.7842C172.204 18.7257 172.212 18.6672 172.221 18.6087L172.222 18.603C172.23 18.5457 172.24 18.4881 172.25 18.4304L172.254 18.4072C172.265 18.3479 172.276 18.2885 172.288 18.2291L172.291 18.2181C172.302 18.1602 172.315 18.1029 172.328 18.0449L172.333 18.0253C172.346 17.9671 172.36 17.9095 172.375 17.8513L172.377 17.8418L172.38 17.8309C172.395 17.7712 172.412 17.7115 172.428 17.6518L172.43 17.647C172.447 17.5844 172.465 17.5223 172.484 17.4594L173.593 14.4346ZM182.605 24.7258C180.027 26.5985 178.137 29.1267 177.696 32.8291C178.524 34.4381 178.876 36.4745 178.543 39.0926C192.738 37.7149 188.207 26.7998 191.84 20.4926C190.335 20.9983 188.81 21.5324 187.346 22.1495C187.444 22.4084 187.501 22.6614 187.501 22.9169C187.501 23.7766 187.268 24.6705 186.674 25.3578L186.674 25.3574C186.248 25.8504 185.637 26.1685 184.795 26.1685C183.977 26.1685 183.406 25.8836 183.024 25.4427C182.844 25.2336 182.706 24.9907 182.605 24.7258ZM184.875 18.3443C184.506 19.4735 183.967 20.3596 183.505 21.1205C183.085 21.813 182.74 22.3805 182.74 22.9169V22.9415V22.9514V22.9662L182.741 22.9858V22.9908L182.741 23.0155V23.0205L182.742 23.0404L182.742 23.0549L182.743 23.0648L182.743 23.0894L182.744 23.1141L182.744 23.1238L182.745 23.1387L182.746 23.1583V23.1634L182.748 23.188L182.749 23.1927L182.75 23.2127L182.751 23.2272L182.751 23.2372L182.753 23.2616L182.755 23.286L182.756 23.2958L182.758 23.3104L182.759 23.3297L182.76 23.335L182.762 23.3594L182.763 23.3641L182.765 23.3838L182.766 23.3983L182.768 23.4083L182.77 23.4324V23.4327L182.773 23.4568L182.775 23.466L182.776 23.4812L182.779 23.5001L182.78 23.5052L182.783 23.5293L182.784 23.5337L182.787 23.5538L182.789 23.5673L182.791 23.5777L182.794 23.6011V23.6018L182.799 23.6255L182.8 23.6347L182.803 23.6495L182.806 23.6679L182.807 23.6732L182.812 23.6973L182.813 23.7012L182.816 23.7208L182.819 23.7345L182.821 23.7445L182.826 23.7674L182.826 23.7682L182.831 23.7918L182.833 23.8001L182.837 23.815L182.841 23.833L182.842 23.8387L182.848 23.8619L182.849 23.866L182.854 23.8852L182.857 23.8984L182.86 23.9084L182.866 23.9308V23.9316L182.872 23.9545L182.875 23.9629L182.879 23.9777L182.884 23.9949L182.885 24.0005L182.892 24.0234L182.893 24.027L182.899 24.0463L182.903 24.0587L182.906 24.0688L182.913 24.0903L182.914 24.0911L182.921 24.1136L182.924 24.1217L182.929 24.136L182.935 24.1529L182.937 24.1585L182.944 24.1805L182.946 24.1837L182.953 24.2025L182.957 24.2146L182.961 24.2245L182.969 24.2455V24.2462L182.978 24.2683L182.981 24.2758L182.987 24.2898L182.994 24.3059L182.996 24.3115L183.006 24.3328L183.007 24.3361L183.015 24.354L183.02 24.3661L183.024 24.3753L183.034 24.3952L183.034 24.3964L183.044 24.4178C183.13 24.5957 183.235 24.7608 183.363 24.9087C183.733 25.3363 184.288 25.6128 185.082 25.6128C185.851 25.6128 186.368 25.3699 186.693 24.9939V24.9936C187.012 24.6245 187.137 24.0074 187.137 23.3566C187.137 23.0344 187.032 22.7069 186.864 22.3568L186.857 22.3419L186.854 22.3363L186.85 22.3267L186.842 22.3116L186.839 22.3051L186.834 22.2967L186.827 22.281L186.823 22.273L186.819 22.2659L186.812 22.2505L186.807 22.2413L186.804 22.2353L186.796 22.2201L186.79 22.2092L186.788 22.205L186.78 22.1893L186.774 22.1772L186.772 22.1741L186.764 22.1584L186.757 22.1447L186.755 22.1432L186.747 22.1275L186.739 22.1123V22.1118L186.73 22.0963L186.722 22.0806L186.722 22.0799L186.714 22.0651L186.705 22.0494L186.704 22.047L186.696 22.0337L186.688 22.0182L186.686 22.0141L186.679 22.0021L186.67 21.9865L186.667 21.9813L186.661 21.9704L186.652 21.9549L186.649 21.9481L186.643 21.9389L186.634 21.9228L186.63 21.9148L186.625 21.9071L186.616 21.8908L186.61 21.8816L186.607 21.8747L186.598 21.8587L186.591 21.8478L186.588 21.8427L186.579 21.8266L186.572 21.8138L186.569 21.8101L186.56 21.7941L186.552 21.7801L186.55 21.7777L186.541 21.7613L186.532 21.7456L186.531 21.7449L186.521 21.7284L186.512 21.712V21.7117L186.502 21.6955L186.492 21.6791L186.491 21.677L186.482 21.6627L186.472 21.6458L186.471 21.6426L186.463 21.6295L186.452 21.6126L186.45 21.6075L186.442 21.5959L186.432 21.579L186.429 21.5725L186.422 21.5621L186.412 21.5452L186.407 21.5373L186.402 21.5285L186.392 21.5116L186.386 21.502L186.382 21.4944L186.371 21.4776L186.365 21.4664L186.361 21.4602L186.35 21.4435L186.343 21.4307L186.34 21.4263L186.33 21.4091L186.321 21.3946L186.319 21.3918L186.308 21.3741L186.299 21.3586L186.298 21.3569L186.288 21.3397L186.277 21.3221C185.792 20.5242 185.22 19.5809 184.875 18.3443ZM174.646 20.2176C174.051 22.9718 172.265 24.3483 172.265 25.7257C172.265 27.1027 172.86 28.4795 174.646 28.4795C176.431 28.4795 177.026 27.1027 177.026 25.7257C177.026 24.3483 175.241 22.9718 174.646 20.2176ZM172.869 24.2393C172.664 24.5829 172.498 24.8861 172.419 25.1454C173.039 26.3229 173.952 27.3011 175.228 27.9189C174.126 26.9407 173.361 25.6651 172.869 24.2393ZM184.682 19.0339C184.649 19.1883 184.611 19.3365 184.569 19.4799C185.293 21.1333 186.333 22.1587 186.333 23.1847C186.333 23.9929 186.118 24.8015 185.554 25.3025C186.278 24.9518 186.541 24.1428 186.541 23.3341C186.541 22.259 185.147 21.1838 184.682 19.0339ZM178.978 50C171.374 50 164.714 46.3878 161.023 40.978C164.609 45.1724 170.262 47.879 176.621 47.879C187.458 47.879 196.247 40.0194 196.247 30.3277C196.247 23.5866 191.994 17.7328 185.758 14.7925C186.975 16.8948 187.845 18.7545 187.845 20.6144C187.845 20.9137 187.837 21.2131 187.822 21.5116L187.812 21.5157L187.802 21.5199L187.792 21.524H187.792L187.782 21.528L187.772 21.5324L187.762 21.5365L187.752 21.5404L187.742 21.5449L187.732 21.5489L187.722 21.5532L187.712 21.5573L187.702 21.5617L187.692 21.5657L187.682 21.5701L187.672 21.5742L187.662 21.5781L187.652 21.5825L187.642 21.5865L187.632 21.5909L187.622 21.5953L187.612 21.5994L187.608 21.6013L187.602 21.6034L187.592 21.6078L187.582 21.6117L187.572 21.6161L187.562 21.6202L187.552 21.6247L187.542 21.6286L187.532 21.633L187.523 21.637L187.512 21.6414L187.503 21.6458L187.492 21.6499L187.483 21.6544L187.473 21.6583L187.463 21.6627L187.453 21.6672L187.424 21.6791L187.423 21.6799L187.413 21.6839L187.393 21.6924L187.383 21.6968L187.373 21.7011L187.364 21.7052L187.353 21.7096L187.343 21.7141L187.334 21.718L187.324 21.7224L187.314 21.7268L187.304 21.7313L187.294 21.7352L187.284 21.7396L187.274 21.7441L187.264 21.748L187.254 21.7524L187.234 21.7613L187.225 21.7652L187.215 21.7697L187.205 21.7741L187.195 21.7785L187.185 21.7825L187.18 21.7732L187.178 21.7681L187.17 21.7536L187.164 21.7405L187.163 21.7393L187.156 21.7245L187.149 21.71L187.147 21.7072L187.141 21.6951L187.134 21.6808L187.13 21.674L187.126 21.666L187.118 21.6511L187.113 21.6407L187.11 21.6366L187.102 21.6218L187.095 21.6075V21.6069L187.087 21.5921L187.079 21.5773L187.077 21.5742L187.071 21.5626L187.063 21.5478L187.059 21.5404L187.055 21.5329L187.046 21.5181L187.04 21.5068L187.038 21.5027L187.03 21.4881L187.022 21.4732L187.021 21.4727L187.013 21.4579L187.005 21.443L187.002 21.4388L186.996 21.4278L186.988 21.4127L186.983 21.4046L186.979 21.3975L186.97 21.3826L186.963 21.3702L186.962 21.3673L186.953 21.3521L186.944 21.3369L186.943 21.3357L186.935 21.3212L186.927 21.3061L186.924 21.3013L186.918 21.2909L186.909 21.2752L186.903 21.2663L186.9 21.26L186.891 21.2446L186.883 21.2315L186.882 21.2291L186.872 21.2134L186.863 21.1983L186.862 21.1962L186.854 21.1826L186.845 21.167L186.841 21.1609L186.836 21.1513L186.826 21.1357L186.82 21.1258L186.817 21.1201L186.807 21.1041L186.799 21.0901L186.798 21.0884L186.788 21.0724L186.779 21.0569L186.778 21.0545L186.769 21.0408L186.76 21.0251L186.756 21.0183L186.75 21.0091L186.741 20.9931L186.734 20.9823L186.731 20.977L186.721 20.961L186.712 20.9458L186.712 20.945L186.702 20.9286L186.692 20.9125L186.69 20.9093L186.682 20.8965L186.672 20.8801L186.668 20.8725L186.645 20.8356L186.642 20.8312L186.633 20.8148L186.623 20.7983C186.083 19.9094 185.433 18.8391 185.118 17.3841L184.985 16.767L184.762 17.7956L184.752 17.843L184.749 17.8593L184.742 17.8899L184.734 17.9223L184.731 17.9366L184.72 17.9828L184.719 17.9847L184.708 18.0289L184.704 18.0468L184.697 18.075L184.688 18.1082L184.685 18.1201L184.673 18.1655L184.672 18.1691L184.66 18.2104L184.655 18.23L184.648 18.2552L184.638 18.2902L184.636 18.2998L184.623 18.3438L184.621 18.3494L184.609 18.3879L184.603 18.4084L184.596 18.4316L184.583 18.4749L184.569 18.5177L184.566 18.5254L184.555 18.5611L184.548 18.5831L184.541 18.6035L184.529 18.6404L184.527 18.646L184.512 18.6881L184.509 18.6968L184.497 18.7298L184.489 18.753L184.482 18.7714L184.469 18.8087L184.468 18.8127L184.452 18.8539L184.449 18.8643L184.437 18.8949L184.428 18.9193L184.421 18.9353L184.407 18.9739L184.406 18.9757L184.39 19.0158L184.385 19.0279L184.374 19.0556L184.364 19.0811L184.358 19.0956L184.342 19.1345V19.1349L184.325 19.1741L184.32 19.1874L184.309 19.213L184.298 19.2399L184.293 19.2519L184.276 19.2904L184.275 19.2916L184.259 19.3285L184.252 19.3433L184.242 19.3665L184.229 19.3941L184.225 19.4042L184.208 19.4419L184.196 19.4671L184.191 19.4796L184.183 19.4951L184.173 19.5168L184.169 19.5248L184.155 19.5536L184.138 19.5905L184.12 19.627L184.112 19.6439L184.103 19.6631L184.088 19.6926L184.085 19.6995L184.067 19.7351L184.064 19.7412L184.049 19.7708L184.04 19.7893L184.031 19.8066L184.016 19.8369L184.013 19.8417L183.995 19.877L183.991 19.8842L183.977 19.9118L183.967 19.9311L183.958 19.9463L183.942 19.9777L183.94 19.9809L183.922 20.0154L183.917 20.0237L183.903 20.0493L183.892 20.0698L183.885 20.0834L183.848 20.1508L183.843 20.1603L183.83 20.184L183.818 20.2052L183.811 20.2173L183.793 20.2497L183.793 20.2501L183.774 20.283L183.768 20.2942L183.755 20.3159L183.748 20.3294L183.743 20.3379L183.741 20.3406L183.735 20.3515L183.729 20.3626L183.697 20.4176L183.693 20.4249L183.691 20.4285L183.684 20.4392L183.678 20.4501L183.615 20.5579L183.609 20.5683L183.603 20.5791L183.596 20.5895L183.593 20.5948L183.59 20.6004L183.577 20.6216L183.571 20.632L183.546 20.6741L183.544 20.6782L183.54 20.6845L183.533 20.6949L183.527 20.7053L183.521 20.7157L183.519 20.719L183.515 20.7261L183.509 20.7362L183.503 20.7466L183.496 20.757L183.494 20.7599L183.49 20.7674L183.484 20.7775L183.478 20.7879L183.471 20.7983L183.47 20.8007L183.465 20.8083L183.459 20.8187L183.453 20.8288L183.447 20.8392L183.446 20.8407L183.441 20.8493L183.435 20.8592L183.428 20.8696L183.422 20.8796L183.422 20.8808L183.416 20.8897L183.41 20.8998L183.404 20.9096L183.398 20.9197L183.397 20.9209L183.392 20.9298L183.386 20.9402L183.38 20.9497L183.373 20.9598V20.9607L183.367 20.9699L183.361 20.9799L183.356 20.9898L183.349 20.9999C182.814 21.8807 182.376 22.6032 182.376 23.3566V23.3739V23.3911V23.393V23.4087L182.376 23.4259V23.4291L182.377 23.4431L182.377 23.4604V23.4656L182.377 23.4776L182.378 23.4948V23.5016L182.378 23.512L182.379 23.5293L182.379 23.5378L182.379 23.5465L182.38 23.5637L182.381 23.5741L182.381 23.5815L182.382 23.5982L182.382 23.6103V23.6154L182.384 23.6331L182.385 23.6463V23.6499L182.386 23.6671L182.387 23.6824V23.6843L182.388 23.7015L182.389 23.7184L182.39 23.7188L182.391 23.7362L182.392 23.7532V23.7546L182.394 23.7701L182.395 23.7873L182.396 23.7902L182.397 23.8046L182.399 23.8214L182.399 23.8262L182.401 23.8387L182.402 23.8556L182.403 23.8619L182.404 23.8728L182.406 23.8895L182.407 23.8975L182.408 23.9067L182.41 23.9236L182.411 23.9332L182.413 23.9405L182.415 23.9577L182.416 23.9688L182.417 23.9744L182.419 23.9913L182.421 24.0041L182.422 24.0082L182.425 24.0249L182.427 24.0398L182.427 24.0418L182.43 24.0587L182.432 24.0747V24.0754L182.435 24.0923L182.438 24.1092V24.1099L182.441 24.1256L182.444 24.1425L182.445 24.1452L182.447 24.1588L182.45 24.1757L182.451 24.1802L182.454 24.1921L182.457 24.209L182.458 24.2146L182.46 24.2254L182.464 24.2417L182.466 24.2494L182.468 24.2583L182.471 24.2747L182.473 24.2839L182.475 24.2915L182.478 24.3076L182.481 24.3183L182.482 24.3239L182.486 24.3403L182.489 24.3524L182.49 24.3569L182.494 24.3729L182.498 24.3865L182.498 24.3889L182.503 24.4053L182.507 24.4205V24.4213L182.511 24.4374L182.488 24.4555L182.394 24.5274L182.371 24.546L182.364 24.5508L182.348 24.5639L182.255 24.6373L182.232 24.6554L182.209 24.6741L182.186 24.6922L182.163 24.7111L182.095 24.7664L182.095 24.7667L182.072 24.7852L182.07 24.7872L182.049 24.8041L182.027 24.8229L182.004 24.8416L181.981 24.8606L181.959 24.8793L181.955 24.8834L181.904 24.9254L181.802 25.0129L181.781 25.0304L181.78 25.032L181.758 25.0513L181.67 25.1287L181.648 25.1478L181.64 25.1551L181.626 25.1674L181.518 25.2657L181.501 25.2808L181.496 25.2858L181.372 25.4011L181.367 25.4052L181.363 25.4088L181.346 25.4251L181.24 25.5261L181.227 25.5382L181.219 25.5466C181.177 25.5875 181.135 25.6283 181.094 25.6696C181.048 25.7144 181.003 25.7601 180.959 25.8055L180.948 25.8168L180.943 25.8219C180.899 25.8676 180.854 25.9133 180.811 25.9594L180.796 25.9746C180.754 26.0186 180.713 26.0627 180.672 26.1073L180.654 26.126C180.614 26.1693 180.575 26.2127 180.535 26.2567L180.524 26.2688L180.502 26.294L180.404 26.4046L180.388 26.4233L180.376 26.437L180.269 26.5617L180.253 26.5797L180.252 26.5816L180.245 26.5893C180.207 26.6353 180.168 26.6814 180.13 26.728L180.122 26.738L180.117 26.744C180.079 26.7904 180.041 26.8373 180.003 26.8842L179.978 26.9168L179.881 27.0404L179.852 27.0781L179.758 27.2023L179.725 27.2468L179.642 27.3599L179.608 27.406C179.579 27.4476 179.549 27.4889 179.52 27.531L179.479 27.5892C179.453 27.6281 179.426 27.6668 179.399 27.7062L179.359 27.7654L179.3 27.8553L179.243 27.9421L179.175 28.0504L179.14 28.106L179.074 28.2131L179.025 28.2948L178.97 28.3874L178.933 28.4511L178.885 28.5345L178.876 28.5529L178.809 28.6731L178.775 28.7344L178.715 28.8469L178.679 28.9147L178.62 29.0298L178.612 29.045L178.569 29.132L178.526 29.2193L178.484 29.3066L178.484 29.3075C178.429 29.424 178.375 29.5424 178.323 29.6618L178.322 29.6633C178.299 29.7167 178.277 29.7699 178.254 29.8236L178.239 29.8605C178.217 29.913 178.195 29.9659 178.174 30.0188L178.167 30.0363C178.145 30.0942 178.122 30.1521 178.1 30.2103L178.099 30.2127C178.017 30.4292 177.941 30.6495 177.871 30.8743C177.151 30.8099 176.489 30.6796 175.882 30.4921C175.701 30.3282 175.514 30.1711 175.32 30.02C174.541 29.4136 173.644 28.9348 172.678 28.5425C170.768 26.5593 170.026 23.5871 170.026 20.6144C170.026 18.6505 170.997 16.686 172.322 14.4367C165.349 14.7957 159.798 20.8849 159.798 28.3409C159.798 36.0281 165.698 42.2623 172.974 42.2623C176.114 42.2623 178.998 41.0998 181.262 39.1606C178.479 42.2046 174.577 44.0985 170.256 44.0985C161.807 44.0985 154.955 36.8584 154.955 27.9305C154.955 19.003 161.807 11.763 170.256 11.763C171.436 11.763 172.584 11.9041 173.687 12.1714C175.626 8.96396 177.83 5.11727 178.936 4.01815e-07C180.153 5.63256 182.7 9.72658 184.761 13.1219C193.558 15.3689 200 22.6133 200 31.2005C200 41.5815 190.586 50 178.978 50Z" fill="white"/>
<path fill-rule="evenodd" clip-rule="evenodd" d="M149.096 32.2626C149.096 33.267 148.897 34.1029 148.5 34.7724C148.103 35.4416 147.58 35.9824 146.932 36.3957C146.284 36.8083 145.563 37.1037 144.769 37.2824C143.975 37.4608 143.17 37.5498 142.355 37.5498C141.33 37.5498 140.385 37.4331 139.517 37.1988C138.649 36.9644 137.902 36.5962 137.275 36.0944C136.648 35.5921 136.152 34.9452 135.786 34.1537C135.42 33.3613 135.238 32.4188 135.238 31.326H137.839C137.86 32.7983 138.284 33.8801 139.109 34.5716C139.935 35.2631 141.048 35.609 142.448 35.609C142.888 35.609 143.348 35.5537 143.828 35.4416C144.309 35.3301 144.743 35.1572 145.129 34.9229C145.516 34.6885 145.84 34.3819 146.101 34.0029C146.363 33.6234 146.493 33.1547 146.493 32.597C146.493 32.0175 146.378 31.5488 146.148 31.1916C145.918 30.8349 145.595 30.5393 145.176 30.3049C144.758 30.0706 144.257 29.8754 143.671 29.7193C143.086 29.5634 142.438 29.4072 141.728 29.2506C140.87 29.0501 140.081 28.838 139.36 28.6152C138.639 28.3921 138.012 28.0965 137.479 27.7283C136.946 27.3603 136.528 26.897 136.225 26.3398C135.922 25.7819 135.77 25.079 135.77 24.2313C135.77 23.5175 135.922 22.8706 136.225 22.2906C136.528 21.7103 136.956 21.2085 137.511 20.7844C138.064 20.3603 138.728 20.0375 139.501 19.8139C140.275 19.5911 141.132 19.4795 142.073 19.4795C142.95 19.4795 143.786 19.5742 144.581 19.7639C145.375 19.9537 146.07 20.2657 146.666 20.7008C147.261 21.1357 147.737 21.7049 148.092 22.4072C148.448 23.1103 148.636 23.9634 148.656 24.9675H146.148C146.148 23.6737 145.762 22.7308 144.988 22.1398C144.215 21.5483 143.264 21.2531 142.135 21.2531C141.34 21.2531 140.698 21.3647 140.207 21.5875C139.716 21.8108 139.339 22.0729 139.078 22.3742C138.817 22.6754 138.639 22.9821 138.545 23.2942C138.451 23.6067 138.404 23.8634 138.404 24.0639C138.404 24.7331 138.629 25.2634 139.078 25.6537C139.528 26.0439 140.065 26.356 140.692 26.5903C141.32 26.8247 141.978 27.0144 142.668 27.159C143.358 27.3042 143.943 27.4439 144.424 27.5778C145.009 27.756 145.579 27.9513 146.132 28.1634C146.687 28.3754 147.183 28.6542 147.622 29.0001C148.061 29.3457 148.416 29.7808 148.688 30.3049C148.96 30.8295 149.096 31.4819 149.096 32.2626ZM134.558 30.8572C134.454 31.9054 134.197 32.8426 133.79 33.668C133.382 34.4934 132.865 35.1965 132.238 35.7711C131.611 36.3452 130.879 36.786 130.043 37.0926C129.207 37.3993 128.308 37.5498 127.346 37.5498C126.155 37.5498 125.079 37.3211 124.118 36.8637C123.156 36.4065 122.346 35.7819 121.682 34.9898C121.018 34.1983 120.506 33.267 120.146 32.1957C119.785 31.1247 119.602 29.976 119.602 28.7488C119.602 27.4549 119.78 26.2447 120.13 25.1183C120.48 23.9916 120.992 23.0098 121.666 22.1729C122.341 21.337 123.172 20.6785 124.164 20.199C125.157 19.7195 126.291 19.4795 127.566 19.4795C128.465 19.4795 129.317 19.6134 130.122 19.8808C130.926 20.149 131.642 20.5447 132.269 21.0634C132.896 21.5875 133.408 22.229 133.806 22.9875C134.202 23.7406 134.454 24.6103 134.558 25.5921L122.393 30.3331C122.476 31.0247 122.649 31.6657 122.91 32.268C123.172 32.8706 123.506 33.4006 123.913 33.8578C124.321 34.3095 124.812 34.6662 125.387 34.9229C125.962 35.1795 126.626 35.3078 127.378 35.3078C128.005 35.3078 128.585 35.2019 129.118 34.9898C129.651 34.7778 130.122 34.477 130.529 34.0862C130.937 33.6957 131.261 33.2278 131.501 32.6808C131.742 32.1344 131.893 31.5265 131.955 30.8572H134.558ZM131.736 24.8839C131.464 23.8857 130.968 23.1103 130.247 22.5526C129.526 22.0001 128.653 21.7211 127.629 21.7211C126.73 21.7211 125.951 21.8947 125.293 22.2406C124.634 22.5803 124.091 23.0434 123.663 23.6175C123.234 24.1978 122.91 24.867 122.691 25.6367C122.471 26.4006 122.351 27.2042 122.33 28.0465V28.5144L131.736 24.8839ZM118.86 32.2626C118.86 33.267 118.662 34.1029 118.265 34.7724C117.868 35.4416 117.345 35.9824 116.697 36.3957C116.049 36.8083 115.328 37.1037 114.534 37.2824C113.739 37.4608 112.935 37.5498 112.119 37.5498C111.095 37.5498 110.149 37.4331 109.282 37.1988C108.414 36.9644 107.667 36.5962 107.04 36.0944C106.413 35.5921 105.917 34.9452 105.551 34.1537C105.185 33.3613 105.002 32.4188 105.002 31.326H107.605C107.625 32.7983 108.049 33.8801 108.874 34.5716C109.7 35.2631 110.813 35.609 112.214 35.609C112.653 35.609 113.112 35.5537 113.593 35.4416C114.074 35.3301 114.507 35.1572 114.894 34.9229C115.281 34.6885 115.605 34.3819 115.866 34.0029C116.128 33.6234 116.258 33.1547 116.258 32.597C116.258 32.0175 116.143 31.5488 115.913 31.1916C115.683 30.8349 115.359 30.5393 114.941 30.3049C114.523 30.0706 114.021 29.8754 113.436 29.7193C112.851 29.5634 112.203 29.4072 111.492 29.2506C110.635 29.0501 109.846 28.838 109.125 28.6152C108.404 28.3921 107.777 28.0965 107.244 27.7283C106.711 27.3603 106.293 26.897 105.99 26.3398C105.687 25.7819 105.535 25.079 105.535 24.2313C105.535 23.5175 105.687 22.8706 105.99 22.2906C106.293 21.7103 106.721 21.2085 107.275 20.7844C107.829 20.3603 108.493 20.0375 109.266 19.8139C110.039 19.5911 110.897 19.4795 111.837 19.4795C112.715 19.4795 113.551 19.5742 114.345 19.7639C115.14 19.9537 115.835 20.2657 116.43 20.7008C117.026 21.1357 117.501 21.7049 117.857 22.4072C118.212 23.1103 118.401 23.9634 118.422 24.9675H115.913C115.913 23.6737 115.527 22.7308 114.753 22.1398C113.98 21.5483 113.028 21.2531 111.9 21.2531C111.106 21.2531 110.463 21.3647 109.972 21.5875C109.481 21.8108 109.104 22.0729 108.843 22.3742C108.582 22.6754 108.404 22.9821 108.31 23.2942C108.216 23.6067 108.169 23.8634 108.169 24.0639C108.169 24.7331 108.394 25.2634 108.843 25.6537C109.293 26.0439 109.831 26.356 110.458 26.5903C111.085 26.8247 111.743 27.0144 112.433 27.159C113.123 27.3042 113.708 27.4439 114.189 27.5778C114.774 27.756 115.344 27.9513 115.897 28.1634C116.451 28.3754 116.948 28.6542 117.387 29.0001C117.826 29.3457 118.181 29.7808 118.453 30.3049C118.724 30.8295 118.86 31.4819 118.86 32.2626ZM104.354 14.2924C104.354 14.828 104.155 15.2629 103.759 15.5978C103.361 15.9321 102.922 16.0996 102.442 16.0996C101.961 16.0996 101.527 15.9321 101.14 15.5978C100.754 15.2629 100.561 14.828 100.561 14.2924C100.561 13.7567 100.754 13.3219 101.14 12.9875C101.527 12.6526 101.961 12.4857 102.442 12.4857C102.922 12.4857 103.361 12.6526 103.759 12.9875C104.155 13.3219 104.354 13.7567 104.354 14.2924ZM101.094 19.8808H103.821V37.148H101.094V19.8808ZM96.1187 13.0544H98.8466V37.148H96.1187V13.0544ZM84.7164 18.208H82.8039L86.5667 13.3219H89.6077L84.7164 18.208ZM91.144 37.148V34.7724C90.5797 35.6649 89.8323 36.3506 88.9021 36.8306C87.9721 37.3101 86.9115 37.5498 85.7201 37.5498C84.5494 37.5498 83.4833 37.327 82.5216 36.8806C81.5604 36.4344 80.7397 35.8157 80.0606 35.0234C79.3812 34.2313 78.8584 33.3001 78.4928 32.2288C78.1271 31.1585 77.9441 29.9983 77.9441 28.7488C77.9441 27.4549 78.1218 26.2447 78.4769 25.1183C78.8325 23.9916 79.3552 23.0098 80.045 22.1729C80.7347 21.337 81.576 20.6785 82.5689 20.199C83.5616 19.7195 84.6854 19.4795 85.9395 19.4795C87.0052 19.4795 87.993 19.6911 88.9021 20.1152C89.8114 20.5393 90.5588 21.1639 91.144 21.9893V19.8808H93.8719V37.148H91.144ZM91.144 25.6537C91.144 25.096 90.998 24.5719 90.7049 24.0862C90.4125 23.5952 90.036 23.1826 89.5767 22.8367C89.1166 22.4911 88.6042 22.2237 88.0399 22.0224C87.4758 21.8219 86.9324 21.7211 86.4096 21.7211C85.3437 21.7211 84.4449 21.9224 83.7129 22.3183C82.9814 22.7201 82.3911 23.2495 81.9419 23.9024C81.4926 24.5549 81.1686 25.308 80.9699 26.1501C80.7712 26.9921 80.672 27.8621 80.672 28.7488C80.672 29.6801 80.7871 30.5447 81.0167 31.3483C81.2466 32.1457 81.5863 32.8372 82.0361 33.4283C82.4853 34.0139 83.0549 34.477 83.7446 34.806C84.4344 35.1403 85.2493 35.3078 86.1903 35.3078C86.8173 35.3078 87.4234 35.2072 88.0087 35.0067C88.5939 34.806 89.1217 34.5157 89.5918 34.1252C90.062 33.7349 90.4384 33.2724 90.7207 32.7252C91.003 32.1844 91.144 31.5657 91.144 30.8795V25.6537ZM73.5337 37.148V26.6742C73.5337 25.9826 73.4554 25.3411 73.2985 24.7501C73.1421 24.159 72.9017 23.6513 72.5778 23.2272C72.2537 22.8037 71.8405 22.4688 71.3387 22.2237C70.8375 21.9778 70.2415 21.8554 69.552 21.8554C68.7787 21.8554 68.1048 22.0116 67.5297 22.3237C66.955 22.6362 66.4791 23.0603 66.1034 23.5952C65.7269 24.1308 65.4446 24.7447 65.2568 25.4362C65.0682 26.1278 64.9745 26.8524 64.9745 27.6108V37.148H62.2468V19.8808H64.9745L64.9795 23.2608C65.4605 21.967 66.187 21.0134 67.1482 20.3995C68.1149 19.7862 69.2539 19.4795 70.5764 19.4795C72.3321 19.4795 73.7218 20.026 74.7354 21.1193C75.7548 22.2121 76.2617 23.6844 76.2617 25.5362V37.148H73.5337ZM57.2719 37.148H59.9998V19.8808H57.2719V21.9893C56.6867 21.1639 55.9393 20.5393 55.0302 20.1152C54.1209 19.6911 53.1331 19.4795 52.0669 19.4795C50.8128 19.4795 49.6897 19.7195 48.6968 20.199C47.7041 20.6785 46.8626 21.337 46.1729 22.1729C45.4831 23.0098 44.9604 23.9916 44.6055 25.1183C44.2497 26.2447 44.0722 27.4549 44.0722 28.7488C44.0722 29.9983 44.255 31.1585 44.6207 32.2288C44.9865 33.3001 45.5091 34.2313 46.1887 35.0234C46.8676 35.8157 47.6883 36.4344 48.65 36.8806C49.6112 37.327 50.6773 37.5498 51.848 37.5498C53.0394 37.5498 54.1 37.3101 55.0302 36.8306C55.9602 36.3506 56.7076 35.6649 57.2719 34.7724V37.148ZM57.2719 25.6537C57.2719 25.096 57.1259 24.5719 56.833 24.0862C56.5404 23.5952 56.1639 23.1826 55.7041 22.8367C55.2445 22.4911 54.7321 22.2237 54.1678 22.0224C53.6032 21.8219 53.0603 21.7211 52.5378 21.7211C51.4716 21.7211 50.5728 21.9224 49.8408 22.3183C49.1095 22.7201 48.519 23.2495 48.0698 23.9024C47.6201 24.5549 47.2967 25.308 47.0978 26.1501C46.8993 26.9921 46.7999 27.8621 46.7999 28.7488C46.7999 29.6801 46.9149 30.5447 47.1446 31.3483C47.3745 32.1457 47.7142 32.8372 48.1635 33.4283C48.6134 34.0139 49.1828 34.477 49.8725 34.806C50.5623 35.1403 51.3772 35.3078 52.3182 35.3078C52.9452 35.3078 53.5513 35.2072 54.1368 35.0067C54.722 34.806 55.2496 34.5157 55.7197 34.1252C56.1899 33.7349 56.5663 33.2724 56.8486 32.7252C57.1309 32.1844 57.2719 31.5657 57.2719 30.8795V25.6537ZM45.0858 21.8554C44.3124 21.8554 43.6386 22.0116 43.0634 22.3237C42.4888 22.6362 42.0131 23.0603 41.6366 23.5952C41.2607 24.1308 40.9786 24.7447 40.7905 25.4362C40.6022 26.1278 40.5085 26.8524 40.5085 27.6108V37.148H37.7806V19.8808H40.5085V23.2608C40.9892 21.967 41.7099 21.0134 42.6718 20.3995C43.633 19.7862 44.7725 19.4795 46.0892 19.4795H46.4652C46.5911 19.4795 46.7057 19.4906 46.81 19.5129L45.0858 21.8554ZM35.5021 21.8554C34.7288 21.8554 34.0549 22.0116 33.4798 22.3237C32.9051 22.6362 32.4295 23.0603 32.0535 23.5952C31.677 24.1308 31.3947 24.7447 31.2069 25.4362C31.019 26.1278 30.9246 26.8524 30.9246 27.6108V37.148H28.1969V19.8808H30.9246V23.2608C31.4056 21.967 32.1263 21.0134 33.088 20.3995C34.0499 19.7862 35.1889 19.4795 36.5056 19.4795H36.8821C37.0075 19.4795 37.1221 19.4906 37.2268 19.5129L35.5021 21.8554ZM26.4518 30.8572H23.8493C23.7866 31.5265 23.6348 32.1344 23.3943 32.6808C23.1543 33.2278 22.8305 33.6957 22.4223 34.0862C22.0148 34.477 21.5447 34.7778 21.0118 34.9898C20.4785 35.2019 19.8988 35.3078 19.2718 35.3078C18.5189 35.3078 17.8558 35.1795 17.2807 34.9229C16.706 34.6662 16.2145 34.3095 15.807 33.8578C15.3994 33.4006 15.0654 32.8706 14.804 32.268C14.5427 31.6657 14.3699 31.0247 14.2863 30.3331L26.4518 25.5921C26.3473 24.6103 26.0963 23.7406 25.6989 22.9875C25.302 22.229 24.7901 21.5875 24.1623 21.0634C23.5353 20.5447 22.8196 20.149 22.0148 19.8808C21.21 19.6134 20.3584 19.4795 19.4599 19.4795C18.1847 19.4795 17.051 19.7195 16.0581 20.199C15.0654 20.6785 14.2339 21.337 13.5601 22.1729C12.886 23.0098 12.3735 23.9916 12.0238 25.1183C11.6737 26.2447 11.4959 27.4549 11.4959 28.7488C11.4959 29.976 11.6788 31.1247 12.0394 32.1957C12.4002 33.267 12.9122 34.1983 13.5757 34.9898C14.2395 35.7819 15.0496 36.4065 16.0108 36.8637C16.9725 37.3211 18.0487 37.5498 19.2403 37.5498C20.202 37.5498 21.1005 37.3993 21.9365 37.0926C22.7728 36.786 23.5043 36.3452 24.1314 35.7711C24.7586 35.1965 25.2761 34.4934 25.6835 33.668C26.091 32.8426 26.3473 31.9054 26.4518 30.8572ZM23.6297 24.8839C23.3583 23.8857 22.8614 23.1103 22.1407 22.5526C21.4195 22.0001 20.5467 21.7211 19.5224 21.7211C18.6239 21.7211 17.845 21.8947 17.1863 22.2406C16.5283 22.5803 15.9846 23.0434 15.5562 23.6175C15.1279 24.1978 14.804 24.867 14.5845 25.6367C14.3649 26.4006 14.2445 27.2042 14.2236 28.0465V28.5144L23.6297 24.8839ZM10.0956 15.7652V37.148H7.11661V15.7652H4.35795C3.85609 15.7652 3.45369 15.8206 3.15051 15.9321C2.84756 16.0437 2.61765 16.1942 2.46077 16.3839C2.30461 16.5737 2.19964 16.8026 2.14751 17.0701C2.09514 17.3375 2.06918 17.6165 2.06918 17.9067L0 16.8695C0 16.3785 0.0468407 15.9044 0.141015 15.4472C0.234948 14.9893 0.41249 14.5826 0.67387 14.2254C0.935251 13.8688 1.29585 13.5839 1.75543 13.3726C2.21525 13.1606 2.82161 13.0544 3.5738 13.0544H17.1812V15.7652H10.0956Z" fill="white"/>
<path fill-rule="evenodd" clip-rule="evenodd" d="M143.037 40.3531H143.469V43.8501H143.037V40.3531ZM140.032 43.8495V42.2862H138.895V43.8495H138.462V41.329C138.462 40.9798 138.547 40.716 138.717 40.5375C138.887 40.3593 139.136 40.2706 139.463 40.2706C139.794 40.2706 140.043 40.3611 140.212 40.5424C140.38 40.7236 140.464 40.9857 140.464 41.329V43.8495H140.032ZM140.032 41.426C140.032 41.3165 140.023 41.2134 140.007 41.1183C139.99 41.0224 139.96 40.9393 139.916 40.8677C139.872 40.7965 139.813 40.7406 139.741 40.7001C139.668 40.6598 139.575 40.6393 139.463 40.6393C139.351 40.6393 139.259 40.6598 139.186 40.7001C139.113 40.7406 139.054 40.7965 139.01 40.8677C138.966 40.9393 138.936 41.0224 138.92 41.1183C138.903 41.2134 138.895 41.3165 138.895 41.426V41.917H140.032V41.426ZM135.289 40.7465V43.8495H134.857V40.7465H134.456C134.383 40.7465 134.325 40.7544 134.281 40.7706C134.237 40.787 134.204 40.8085 134.181 40.8362C134.158 40.8642 134.143 40.8972 134.136 40.9357C134.128 40.9749 134.124 41.0152 134.124 41.0575L133.824 40.9067C133.824 40.8357 133.831 40.7665 133.844 40.7001C133.858 40.6339 133.884 40.5749 133.922 40.5231C133.96 40.4713 134.012 40.4298 134.078 40.399C134.145 40.3683 134.233 40.3531 134.343 40.3531H136.317V40.7465H135.289ZM131.065 43.8495V41.426C131.065 41.3165 131.056 41.2134 131.04 41.1183C131.023 41.0224 130.992 40.9393 130.948 40.8677C130.904 40.7965 130.846 40.7406 130.773 40.7001C130.7 40.6598 130.608 40.6393 130.496 40.6393C130.383 40.6393 130.291 40.6598 130.218 40.7001C130.145 40.7406 130.087 40.7965 130.043 40.8677C129.999 40.9393 129.968 41.0224 129.952 41.1183C129.935 41.2134 129.927 41.3165 129.927 41.426V43.8495H129.495V41.329C129.495 40.9798 129.58 40.716 129.75 40.5375C129.919 40.3593 130.168 40.2706 130.496 40.2706C130.826 40.2706 131.076 40.3611 131.244 40.5424C131.413 40.7236 131.497 40.9857 131.497 41.329V43.8495H131.065ZM125.216 43.8495V40.3531H127.227V40.7465H125.648V41.917H127.095V42.2862H125.648V43.4567H127.259V43.8495H125.216ZM122.211 40.3531H122.643V43.8501H122.211V40.3531ZM119.715 42.8593C119.715 43.0272 119.685 43.1731 119.625 43.2965C119.564 43.4195 119.483 43.5218 119.381 43.6044C119.28 43.687 119.163 43.749 119.031 43.7893C118.899 43.8295 118.761 43.8495 118.619 43.8495H117.636V40.3531H118.633C118.76 40.3531 118.882 40.3701 118.999 40.4039C119.116 40.438 119.218 40.4906 119.306 40.5616C119.394 40.6334 119.464 40.7236 119.516 40.8339C119.567 40.9442 119.593 41.0736 119.593 41.2224C119.593 41.3195 119.578 41.4103 119.549 41.4942C119.521 41.5785 119.481 41.6539 119.432 41.7201C119.381 41.787 119.32 41.8424 119.247 41.8875C119.174 41.9334 119.095 41.966 119.01 41.9852C119.225 42.017 119.397 42.1129 119.525 42.2713C119.652 42.4303 119.715 42.626 119.715 42.8593ZM119.179 41.3003C119.179 41.1026 119.117 40.9567 118.994 40.8629C118.872 40.7688 118.719 40.7218 118.537 40.7218H118.068V41.8826H118.537C118.622 41.8826 118.704 41.8706 118.783 41.8465C118.861 41.8224 118.93 41.7857 118.988 41.7375C119.045 41.6888 119.091 41.628 119.126 41.5549C119.161 41.4821 119.179 41.3972 119.179 41.3003ZM119.284 42.8249C119.284 42.7152 119.265 42.6195 119.229 42.5388C119.192 42.4575 119.143 42.3911 119.079 42.3393C119.015 42.2875 118.94 42.249 118.853 42.2231C118.767 42.1972 118.674 42.1839 118.574 42.1839H118.068V43.4808H118.55C118.648 43.4808 118.741 43.4688 118.83 43.4442C118.92 43.4201 118.998 43.3816 119.065 43.3277C119.132 43.2742 119.185 43.2062 119.224 43.1236C119.264 43.0411 119.284 42.9416 119.284 42.8249ZM114.631 43.8495V41.426C114.631 41.3165 114.623 41.2129 114.606 41.116C114.59 41.0183 114.559 40.9352 114.515 40.8652C114.472 40.796 114.413 40.7406 114.34 40.7001C114.267 40.6598 114.175 40.6393 114.062 40.6393C113.95 40.6393 113.858 40.6598 113.784 40.7001C113.712 40.7406 113.654 40.796 113.61 40.8652C113.566 40.9352 113.535 41.0183 113.519 41.116C113.502 41.2129 113.493 41.3165 113.493 41.426V43.8495H113.062V41.426C113.062 41.3165 113.053 41.2129 113.036 41.116C113.02 41.0183 112.989 40.9352 112.945 40.8652C112.901 40.796 112.843 40.7406 112.77 40.7001C112.698 40.6598 112.605 40.6393 112.493 40.6393C112.38 40.6393 112.288 40.6598 112.215 40.7001C112.142 40.7406 112.084 40.796 112.04 40.8652C111.996 40.9352 111.965 41.0183 111.949 41.116C111.932 41.2129 111.924 41.3165 111.924 41.426V43.8495H111.491V41.329C111.491 40.9798 111.577 40.716 111.747 40.5375C111.916 40.3593 112.165 40.2706 112.493 40.2706C112.678 40.2706 112.837 40.3057 112.97 40.3749C113.104 40.4447 113.207 40.5508 113.28 40.6929C113.349 40.5508 113.451 40.4447 113.585 40.3749C113.718 40.3057 113.877 40.2706 114.062 40.2706C114.39 40.2706 114.639 40.3593 114.808 40.5375C114.978 40.716 115.063 40.9798 115.063 41.329V43.8495H114.631ZM108.486 43.8495V42.2862H107.349V43.8495H106.917V41.329C106.917 40.9798 107.002 40.716 107.171 40.5375C107.341 40.3593 107.59 40.2706 107.918 40.2706C108.248 40.2706 108.498 40.3611 108.666 40.5424C108.835 40.7236 108.919 40.9857 108.919 41.329V43.8495H108.486ZM108.486 41.426C108.486 41.3165 108.478 41.2134 108.462 41.1183C108.445 41.0224 108.415 40.9393 108.371 40.8677C108.327 40.7965 108.268 40.7406 108.195 40.7001C108.122 40.6598 108.03 40.6393 107.918 40.6393C107.806 40.6393 107.713 40.6598 107.64 40.7001C107.568 40.7406 107.509 40.7965 107.465 40.8677C107.421 40.9393 107.391 41.0224 107.374 41.1183C107.357 41.2134 107.349 41.3165 107.349 41.426V41.917H108.486V41.426ZM103.152 42.8929C103.152 43.0808 103.117 43.2406 103.047 43.3718C102.977 43.5026 102.885 43.6093 102.769 43.6924C102.654 43.7749 102.523 43.8352 102.376 43.8742C102.229 43.9129 102.078 43.9326 101.923 43.9326C101.772 43.9326 101.615 43.9121 101.452 43.8718C101.29 43.8313 101.141 43.7634 101.004 43.6677C100.867 43.5724 100.756 43.4442 100.669 43.2839C100.583 43.1236 100.54 42.9236 100.54 42.6844H100.972C100.972 42.846 100.997 42.9844 101.047 43.0995C101.097 43.2147 101.167 43.3075 101.255 43.379C101.342 43.4501 101.446 43.5018 101.566 43.5339C101.686 43.5665 101.816 43.5826 101.955 43.5826C102.049 43.5826 102.142 43.5706 102.233 43.5465C102.324 43.5218 102.405 43.4839 102.478 43.4321C102.551 43.3803 102.61 43.3134 102.654 43.2308C102.698 43.1483 102.72 43.0483 102.72 42.9321C102.72 42.8054 102.693 42.7044 102.64 42.6285C102.587 42.5526 102.516 42.4898 102.429 42.4418C102.341 42.3929 102.237 42.3531 102.119 42.3224C102.001 42.2918 101.876 42.2585 101.746 42.2231C101.615 42.1875 101.485 42.149 101.354 42.1085C101.224 42.0683 101.106 42.0147 101.002 41.9483C100.897 41.8821 100.812 41.7947 100.747 41.6862C100.682 41.578 100.649 41.4375 100.649 41.266C100.649 41.0816 100.684 40.926 100.754 40.8001C100.824 40.6736 100.914 40.5718 101.024 40.4942C101.136 40.4165 101.261 40.3593 101.403 40.3236C101.544 40.2883 101.686 40.2706 101.832 40.2706C101.999 40.2706 102.155 40.2901 102.301 40.3285C102.447 40.3677 102.574 40.4298 102.683 40.516C102.792 40.6013 102.881 40.7142 102.947 40.8531C103.014 40.9924 103.052 41.1621 103.061 41.3634H102.646C102.646 41.2272 102.625 41.1121 102.581 41.0183C102.537 40.9242 102.478 40.8477 102.403 40.7875C102.329 40.728 102.242 40.6852 102.144 40.6593C102.045 40.6334 101.942 40.6201 101.832 40.6201C101.747 40.6201 101.659 40.629 101.569 40.6465C101.477 40.6647 101.395 40.696 101.321 40.7418C101.246 40.787 101.185 40.8477 101.136 40.9236C101.088 40.9995 101.063 41.096 101.063 41.2129C101.063 41.3357 101.094 41.4339 101.157 41.5067C101.218 41.579 101.299 41.6393 101.397 41.6862C101.496 41.7334 101.608 41.7731 101.732 41.8049C101.856 41.8375 101.984 41.8713 102.114 41.9075C102.251 41.946 102.382 41.9862 102.508 42.0285C102.634 42.0706 102.745 42.1267 102.84 42.196C102.935 42.2657 103.012 42.3557 103.068 42.466C103.124 42.576 103.152 42.7183 103.152 42.8929ZM96.6885 43.8495V40.3531H98.7V40.7465H97.121V41.917H98.5682V42.2862H97.121V43.4567H98.7318V43.8495H96.6885ZM94.2847 42.8929C94.2847 43.0808 94.2499 43.2406 94.1797 43.3718C94.1098 43.5026 94.0178 43.6093 93.902 43.6924C93.7869 43.7749 93.656 43.8352 93.5087 43.8742C93.3612 43.9129 93.2106 43.9326 93.0561 43.9326C92.9043 43.9326 92.7474 43.9121 92.5847 43.8718C92.4226 43.8313 92.2732 43.7634 92.1365 43.6677C92 43.5724 91.8888 43.4442 91.8025 43.2839C91.7156 43.1236 91.6726 42.9236 91.6726 42.6844H92.105C92.105 42.846 92.1297 42.9844 92.1799 43.0995C92.2302 43.2147 92.2991 43.3075 92.387 43.379C92.4752 43.4501 92.5785 43.5018 92.6986 43.5339C92.8185 43.5665 92.9482 43.5826 93.0876 43.5826C93.1817 43.5826 93.2745 43.5706 93.3653 43.5465C93.4561 43.5218 93.538 43.4839 93.6108 43.4321C93.6836 43.3803 93.7422 43.3134 93.7864 43.2308C93.8304 43.1483 93.8523 43.0483 93.8523 42.9321C93.8523 42.8054 93.8258 42.7044 93.7723 42.6285C93.7192 42.5526 93.6485 42.4898 93.5611 42.4418C93.4732 42.3929 93.3698 42.3531 93.2512 42.3224C93.1332 42.2918 93.0085 42.2585 92.8781 42.2231C92.7479 42.1875 92.6174 42.149 92.487 42.1085C92.3568 42.0683 92.2393 42.0147 92.1343 41.9483C92.0298 41.8821 91.9445 41.7947 91.8796 41.6862C91.8143 41.578 91.7816 41.4375 91.7816 41.266C91.7816 41.0816 91.8165 40.926 91.8866 40.8001C91.956 40.6736 92.0461 40.5718 92.1569 40.4942C92.2681 40.4165 92.394 40.3593 92.535 40.3236C92.676 40.2883 92.8195 40.2706 92.965 40.2706C93.1315 40.2706 93.2879 40.2901 93.4335 40.3285C93.5793 40.3677 93.7067 40.4298 93.8157 40.516C93.925 40.6013 94.0132 40.7142 94.0798 40.8531C94.1463 40.9924 94.1843 41.1621 94.1932 41.3634H93.7795C93.7795 41.2272 93.7576 41.1121 93.7134 41.0183C93.6694 40.9242 93.6103 40.8477 93.5359 40.7875C93.4619 40.728 93.3749 40.6852 93.2766 40.6593C93.1779 40.6334 93.0741 40.6201 92.965 40.6201C92.88 40.6201 92.7918 40.629 92.701 40.6465C92.6102 40.6647 92.5271 40.696 92.4531 40.7418C92.3786 40.787 92.3171 40.8477 92.2686 40.9236C92.2201 40.9995 92.1958 41.096 92.1958 41.2129C92.1958 41.3357 92.2268 41.4339 92.289 41.5067C92.3517 41.579 92.4317 41.6393 92.5305 41.6862C92.6287 41.7334 92.7404 41.7731 92.8646 41.8049C92.9893 41.8375 93.1164 41.8713 93.2466 41.9075C93.3833 41.946 93.515 41.9862 93.6406 42.0285C93.7665 42.0706 93.8772 42.1267 93.9726 42.196C94.0685 42.2657 94.1441 42.3557 94.2001 42.466C94.2566 42.576 94.2847 42.7183 94.2847 42.8929ZM88.8545 40.3531H89.287V43.8501H88.8545V40.3531ZM86.5273 43.2965C86.5273 43.3677 86.5206 43.4362 86.5072 43.5026C86.493 43.5688 86.4675 43.6277 86.4298 43.6798C86.3914 43.7316 86.3395 43.7731 86.2722 43.8036C86.2057 43.8344 86.1177 43.8495 86.0087 43.8495H84.2794V40.3531H84.7116V43.4567H85.8948C85.9676 43.4567 86.0262 43.4483 86.0697 43.4321C86.1136 43.4157 86.1475 43.3942 86.1701 43.3665C86.1927 43.3393 86.2081 43.3067 86.216 43.2695C86.2232 43.2321 86.2273 43.1911 86.2273 43.1454L86.5273 43.2965ZM81.2745 43.8495V42.2862H80.1372V43.8495H79.7048V41.329C79.7048 40.9798 79.7896 40.716 79.9594 40.5375C80.1293 40.3593 80.3782 40.2706 80.7056 40.2706C81.0362 40.2706 81.2858 40.3611 81.4544 40.5424C81.6226 40.7236 81.7067 40.9857 81.7067 41.329V43.8495H81.2745ZM81.2745 41.426C81.2745 41.3165 81.2661 41.2134 81.2495 41.1183C81.2327 41.0224 81.2027 40.9393 81.1587 40.8677C81.1147 40.7965 81.0559 40.7406 80.9833 40.7001C80.9103 40.6598 80.8178 40.6393 80.7056 40.6393C80.5932 40.6393 80.5012 40.6598 80.4284 40.7001C80.3556 40.7406 80.297 40.7965 80.2528 40.8677C80.2088 40.9393 80.179 41.0224 80.162 41.1183C80.1456 41.2134 80.1372 41.3165 80.1372 41.426V41.917H81.2745V41.426ZM80.4735 40.1344H80.1963L80.7421 39.4254H81.1791L80.4735 40.1344ZM76.6999 43.8495V41.426C76.6999 41.3165 76.6914 41.2134 76.6744 41.1183C76.6581 41.0224 76.6275 40.9393 76.5836 40.8677C76.5396 40.7965 76.4815 40.7406 76.4087 40.7001C76.3359 40.6598 76.2432 40.6393 76.131 40.6393C76.0185 40.6393 75.926 40.6598 75.8533 40.7001C75.7805 40.7406 75.7223 40.7965 75.6784 40.8677C75.6342 40.9393 75.6039 41.0224 75.5873 41.1183C75.5705 41.2134 75.5621 41.3165 75.5621 41.426V43.8495H75.1297V41.329C75.1297 40.9798 75.2149 40.716 75.3848 40.5375C75.5546 40.3593 75.8035 40.2706 76.131 40.2706C76.4618 40.2706 76.7112 40.3611 76.8793 40.5424C77.0482 40.7236 77.1323 40.9857 77.1323 41.329V43.8495H76.6999ZM72.1247 43.8495V42.2862H70.9874V43.8495H70.555V41.329C70.555 40.9798 70.6398 40.716 70.8101 40.5375C70.9795 40.3593 71.2284 40.2706 71.5563 40.2706C71.8867 40.2706 72.1365 40.3611 72.3047 40.5424C72.4731 40.7236 72.5572 40.9857 72.5572 41.329V43.8495H72.1247ZM72.1247 41.426C72.1247 41.3165 72.1168 41.2134 72.1 41.1183C72.0837 41.0224 72.0531 40.9393 72.0092 40.8677C71.965 40.7965 71.9068 40.7406 71.8336 40.7001C71.7613 40.6598 71.6688 40.6393 71.5563 40.6393C71.4441 40.6393 71.3514 40.6598 71.2786 40.7001C71.2058 40.7406 71.1472 40.7965 71.1032 40.8677C71.0598 40.9393 71.0292 41.0224 71.0124 41.1183C70.9958 41.2134 70.9874 41.3165 70.9874 41.426V41.917H72.1247V41.426ZM64.6199 43.8495V40.3531H66.6314V40.7465H65.0521V41.917H66.4993V42.2862H65.0521V43.4567H66.6629V43.8495H64.6199ZM62.1245 42.1013C62.1245 42.367 62.0906 42.6075 62.0224 42.8224C61.954 43.038 61.8531 43.2218 61.7192 43.3736C61.5861 43.526 61.4213 43.6436 61.226 43.726C61.0302 43.8085 60.8049 43.8495 60.5505 43.8495H59.8997V40.3531H60.7095C60.955 40.3531 61.1674 40.3983 61.3461 40.4893C61.5256 40.5798 61.6724 40.7039 61.7882 40.8606C61.9033 41.0177 61.9878 41.2031 62.0426 41.4165C62.0974 41.6303 62.1245 41.8585 62.1245 42.1013ZM61.6921 42.0965C61.6921 41.899 61.6702 41.7177 61.6263 41.5526C61.5821 41.3875 61.515 41.2447 61.424 41.1254C61.3327 41.0057 61.2169 40.9124 61.0759 40.846C60.9349 40.7798 60.7672 40.7465 60.5731 40.7465H60.3321V43.4567H60.5413C60.7321 43.4567 60.8998 43.4218 61.0437 43.3518C61.1881 43.2826 61.3079 43.187 61.4033 43.0652C61.4992 42.9442 61.5708 42.8001 61.6193 42.6334C61.6678 42.4665 61.6921 42.2862 61.6921 42.0916V42.0965ZM56.0436 42.1013C56.0436 42.3508 56.0085 42.5862 55.9391 42.808C55.8692 43.0295 55.768 43.2242 55.6361 43.3911C55.5045 43.558 55.3421 43.6898 55.1496 43.787C54.957 43.8839 54.7364 43.9326 54.4875 43.9326C54.242 43.9326 54.0224 43.8839 53.83 43.787C53.6373 43.6898 53.4749 43.558 53.3428 43.3911C53.2107 43.2242 53.1102 43.0295 53.0403 42.808C52.9702 42.5862 52.9358 42.3508 52.9358 42.1013C52.9358 41.8521 52.9702 41.6165 53.0403 41.3947C53.1102 41.1731 53.2107 40.979 53.3428 40.8124C53.4749 40.6454 53.6373 40.5134 53.83 40.4165C54.0224 40.3188 54.242 40.2706 54.4875 40.2706C54.7364 40.2706 54.957 40.3188 55.1496 40.4165C55.3421 40.5134 55.5045 40.6454 55.6361 40.8124C55.768 40.979 55.8692 41.1731 55.9391 41.3947C56.0085 41.6165 56.0436 41.8521 56.0436 42.1013ZM55.6111 42.1013C55.6111 41.917 55.5886 41.738 55.5429 41.5647C55.4977 41.3918 55.4283 41.237 55.3358 41.1008C55.2431 40.9652 55.1271 40.8562 54.9858 40.7754C54.8448 40.6947 54.6788 40.6544 54.4875 40.6544C54.2961 40.6544 54.1303 40.6947 53.989 40.7754C53.848 40.8562 53.7322 40.9652 53.6409 41.1008C53.5499 41.237 53.4817 41.3918 53.4365 41.5647C53.3908 41.738 53.3683 41.917 53.3683 42.1013C53.3683 42.2862 53.3908 42.4652 53.4365 42.638C53.4817 42.8116 53.5499 42.966 53.6409 43.1018C53.7322 43.238 53.848 43.3465 53.989 43.4272C54.1303 43.5085 54.2961 43.549 54.4875 43.549C54.6788 43.549 54.8448 43.5085 54.9858 43.4272C55.1271 43.3465 55.2431 43.238 55.3358 43.1018C55.4283 42.966 55.4977 42.8116 55.5429 42.638C55.5886 42.4652 55.6111 42.2862 55.6111 42.1013ZM50.0083 40.3531H50.4407V43.8501H50.0083V40.3531ZM47.5131 41.2954C47.5131 41.5093 47.4588 41.6942 47.3517 41.8513C47.2438 42.0085 47.0925 42.1147 46.8989 42.1695C47.0168 42.1954 47.1134 42.2357 47.1874 42.2911C47.2619 42.346 47.3212 42.4147 47.3652 42.4972C47.4091 42.5795 47.4387 42.6718 47.4538 42.7742C47.4689 42.876 47.4764 42.9852 47.4764 43.1018V43.8495H47.0536V43.1652C47.0536 43.029 47.043 42.9103 47.0214 42.808C47 42.7062 46.962 42.6213 46.908 42.5531C46.8532 42.4852 46.7804 42.4339 46.6896 42.4001C46.5981 42.3665 46.4847 42.349 46.3482 42.349H45.8564V43.8495H45.424V40.3531H46.4981C46.6437 40.3531 46.7787 40.3706 46.9034 40.4062C47.0276 40.4424 47.1343 40.4972 47.2241 40.5718C47.3137 40.646 47.3839 40.7429 47.4358 40.8629C47.487 40.9826 47.5131 41.1267 47.5131 41.2954ZM47.0807 41.3436C47.0807 41.1495 47.0247 40.9972 46.9125 40.8875C46.8001 40.7772 46.6118 40.7218 46.3482 40.7218H45.8564V42.0093H46.3391C46.4299 42.0093 46.5202 41.9977 46.6094 41.9754C46.6992 41.9526 46.7787 41.9152 46.8486 41.8634C46.9181 41.8116 46.9745 41.7429 47.0168 41.6567C47.0591 41.5713 47.0807 41.467 47.0807 41.3436ZM42.9243 42.1013C42.9243 42.3508 42.8893 42.5862 42.8198 42.808C42.7499 43.0295 42.6495 43.2242 42.5174 43.3911C42.3855 43.558 42.2228 43.6898 42.0304 43.787C41.838 43.8839 41.6172 43.9326 41.3683 43.9326C41.1228 43.9326 40.9032 43.8839 40.7108 43.787C40.5183 43.6898 40.3557 43.558 40.2236 43.3911C40.0917 43.2242 39.991 43.0295 39.9211 42.808C39.8517 42.5862 39.8168 42.3508 39.8168 42.1013C39.8168 41.8521 39.8517 41.6165 39.9211 41.3947C39.991 41.1731 40.0917 40.979 40.2236 40.8124C40.3557 40.6454 40.5183 40.5134 40.7108 40.4165C40.9032 40.3188 41.1228 40.2706 41.3683 40.2706C41.6172 40.2706 41.838 40.3188 42.0304 40.4165C42.2228 40.5134 42.3855 40.6454 42.5174 40.8124C42.6495 40.979 42.7499 41.1731 42.8198 41.3947C42.8893 41.6165 42.9243 41.8521 42.9243 42.1013ZM42.4921 42.1013C42.4921 41.917 42.4696 41.738 42.4237 41.5647C42.3785 41.3918 42.3098 41.237 42.2171 41.1008C42.1246 40.9652 42.0078 40.8562 41.8665 40.7754C41.7255 40.6947 41.5595 40.6544 41.3683 40.6544C41.1768 40.6544 41.0111 40.6947 40.8698 40.7754C40.7288 40.8562 40.6132 40.9652 40.5222 41.1008C40.4309 41.237 40.3624 41.3918 40.3173 41.5647C40.2716 41.738 40.249 41.917 40.249 42.1013C40.249 42.2862 40.2716 42.4652 40.3173 42.638C40.3624 42.8116 40.4309 42.966 40.5222 43.1018C40.6132 43.238 40.7288 43.3465 40.8698 43.4272C41.0111 43.5085 41.1768 43.549 41.3683 43.549C41.5595 43.549 41.7255 43.5085 41.8665 43.4272C42.0078 43.3465 42.1246 43.238 42.2171 43.1018C42.3098 42.966 42.3785 42.8116 42.4237 42.638C42.4696 42.4652 42.4921 42.2862 42.4921 42.1013ZM41.2273 40.1344H40.9541L41.4959 39.4254H41.9372L41.2273 40.1344ZM37.0618 40.7465V43.8495H36.6296V40.7465H36.2293C36.1565 40.7465 36.0984 40.7544 36.0544 40.7706C36.0102 40.787 35.9764 40.8085 35.954 40.8362C35.9312 40.8642 35.9161 40.8972 35.9081 40.9357C35.9009 40.9749 35.8968 41.0152 35.8968 41.0575L35.5965 40.9067C35.5965 40.8357 35.6033 40.7665 35.6174 40.7001C35.6311 40.6339 35.6571 40.5749 35.6948 40.5231C35.7325 40.4713 35.7851 40.4298 35.8517 40.399C35.9185 40.3683 36.0064 40.3531 36.1152 40.3531H38.0902V40.7465H37.0618ZM32.8648 43.8495V42.2862H31.7275V43.8495H31.2953V41.329C31.2953 40.9798 31.3799 40.716 31.5497 40.5375C31.7196 40.3593 31.9687 40.2706 32.2959 40.2706C32.6267 40.2706 32.8761 40.3611 33.0442 40.5424C33.2131 40.7236 33.2972 40.9857 33.2972 41.329V43.8495H32.8648ZM32.8648 41.426C32.8648 41.3165 32.8564 41.2134 32.84 41.1183C32.8232 41.0224 32.7927 40.9393 32.7492 40.8677C32.7053 40.7965 32.6464 40.7406 32.5736 40.7001C32.5008 40.6598 32.4083 40.6393 32.2959 40.6393C32.1837 40.6393 32.091 40.6598 32.0189 40.7001C31.9454 40.7406 31.8872 40.7965 31.8433 40.8677C31.7993 40.9393 31.7688 41.0224 31.7525 41.1183C31.7354 41.2134 31.7275 41.3165 31.7275 41.426V41.917H32.8648V41.426ZM28.7999 41.2954C28.7999 41.5093 28.7459 41.6942 28.638 41.8513C28.5309 42.0085 28.3795 42.1147 28.1854 42.1695C28.3038 42.1954 28.4004 42.2357 28.4744 42.2911C28.5489 42.346 28.608 42.4147 28.6522 42.4972C28.6961 42.5795 28.7254 42.6718 28.7408 42.7742C28.756 42.876 28.7634 42.9852 28.7634 43.1018V43.8495H28.3401V43.1652C28.3401 43.029 28.3298 42.9103 28.3084 42.808C28.287 42.7062 28.2491 42.6213 28.1943 42.5531C28.1402 42.4852 28.0674 42.4339 27.9764 42.4001C27.8851 42.3665 27.7717 42.349 27.635 42.349H27.1435V43.8495H26.711V40.3531H27.7851C27.9307 40.3531 28.0657 40.3706 28.1899 40.4062C28.3146 40.4424 28.4213 40.4972 28.5109 40.5718C28.6 40.646 28.6707 40.7429 28.7226 40.8629C28.774 40.9826 28.7999 41.1267 28.7999 41.2954ZM28.3677 41.3436C28.3677 41.1495 28.3113 40.9972 28.1996 40.8875C28.0871 40.7772 27.8985 40.7218 27.635 40.7218H27.1435V42.0093H27.6261C27.7169 42.0093 27.8072 41.9977 27.8964 41.9754C27.986 41.9526 28.0657 41.9152 28.1352 41.8634C28.2051 41.8116 28.2615 41.7429 28.3038 41.6567C28.3461 41.5713 28.3677 41.467 28.3677 41.3436ZM24.2113 42.1013C24.2113 42.3508 24.1763 42.5862 24.1068 42.808C24.0369 43.0295 23.9358 43.2242 23.8044 43.3911C23.6722 43.558 23.5096 43.6898 23.3172 43.787C23.1247 43.8839 22.9042 43.9326 22.6553 43.9326C22.4091 43.9326 22.1902 43.8839 21.9978 43.787C21.8053 43.6898 21.6427 43.558 21.5106 43.3911C21.3784 43.2242 21.278 43.0295 21.2081 42.808C21.1382 42.5862 21.1036 42.3508 21.1036 42.1013C21.1036 41.8521 21.1382 41.6165 21.2081 41.3947C21.278 41.1731 21.3784 40.979 21.5106 40.8124C21.6427 40.6454 21.8053 40.5134 21.9978 40.4165C22.1902 40.3188 22.4091 40.2706 22.6553 40.2706C22.9042 40.2706 23.1247 40.3188 23.3172 40.4165C23.5096 40.5134 23.6722 40.6454 23.8044 40.8124C23.9358 40.979 24.0369 41.1731 24.1068 41.3947C24.1763 41.6165 24.2113 41.8521 24.2113 42.1013ZM23.7789 42.1013C23.7789 41.917 23.7563 41.738 23.7107 41.5647C23.6655 41.3918 23.5961 41.237 23.5036 41.1008C23.4109 40.9652 23.2946 40.8562 23.1536 40.7754C23.0125 40.6947 22.8465 40.6544 22.6553 40.6544C22.4638 40.6544 22.2978 40.6947 22.1568 40.7754C22.0158 40.8562 21.9 40.9652 21.8087 41.1008C21.7177 41.237 21.6494 41.3918 21.6038 41.5647C21.5586 41.738 21.536 41.917 21.536 42.1013C21.536 42.2862 21.5586 42.4652 21.6038 42.638C21.6494 42.8116 21.7177 42.966 21.8087 43.1018C21.9 43.238 22.0158 43.3465 22.1568 43.4272C22.2978 43.5085 22.4638 43.549 22.6553 43.549C22.8465 43.549 23.0125 43.5085 23.1536 43.4272C23.2946 43.3465 23.4109 43.238 23.5036 43.1018C23.5961 42.966 23.6655 42.8116 23.7107 42.638C23.7563 42.4652 23.7789 42.2862 23.7789 42.1013ZM18.6856 42.8593C18.6856 43.0272 18.6553 43.1731 18.5943 43.2965C18.534 43.4195 18.4526 43.5218 18.3509 43.6044C18.2493 43.687 18.1326 43.749 18.0004 43.7893C17.8683 43.8295 17.7314 43.8495 17.5891 43.8495H16.6058V40.3531H17.6026C17.7302 40.3531 17.852 40.3701 17.969 40.4039C18.0857 40.438 18.1878 40.4906 18.276 40.5616C18.3639 40.6334 18.4341 40.7236 18.4852 40.8339C18.5366 40.9442 18.5626 41.0736 18.5626 41.2224C18.5626 41.3195 18.5487 41.4103 18.5198 41.4942C18.4905 41.5785 18.4516 41.6539 18.4011 41.7201C18.3509 41.787 18.2894 41.8424 18.2166 41.8875C18.1438 41.9334 18.0653 41.966 17.9802 41.9852C18.1957 42.017 18.3668 42.1129 18.4944 42.2713C18.6219 42.4303 18.6856 42.626 18.6856 42.8593ZM18.1484 41.3003C18.1484 41.1026 18.0874 40.9567 17.9644 40.8629C17.8414 40.7688 17.6888 40.7218 17.5072 40.7218H17.0383V41.8826H17.5072C17.5918 41.8826 17.6737 41.8706 17.7527 41.8465C17.8318 41.8224 17.9 41.7857 17.9577 41.7375C18.0151 41.6888 18.0614 41.628 18.0965 41.5549C18.1314 41.4821 18.1484 41.3972 18.1484 41.3003ZM18.2534 42.8249C18.2534 42.7152 18.2354 42.6195 18.1986 42.5388C18.1623 42.4575 18.1121 42.3911 18.0485 42.3393C17.9848 42.2875 17.9096 42.249 17.8234 42.2231C17.7369 42.1972 17.6439 42.1839 17.5432 42.1839H17.0383V43.4808H17.5207C17.6177 43.4808 17.7109 43.4688 17.8008 43.4442C17.8899 43.4201 17.9682 43.3816 18.035 43.3277C18.1016 43.2742 18.1547 43.2062 18.1941 43.1236C18.2337 43.0411 18.2534 42.9416 18.2534 42.8249ZM13.6009 43.8495V42.2862H12.4636V43.8495H12.0312V41.329C12.0312 40.9798 12.116 40.716 12.2863 40.5375C12.4557 40.3593 12.7046 40.2706 13.0325 40.2706C13.3628 40.2706 13.6127 40.3611 13.7809 40.5424C13.9493 40.7236 14.0333 40.9857 14.0333 41.329V43.8495H13.6009ZM13.6009 41.426C13.6009 41.3165 13.593 41.2134 13.5762 41.1183C13.5598 41.0224 13.5293 40.9393 13.4851 40.8677C13.4412 40.7965 13.3825 40.7406 13.3097 40.7001C13.2374 40.6598 13.1449 40.6393 13.0325 40.6393C12.9203 40.6393 12.8276 40.6598 12.7548 40.7001C12.682 40.7406 12.6234 40.7965 12.5794 40.8677C12.5352 40.9393 12.5054 41.0224 12.4884 41.1183C12.472 41.2134 12.4636 41.3165 12.4636 41.426V41.917H13.6009V41.426ZM9.70423 43.2965C9.70423 43.3677 9.6975 43.4362 9.68381 43.5026C9.67036 43.5688 9.64441 43.6277 9.60669 43.6798C9.56874 43.7316 9.51636 43.7731 9.44957 43.8036C9.38303 43.8344 9.2951 43.8495 9.18555 43.8495H7.45679V40.3531H7.88898V43.4567H9.07216C9.14495 43.4567 9.20309 43.4483 9.24705 43.4321C9.29102 43.4157 9.32441 43.3942 9.34699 43.3665C9.37005 43.3393 9.38543 43.3067 9.39264 43.2695C9.40057 43.2321 9.40393 43.1911 9.40393 43.1454L9.70423 43.2965Z" fill="white"/>
<path fill-rule="evenodd" clip-rule="evenodd" d="M148.466 42.8929C148.466 43.0808 148.431 43.2398 148.362 43.3711C148.292 43.5026 148.199 43.6091 148.084 43.6916C147.969 43.7742 147.838 43.8349 147.69 43.8737C147.544 43.9129 147.392 43.9321 147.238 43.9321C147.086 43.9321 146.929 43.9121 146.767 43.8719C146.604 43.8308 146.455 43.7629 146.319 43.6675C146.182 43.5719 146.07 43.4442 145.984 43.2839C145.898 43.1237 145.854 42.9237 145.854 42.6839H146.287C146.287 42.846 146.311 42.9844 146.362 43.0996C146.412 43.2139 146.481 43.3073 146.569 43.3785C146.657 43.4496 146.761 43.5014 146.88 43.5339C147.001 43.5665 147.13 43.5826 147.27 43.5826C147.363 43.5826 147.456 43.5706 147.547 43.546C147.638 43.5219 147.72 43.4839 147.793 43.4321C147.866 43.3803 147.924 43.3129 147.968 43.2303C148.012 43.1478 148.034 43.0483 148.034 42.9321C148.034 42.8055 148.008 42.7044 147.954 42.6285C147.901 42.5519 147.831 42.4898 147.743 42.4411C147.655 42.3924 147.552 42.3532 147.433 42.3224C147.315 42.2916 147.191 42.258 147.06 42.2224C146.93 42.187 146.8 42.1491 146.669 42.1085C146.538 42.0683 146.421 42.0147 146.316 41.9483C146.211 41.8821 146.127 41.7947 146.061 41.6862C145.996 41.5773 145.964 41.4375 145.964 41.2657C145.964 41.0816 145.999 40.926 146.068 40.7996C146.138 40.6732 146.229 40.5714 146.339 40.4937C146.45 40.4157 146.575 40.3593 146.717 40.3237C146.858 40.288 147.001 40.2701 147.147 40.2701C147.314 40.2701 147.47 40.2898 147.615 40.3285C147.761 40.3678 147.888 40.4296 147.998 40.5152C148.107 40.6014 148.195 40.7139 148.261 40.8532C148.328 40.9924 148.366 41.1621 148.376 41.3629H147.961C147.961 41.2273 147.939 41.1121 147.895 41.0183C147.851 40.9242 147.792 40.8473 147.718 40.7875C147.644 40.7273 147.557 40.6844 147.458 40.6585C147.36 40.6326 147.256 40.6201 147.147 40.6201C147.061 40.6201 146.974 40.6291 146.883 40.6465C146.792 40.6647 146.709 40.696 146.635 40.7411C146.56 40.787 146.499 40.8473 146.45 40.9237C146.402 40.9996 146.377 41.096 146.377 41.2121C146.377 41.3357 146.409 41.4334 146.471 41.5062C146.533 41.5791 146.613 41.6393 146.712 41.6862C146.811 41.7326 146.922 41.7724 147.046 41.8049C147.171 41.8375 147.299 41.8714 147.429 41.9067C147.565 41.946 147.696 41.9862 147.822 42.0285C147.948 42.0706 148.059 42.126 148.155 42.196C148.25 42.2657 148.326 42.3555 148.382 42.4657C148.438 42.5755 148.466 42.7183 148.466 42.8929Z" fill="white"/>
</svg>
