<svg width="108" height="168" viewBox="0 0 108 168" fill="none" xmlns="http://www.w3.org/2000/svg">
<g clip-path="url(#clip0_723_84)">
<path d="M3.91599 1.28782C1.00614 2.74382 1.11806 1.06382 1.28594 56.1678L1.39785 107.632L2.96469 108.976L4.53153 110.32H54.2787H104.026L105.593 108.976L107.16 107.632V55.4958V3.41582L105.872 2.12782L104.585 0.839821L54.9502 0.727821C15.8352 0.615822 5.03516 0.727821 3.91599 1.28782ZM75.1512 20.1598L95.688 32.1998V35.1678C95.688 37.5758 95.5201 38.1358 94.9046 37.9118C94.4569 37.7438 87.4062 33.6558 79.1802 28.8958C71.0103 24.0798 64.1274 20.1598 63.9595 20.1598C63.7357 20.1598 56.573 24.2478 48.0113 29.2318L32.4548 38.3038L32.5668 56.2238L32.7346 74.1438L48.1232 83.2718C56.573 88.2558 63.6238 92.3438 63.7916 92.3438C63.9595 92.3998 71.1222 88.2558 79.7398 83.1598L95.4082 73.9758L95.5761 76.8318C95.688 78.6798 95.4642 79.9118 95.0165 80.3598C93.8414 81.4798 54.1108 104.776 53.6631 104.608C53.4953 104.496 44.0942 99.0078 32.7906 92.3998L12.3098 80.3598V56.2238V32.0878L32.9025 19.9918C44.2061 13.3838 53.7191 7.95182 54.0548 8.00782C54.3906 8.06382 63.8476 13.5518 75.1512 20.1598Z" fill="#27A85B"/>
<path d="M76.1037 121.072C74.369 121.352 73.1379 122.024 72.0747 123.2C70.7316 124.656 70.5078 125.384 70.5078 128.408C70.5078 132.832 71.627 134.736 76.0477 137.704C79.9088 140.336 80.7482 141.512 80.4684 144.088C80.3565 145.432 80.0208 145.936 79.0695 146.048C77.9503 146.216 77.8384 145.936 77.6705 143.248L77.5026 140.28H74.1451H70.7876L70.8436 143.472C70.8995 145.488 71.2912 147.224 71.8508 148.176C74.4249 152.096 83.0425 152.264 86.456 148.4C87.3513 147.448 87.5752 146.384 87.5752 143.416C87.5752 138.096 86.7358 136.64 81.9234 133.28C77.5586 130.256 76.6073 128.744 77.7824 126.56C78.6778 124.88 79.685 125.44 79.9088 127.848L80.0767 129.92H83.714H87.3513L86.9596 127.232C86.7917 125.776 86.3441 124.152 86.0643 123.648C85.0011 121.464 80.4684 120.344 76.1037 121.072Z" fill="#1D1D1B"/>
<path d="M96.8068 120.96C94.0089 121.464 92.4421 122.472 91.211 124.488C90.2037 126.056 90.0918 127.344 90.0918 135.8C90.0918 143.752 90.2597 145.656 91.0991 147.28C93.5612 152.264 102.962 152.6 106.432 147.84C107.047 147 107.607 144.928 107.831 142.632L108.166 138.824L104.305 138.992L100.444 139.16L100.276 142.632C100.108 145.656 99.9405 146.16 99.1011 146.16C98.4856 146.16 97.87 145.768 97.7022 145.264C97.5343 144.76 97.3664 140.392 97.3664 135.52C97.3664 128.464 97.5343 126.56 98.2058 126C99.6047 124.824 100.164 125.944 100.164 129.976V133.84H104.137H108.166L107.831 129.584C107.495 125.216 106.6 123.144 104.641 122.08C102.906 121.128 98.9892 120.568 96.8068 120.96Z" fill="#1D1D1B"/>
<path d="M4.02852 121.912C0.671007 123.536 0.279297 125.048 0.279297 136.192C0.279297 145.32 0.391214 146.216 1.45443 147.672C4.02852 151.2 9.73629 152.264 14.0451 150.024C16.7871 148.624 17.9062 146.328 17.9062 141.96V138.88H14.2689H10.6876L10.5197 142.352C10.3518 145.544 10.2399 145.88 9.12075 146.048L7.8337 146.216V136.08C7.8337 127.344 7.94562 125.944 8.72904 125.608C10.072 125.104 10.6316 126.448 10.6316 130.312V133.84H14.2689H17.9062V130.032C17.9062 125.664 17.1788 123.984 14.6047 122.248C12.2544 120.68 6.88241 120.512 4.02852 121.912Z" fill="#1D1D1B"/>
<path d="M20.7051 136.08V150.64H24.6222H28.5393V136.08V121.52H24.6222H20.7051V136.08Z" fill="#1D1D1B"/>
<path d="M31.4479 135.912L31.6157 150.36H39.0023C49.5225 150.36 48.9629 151.144 48.9629 136.36V124.88L47.396 123.368C45.8852 121.856 45.6613 121.8 38.6105 121.632L31.3359 121.408L31.4479 135.912ZM40.737 126.448C41.2406 126.84 41.4085 129.136 41.2966 136.136C41.1287 144.368 41.0168 145.32 40.1774 145.488C39.2261 145.656 39.1701 144.928 39.1701 135.856C39.1701 130.424 39.338 126 39.6178 126C39.8416 126 40.3453 126.224 40.737 126.448Z" fill="#1D1D1B"/>
<path d="M54.0559 123.312C53.888 124.32 53.1046 130.088 52.3211 136.08C51.5377 142.072 50.8103 147.84 50.6424 148.792L50.3066 150.64H54.2797C58.0849 150.64 58.1968 150.584 58.1968 149.296C58.1968 144.816 61.0507 143.64 61.5543 147.896L61.8341 150.36L65.6393 150.528C67.7097 150.64 69.3885 150.472 69.3885 150.248C69.3885 150.024 68.4932 143.416 67.318 135.632L65.2476 121.52H59.7636H54.3357L54.0559 123.312ZM60.7149 134.512C61.1066 139.944 61.1066 140 59.8756 140C58.6445 140 58.6445 139.888 59.0362 135.632C59.3719 131.376 59.8756 128.576 60.1553 128.912C60.2113 129.024 60.4911 131.544 60.7149 134.512Z" fill="#1D1D1B"/>
<path d="M1.11914 163.072V166.88H54.2798H107.44V163.24V159.6L54.2798 159.488L1.11914 159.32V163.072Z" fill="#27A85B"/>
<ellipse cx="77.8524" cy="55.2299" rx="17.8368" ry="17.85" fill="#E72B3B"/>
</g>
<defs>
<clipPath id="clip0_723_84">
<rect width="108" height="168" fill="white"/>
</clipPath>
</defs>
</svg>
