<svg width="45" height="33" viewBox="0 0 45 33" fill="none" xmlns="http://www.w3.org/2000/svg">
<path d="M43.125 18.125H1.875C0.839996 18.125 0 17.285 0 16.25C0 15.215 0.839996 14.375 1.875 14.375H43.125C44.16 14.375 45 15.215 45 16.25C45 17.285 44.16 18.125 43.125 18.125Z" fill="white"/>
<path d="M43.125 3.75H1.875C0.839996 3.75 0 2.91 0 1.875C0 0.839996 0.839996 0 1.875 0H43.125C44.16 0 45 0.839996 45 1.875C45 2.91 44.16 3.75 43.125 3.75Z" fill="white"/>
<path d="M43.125 32.5H1.875C0.839996 32.5 0 31.66 0 30.625C0 29.59 0.839996 28.75 1.875 28.75H43.125C44.16 28.75 45 29.59 45 30.625C45 31.66 44.16 32.5 43.125 32.5Z" fill="white"/>
</svg>
