<svg width="45" height="33" viewBox="0 0 45 33" fill="none" xmlns="http://www.w3.org/2000/svg">
<path d="M43.125 18.1252H1.875C0.839996 18.1252 0 17.2852 0 16.2502C0 15.2152 0.839996 14.3752 1.875 14.3752H43.125C44.16 14.3752 45 15.2152 45 16.2502C45 17.2852 44.16 18.1252 43.125 18.1252Z" fill="white"/>
<path d="M43.125 3.75H1.875C0.839996 3.75 0 2.91 0 1.875C0 0.839996 0.839996 0 1.875 0H43.125C44.16 0 45 0.839996 45 1.875C45 2.91 44.16 3.75 43.125 3.75Z" fill="white"/>
<path d="M43.125 32.4998H1.875C0.839996 32.4998 0 31.6598 0 30.6248C0 29.5898 0.839996 28.7498 1.875 28.7498H43.125C44.16 28.7498 45 29.5898 45 30.6248C45 31.6598 44.16 32.4998 43.125 32.4998Z" fill="white"/>
</svg>
