<svg width="41" height="41" viewBox="0 0 41 41" fill="none" xmlns="http://www.w3.org/2000/svg">
<g clip-path="url(#clip0_58_301)">
<path d="M40.0552 14.3656C39.8778 13.8297 39.2998 13.5391 38.7636 13.7165C38.24 13.8898 37.9485 14.4472 38.1045 14.9762C41.1588 24.7022 35.7504 35.0626 26.0243 38.1168C16.2986 41.1711 5.93821 35.7627 2.88398 26.0366C-0.170558 16.3106 5.23815 5.95019 14.9639 2.89596C18.5643 1.76549 22.4243 1.76549 26.0243 2.89596C26.5649 3.05893 27.1351 2.75301 27.2981 2.21248C27.4585 1.68009 27.1642 1.11736 26.6352 0.945313C15.8357 -2.44299 4.33383 3.56505 0.94553 14.365C-2.44277 25.1645 3.56558 36.6664 14.3652 40.0547C25.1651 43.443 36.6666 37.4349 40.0549 26.635C41.308 22.6411 41.308 18.3595 40.0552 14.3656Z" fill="#F16E0F"/>
<path d="M20.5658 14.3038C21.13 14.3038 21.5869 13.8465 21.5869 13.2825C21.5869 12.7186 21.13 12.2612 20.5658 12.2612C16.0542 12.2612 12.3967 15.9192 12.3967 20.4317C12.3967 24.9439 16.0542 28.6018 20.5658 28.6018C25.0777 28.6018 28.7351 24.9439 28.7351 20.4317C28.7351 19.8674 28.2779 19.4104 27.714 19.4104C27.1501 19.4104 26.6928 19.8674 26.6928 20.4317C26.6928 23.8159 23.9499 26.5595 20.5658 26.5595C17.182 26.5595 14.4388 23.8159 14.4388 20.4317C14.4388 17.0471 17.182 14.3038 20.5658 14.3038Z" fill="#F16E0F"/>
<path d="M22.5106 7.29655C22.5159 6.71505 22.0693 6.22895 21.4894 6.18547C21.1845 6.15951 20.8792 6.13354 20.5662 6.13354C12.6705 6.13354 6.26978 12.5351 6.26978 20.4318C6.26978 28.3283 12.6705 34.7298 20.5662 34.7298C28.4615 34.7298 34.8622 28.3283 34.8622 20.4318C34.8622 20.0624 34.8397 19.6933 34.7944 19.3267C34.7127 18.7662 34.1923 18.378 33.6318 18.4596C33.0714 18.5409 32.6832 19.0618 32.7645 19.6223C32.7677 19.6436 32.7714 19.6645 32.7758 19.6858C32.798 19.9332 32.8199 20.1785 32.8199 20.4312C32.8202 27.2 27.334 32.6869 20.5665 32.6875C13.7986 32.6878 8.31243 27.2006 8.31212 20.4322C8.3118 13.6637 13.7977 8.17647 20.5655 8.17616H20.5658C20.8192 8.17616 21.0647 8.19806 21.3115 8.21995L21.5029 8.2359C22.0365 8.25874 22.4875 7.84459 22.51 7.31094C22.5103 7.30594 22.5103 7.30124 22.5106 7.29655Z" fill="#F16E0F"/>
<path d="M26.6929 9.19742V12.8597L19.844 19.7095C19.4383 20.1015 19.4271 20.748 19.819 21.1538C20.2108 21.5595 20.8573 21.5707 21.263 21.1788C21.2714 21.1706 21.2799 21.1622 21.288 21.1538L28.1369 14.304H31.7987C32.0696 14.304 32.3292 14.1964 32.5209 14.0046L38.6476 7.87676C39.0464 7.47793 39.0464 6.83137 38.6476 6.43254C38.4562 6.2411 38.1966 6.1335 37.9257 6.1335H34.8622V3.06958C34.8622 2.50559 34.405 2.04827 33.8407 2.04858C33.5702 2.04858 33.3106 2.15619 33.1192 2.34763L26.9922 8.47547C26.8004 8.6669 26.6929 8.92653 26.6929 9.19742ZM28.7352 9.62033L32.8199 5.5351V7.15481C32.8199 7.71879 33.2771 8.17611 33.841 8.17611H35.4605L31.3758 12.2613H28.7352V9.62033Z" fill="#F16E0F"/>
</g>
<defs>
<clipPath id="clip0_58_301">
<rect width="40.9945" height="41" fill="white"/>
</clipPath>
</defs>
</svg>
