<svg width="55" height="55" viewBox="0 0 55 55" fill="none" xmlns="http://www.w3.org/2000/svg">
<path d="M53.9 51.1499H51.425C51.095 51.1499 50.875 51.3699 50.875 51.6999C50.875 52.0299 51.095 52.2499 51.425 52.2499H53.9C54.23 52.2499 54.45 52.0299 54.45 51.6999C54.45 51.3699 54.23 51.1499 53.9 51.1499Z" fill="#F16E0F"/>
<path d="M41.0298 2.75H11.7148C11.6048 2.75 11.4398 2.805 11.3298 2.915L3.0248 11.165C2.9148 11.275 2.8598 11.385 2.8598 11.495V50.27C2.8598 50.545 2.9148 50.875 3.0798 51.095H1.0998C0.769805 51.095 0.549805 51.315 0.549805 51.645C0.549805 51.975 0.769805 52.195 1.0998 52.195H48.9498C49.2798 52.195 49.4998 51.975 49.4998 51.645C49.4998 51.315 49.2798 51.095 48.9498 51.095H42.1848C42.2948 50.82 42.4048 50.545 42.4048 50.27V37.07L45.9798 40.645C47.3548 42.02 49.5548 42.02 50.9298 40.645C52.3048 39.27 52.3048 37.07 50.9298 35.695L46.0348 30.8L46.2548 30.58C46.4748 30.36 46.4748 30.03 46.2548 29.81C46.0348 29.59 45.7048 29.59 45.4848 29.81L44.8798 30.415L44.7698 30.525L43.7798 29.535C43.8348 29.425 43.8898 29.315 43.9448 29.205C46.1998 25.135 45.5948 20.075 42.4048 16.665V4.125C42.4048 3.355 41.7998 2.75 41.0298 2.75ZM11.1648 4.62V10.175C11.1648 10.67 10.7798 11 10.3398 11H4.7298L11.1648 4.62ZM41.3048 50.27C41.3048 50.71 40.9748 51.095 40.5348 51.095H4.7848C4.3448 51.04 4.0148 50.71 4.0148 50.27V12.1H10.3948C11.4948 12.1 12.3198 11.22 12.3198 10.175V3.85H41.0848C41.1948 3.85 41.3048 3.96 41.3048 4.07V15.62C39.3798 14.08 37.0698 13.255 34.5948 13.255C31.7348 13.255 29.0398 14.355 27.0048 16.39C25.2448 18.15 24.1998 20.35 23.9248 22.77C23.8148 22.77 23.7048 22.715 23.5948 22.715H21.7248C20.9548 22.715 20.3498 23.32 20.3498 24.09V29.26H18.8098V21.23C18.8098 20.46 18.2048 19.855 17.4348 19.855H15.5648C14.7948 19.855 14.1898 20.46 14.1898 21.23V29.26H12.6498V26.235C12.6498 25.465 12.0448 24.86 11.2748 24.86H9.4048C8.6348 24.86 8.0298 25.465 8.0298 26.235V29.26H7.4248C7.0948 29.26 6.8748 29.48 6.8748 29.81C6.8748 30.14 7.0948 30.36 7.4248 30.36H25.9048C26.2348 30.8 26.5648 31.185 26.9498 31.57C28.6548 33.275 30.7998 34.265 33.1098 34.595H16.9398C16.6098 34.595 16.3898 34.815 16.3898 35.145C16.3898 35.475 16.6098 35.695 16.9398 35.695H37.8398C38.1698 35.695 38.3898 35.475 38.3898 35.145C38.3898 34.815 38.1698 34.595 37.8398 34.595H36.0798C37.3448 34.43 38.6098 33.99 39.7648 33.33C39.8198 33.33 39.8748 33.275 39.8748 33.275L40.9198 34.32C40.8648 34.375 40.2048 35.035 40.2598 34.98C40.0398 35.2 40.0398 35.53 40.2598 35.75C40.4798 35.97 40.8098 35.97 41.0298 35.75L41.2498 35.97V50.27H41.3048ZM21.3948 29.26V24.09C21.3948 23.925 21.5048 23.815 21.6698 23.815H23.5398C23.7048 23.815 23.8148 23.925 23.8148 24.09V29.26H21.3948ZM24.9148 28.765C25.0248 28.93 25.0798 29.095 25.1898 29.315H24.9148V28.765ZM15.2898 29.26V21.23C15.2898 21.065 15.3998 20.955 15.5648 20.955H17.4348C17.5998 20.955 17.7098 21.065 17.7098 21.23V29.26H15.2898ZM9.1298 29.26V26.235C9.1298 26.07 9.2398 25.96 9.4048 25.96H11.2748C11.4398 25.96 11.5498 26.07 11.5498 26.235V29.26H9.1298ZM50.1048 39.875C49.1698 40.81 47.6298 40.81 46.6948 39.875L41.7998 34.98L42.0748 34.705L45.0998 31.68L45.2098 31.57L50.1048 36.465C51.0398 37.455 51.0398 38.94 50.1048 39.875ZM41.6898 33.55L40.9198 32.78C41.7998 32.175 42.5698 31.405 43.1748 30.525L43.9448 31.295L41.6898 33.55ZM42.9548 28.71C42.5148 29.48 41.9648 30.195 41.3598 30.8C40.6998 31.46 39.9848 31.955 39.2148 32.395C35.4748 34.485 30.7448 33.825 27.7198 30.8C25.9048 28.985 24.9148 26.565 24.9148 23.98C24.9148 21.395 25.9048 18.975 27.7198 17.16C29.5348 15.345 31.9548 14.355 34.5398 14.355C37.1248 14.355 39.5448 15.345 41.3598 17.16C44.3848 20.24 45.0448 24.97 42.9548 28.71Z" fill="#F16E0F"/>
<path d="M11.8249 33.3301H8.52494C7.86494 33.3301 7.31494 33.8801 7.31494 34.5401V37.8401C7.31494 38.5001 7.86494 39.0501 8.52494 39.0501H11.8249C12.4849 39.0501 13.0349 38.5001 13.0349 37.8401V34.5401C13.0349 33.8801 12.5399 33.3301 11.8249 33.3301ZM11.9349 37.8401C11.9349 37.8951 11.8799 37.9501 11.8249 37.9501H8.52494C8.46994 37.9501 8.41494 37.8951 8.41494 37.8401V34.5401C8.41494 34.4851 8.46994 34.4301 8.52494 34.4301H11.8249C11.8799 34.4301 11.9349 34.4851 11.9349 34.5401V37.8401Z" fill="#F16E0F"/>
<path d="M11.8249 40.48H8.52494C7.86494 40.48 7.31494 41.03 7.31494 41.69V44.99C7.31494 45.65 7.86494 46.2 8.52494 46.2H11.8249C12.4849 46.2 13.0349 45.65 13.0349 44.99V41.69C13.0349 41.03 12.5399 40.48 11.8249 40.48ZM11.9349 45.045C11.9349 45.1 11.8799 45.155 11.8249 45.155H8.52494C8.46994 45.155 8.41494 45.1 8.41494 45.045V41.745C8.41494 41.69 8.46994 41.635 8.52494 41.635H11.8249C11.8799 41.635 11.9349 41.69 11.9349 41.745V45.045Z" fill="#F16E0F"/>
<path d="M36.9049 16.72H36.8499C34.3749 15.95 31.6249 16.5 29.5899 18.26C29.4249 18.37 29.3149 18.48 29.1499 18.645C26.1799 21.67 26.1799 26.51 29.1499 29.535C29.4249 29.81 29.6999 30.03 30.0299 30.305H30.0849C31.4049 31.295 32.9999 31.79 34.5949 31.79C36.5749 31.79 38.5549 31.02 40.0399 29.535C43.0649 26.51 43.0649 21.67 40.0399 18.645C39.0499 17.71 38.0049 17.05 36.9049 16.72ZM36.0799 17.655V29.315H33.7149V17.49C34.4849 17.38 35.3099 17.435 36.0799 17.655ZM31.0749 29.26V19.305C31.0749 19.03 30.9649 18.755 30.8549 18.535C31.4049 18.15 32.0099 17.875 32.6149 17.655V29.205H31.0749V29.26ZM29.8649 19.36L29.9199 19.305V28.71L29.8649 28.655C27.3349 26.125 27.3349 21.945 29.8649 19.36ZM32.8349 30.36H36.2999C35.1449 30.69 33.9349 30.69 32.8349 30.36ZM39.1599 28.71C38.8849 28.985 38.5549 29.26 38.2249 29.48C38.1149 29.37 38.0049 29.26 37.8399 29.26H37.2349V17.985C37.9499 18.315 38.6649 18.755 39.2149 19.36C41.7449 21.945 41.7449 26.125 39.1599 28.71Z" fill="#F16E0F"/>
<path d="M16.9396 37.7851H27.0046C27.3346 37.7851 27.5546 37.5651 27.5546 37.2351C27.5546 36.9051 27.3346 36.6851 27.0046 36.6851H16.9396C16.6096 36.6851 16.3896 36.9051 16.3896 37.2351C16.3896 37.5651 16.6646 37.7851 16.9396 37.7851Z" fill="#F16E0F"/>
<path d="M37.8397 41.8H16.9396C16.6096 41.8 16.3896 42.02 16.3896 42.35C16.3896 42.68 16.6096 42.9 16.9396 42.9H37.8397C38.1697 42.9 38.3897 42.68 38.3897 42.35C38.3897 42.02 38.1147 41.8 37.8397 41.8Z" fill="#F16E0F"/>
<path d="M27.0046 43.835H16.9396C16.6096 43.835 16.3896 44.055 16.3896 44.385C16.3896 44.715 16.6096 44.935 16.9396 44.935H27.0046C27.3346 44.935 27.5546 44.715 27.5546 44.385C27.5546 44.055 27.3346 43.835 27.0046 43.835Z" fill="#F16E0F"/>
<path d="M10.3948 20.2949L33.9348 9.18494L32.9998 11.9899C32.8898 12.3749 33.1648 12.7049 33.4948 12.7049C33.7148 12.7049 33.9348 12.5399 33.9898 12.3199L35.3648 8.24994C35.4748 8.02994 35.3098 7.64494 35.0348 7.53494L30.9648 6.15994C30.6898 6.04994 30.3598 6.21494 30.2498 6.48994C30.1398 6.76494 30.3048 7.09494 30.5798 7.20494L33.3848 8.13994L9.95485 19.3049C9.67985 19.4149 9.56985 19.7449 9.67985 20.0199C9.84485 20.2949 10.1748 20.4049 10.3948 20.2949Z" fill="#F16E0F"/>
<path d="M10.8348 35.0351L9.67977 36.1901L9.56977 36.0801C9.34977 35.8601 9.01977 35.8601 8.79977 36.0801C8.57977 36.3001 8.57977 36.6301 8.79977 36.8501L9.29477 37.3451C9.40477 37.4551 9.51477 37.5101 9.67977 37.5101C9.84477 37.5101 9.95477 37.4551 10.0648 37.3451L11.6048 35.8051C11.8248 35.5851 11.8248 35.2551 11.6048 35.0351C11.3848 34.8151 11.0548 34.8151 10.8348 35.0351Z" fill="#F16E0F"/>
<path d="M10.8348 42.185L9.67977 43.34L9.56977 43.23C9.34977 43.01 9.01977 43.01 8.79977 43.23C8.57977 43.45 8.57977 43.78 8.79977 44L9.29477 44.495C9.40477 44.605 9.51477 44.66 9.67977 44.66C9.84477 44.66 9.95477 44.605 10.0648 44.495L11.6048 42.955C11.8248 42.735 11.8248 42.405 11.6048 42.185C11.3848 41.965 11.0548 41.965 10.8348 42.185Z" fill="#F16E0F"/>
</svg>
