<svg width="60" height="60" viewBox="0 0 60 60" fill="none" xmlns="http://www.w3.org/2000/svg">
<g id="pingo-dagua 1" clip-path="url(#clip0_45_44)">
<g id="Group">
<g id="Group_2">
<path id="Vector" d="M35.5647 5.77269C33.8613 3.78531 32.3281 2.02506 31.1357 0.548722C31.0789 0.435158 30.9654 0.378375 30.9086 0.321593C30.284 -0.189448 29.3755 -0.075883 28.8644 0.548722C27.672 2.02506 26.1389 3.78531 24.4354 5.77269C16.9401 14.4604 6.54898 26.4982 6.54898 36.5487C6.54898 43.0219 9.16097 48.8705 13.4196 53.1291C17.6783 57.331 23.5269 59.9998 30.0001 59.9998C36.4732 59.9998 42.3218 57.3878 46.5805 53.1291C50.8392 48.8705 53.4511 43.0219 53.4511 36.5487C53.4511 26.4982 43.06 14.4604 35.5647 5.77269ZM44.5363 51.0282C40.7887 54.7758 35.6783 57.1039 30.0001 57.1039C24.3218 57.1039 19.2114 54.7758 15.4638 51.085C11.773 47.3941 9.44488 42.2269 9.44488 36.5487C9.44488 27.5771 19.4386 15.9935 26.6499 7.64651C27.8423 6.22695 28.978 4.92096 30.0001 3.67175C31.0221 4.92096 32.1578 6.22695 33.3502 7.58973C40.5616 15.9367 50.5553 27.4635 50.5553 36.4919C50.5553 42.1701 48.2272 47.2805 44.5363 51.0282Z" fill="white"/>
</g>
</g>
<g id="Group_3">
<g id="Group_4">
<path id="Vector_2" d="M30.1136 49.6655C26.5931 49.6655 23.4133 48.2459 21.142 45.9747C18.8707 43.7034 17.4512 40.5236 17.4512 37.0031C17.4512 36.2081 16.8266 35.5835 16.0316 35.5835C15.2367 35.5835 14.6121 36.2081 14.6121 37.0031C14.6121 41.3185 16.3723 45.1797 19.1546 48.0188C21.8802 50.7444 25.7982 52.5046 30.1136 52.5046C30.9086 52.5046 31.5332 51.88 31.5332 51.0851C31.5332 50.2901 30.9086 49.6655 30.1136 49.6655Z" fill="white"/>
</g>
</g>
</g>
<defs>
<clipPath id="clip0_45_44">
<rect width="60" height="60" fill="white"/>
</clipPath>
</defs>
</svg>
