<svg width="60" height="60" viewBox="0 0 60 60" fill="none" xmlns="http://www.w3.org/2000/svg">
<g clip-path="url(#clip0_93_23)">
<path d="M30.5 29.5C30.5 28.4375 29.625 27.5625 28.5625 27.5625C28.625 27.5625 28.4375 27.5625 28.375 27.5625C27.3125 27.5625 26.4375 28.4375 26.4375 29.5V36.6875C26.3125 36.8125 26.1875 36.875 26.125 37H22.8125C21.75 37 20.875 37.875 20.875 38.9375V39.125C20.875 40.1875 21.75 41.0625 22.8125 41.0625H26.125C27.1875 42.4375 29.125 42.75 30.5 41.6875C32.1875 40.4375 32.1875 37.9375 30.5 36.6875C30.5625 36.625 30.5 37 30.5 29.5ZM27.6875 29.5C27.6875 29.25 27.875 28.8125 28.375 28.8125H28.5625C28.9375 28.8125 29.25 29.125 29.25 29.5V36C28.75 35.875 28.1875 35.875 27.6875 36V29.5ZM22.8125 39.8125C22.4375 39.8125 22.125 39.5 22.125 39.125V38.9375C22.125 38.5625 22.4375 38.25 22.8125 38.25H25.5C25.375 38.75 25.375 39.3125 25.5 39.8125H22.8125ZM28.5 40.9375C27.3125 40.9375 26.375 39.75 26.75 38.5625C26.875 38.125 27.25 37.625 27.75 37.375C28.6875 36.875 30 37.375 30.3125 38.5C30.625 39.6875 29.75 40.9375 28.5 40.9375Z" fill="white"/>
<path d="M28.5 26.8125C28.875 26.8125 29.125 26.5625 29.125 26.1875V24.9375C29.125 24.5625 28.875 24.3125 28.5 24.3125C28.125 24.3125 27.875 24.5625 27.875 24.9375V26.1875C27.875 26.5 28.125 26.8125 28.5 26.8125Z" fill="white"/>
<path d="M28.5 51.3125C28.125 51.3125 27.875 51.5625 27.875 51.9375V53.1875C27.875 53.5625 28.125 53.8125 28.5 53.8125C28.875 53.8125 29.125 53.5625 29.125 53.1875V51.9375C29.125 51.625 28.8125 51.3125 28.5 51.3125Z" fill="white"/>
<path d="M15.5625 38.4375H14.3125C13.9375 38.4375 13.6875 38.6875 13.6875 39.0625C13.6875 39.4375 13.9375 39.6875 14.3125 39.6875H15.5625C15.9375 39.6875 16.1875 39.4375 16.1875 39.0625C16.1875 38.6875 15.9375 38.4375 15.5625 38.4375Z" fill="white"/>
<path d="M38.0626 28.625L37.1876 29.5C36.8126 29.875 37.0626 30.5625 37.6251 30.5625C37.8126 30.5625 37.9376 30.5 38.0626 30.375L38.9376 29.5C39.1876 29.25 39.1251 28.8125 38.8751 28.625C38.6251 28.4375 38.2501 28.4375 38.0626 28.625Z" fill="white"/>
<path d="M18.9375 47.75L18.0625 48.625C17.8125 48.875 17.8125 49.25 18.0625 49.5C18.3125 49.75 18.6875 49.75 18.9375 49.5C18.9375 49.5 19 49.4375 19.8125 48.625C20.0625 48.375 20 47.9375 19.75 47.75C19.5 47.5625 19.125 47.5625 18.9375 47.75Z" fill="white"/>
<path d="M38.0003 47.75C37.7503 47.5 37.3753 47.5 37.1253 47.75C37.0003 47.875 36.7503 48.3125 37.1253 48.625L38.0003 49.5C38.2503 49.75 38.6253 49.75 38.8753 49.5C39.1253 49.25 39.1253 48.875 38.8753 48.625L38.0003 47.75Z" fill="white"/>
<path d="M18.9378 28.625C18.6878 28.375 18.3128 28.375 18.0628 28.625C17.9378 28.75 17.6878 29.1875 18.0628 29.5L18.9378 30.375C19.1878 30.625 19.5628 30.625 19.8128 30.375C20.0628 30.125 20.0628 29.75 19.8128 29.5L18.9378 28.625Z" fill="white"/>
<path d="M49.0627 30.9374C48.4377 29.9999 47.3127 30.0624 47.3752 30.0624C45.9377 26.9999 43.7502 24.3749 41.0627 22.3124V12.1249H41.6877C43.3127 12.1249 44.2502 10.3124 43.3752 8.9999L37.9377 0.8749C37.3127 -0.0625999 36.0627 -0.3126 35.1252 0.3124C34.6877 0.6249 35.0627 0.1249 29.1252 8.9374C28.2502 10.3124 29.2502 12.0624 30.8127 12.0624H31.4377V18.3124C26.7502 17.6249 21.7502 18.5624 17.5002 21.2499V17.4999H18.1252C19.7502 17.4999 20.6877 15.6874 19.8127 14.3749L14.3752 6.3124C13.7502 5.3749 12.5002 5.1249 11.5627 5.7499C11.0627 6.0624 11.4377 5.6249 5.50019 14.3749C4.62519 15.7499 5.62519 17.4999 7.18769 17.4999H7.81269V35.8124C6.00019 47.2499 13.8127 57.9374 25.2502 59.7499C31.5002 60.7499 37.8752 58.8124 42.5627 54.5624V57.6874C42.5627 58.9374 43.5627 59.9374 44.8127 59.9374H50.0002C51.2502 59.9374 52.2502 58.9374 52.2502 57.6874V42.1874H52.8752C54.5002 42.1874 55.4377 40.3749 54.5627 39.0624C54.4377 38.9999 54.7502 39.4374 49.0627 30.9374ZM32.0002 10.8749H30.7502C30.1252 10.8749 29.7502 10.1874 30.1252 9.6874L35.6252 1.5624C35.9377 1.1249 36.5627 1.1249 36.8752 1.5624L42.3127 9.6249C42.6252 10.1249 42.3127 10.8124 41.6877 10.8124H40.4377C40.0627 10.8124 39.8127 11.0624 39.8127 11.4374V21.4374C37.6252 19.9999 35.1877 18.9999 32.6252 18.4999V11.4999C32.6252 11.3124 32.5002 10.8749 32.0002 10.8749ZM8.43769 16.2499H7.18769C6.75019 16.2499 6.43769 15.8749 6.43769 15.4999C6.43769 15.1874 6.06269 15.8124 12.0002 6.9999C12.3127 6.6249 12.9377 6.6249 13.2502 6.9999L18.6877 15.0624C18.9377 15.4374 18.8127 15.8749 18.5002 16.1249C18.2502 16.3124 18.1252 16.2499 16.8127 16.2499C16.4377 16.2499 16.1877 16.4999 16.1877 16.8749V22.0624C13.0002 24.3749 10.5002 27.5624 9.06269 31.2499V16.8749C9.00019 16.5624 8.75019 16.2499 8.43769 16.2499ZM28.5002 58.7499C17.8127 58.7499 8.81269 50.1874 8.81269 38.9999C8.81269 32.7499 11.8127 26.5624 17.4377 22.6874C27.3752 15.9374 40.9377 19.6874 46.1252 30.4374C45.7502 30.6874 45.7502 30.7499 44.5002 32.6249C40.9377 23.7499 30.8752 19.3749 22.0002 22.9374C13.1252 26.4999 8.75019 36.5624 12.3127 45.4374C17.3752 58.2499 34.6252 60.1249 42.5002 49.1249V52.8124C38.8127 56.6249 33.7502 58.7499 28.5002 58.7499ZM41.9377 42.1874H42.5627V46.8124C38.2502 54.5624 28.5002 57.4374 20.7502 53.1249C13.0002 48.8124 10.1252 39.0624 14.4377 31.3124C18.7502 23.5624 28.5002 20.6874 36.2502 24.9999C39.7502 26.9374 42.4377 30.1249 43.6877 33.9374L40.2502 39.0624C39.3752 40.3749 40.3127 42.1874 41.9377 42.1874ZM52.8127 40.9374H51.5627C51.1877 40.9374 50.9377 41.1874 50.9377 41.5624V57.7499C50.9377 58.3124 50.5002 58.6874 50.0002 58.7499H44.7502C44.1877 58.7499 43.7502 58.3124 43.7502 57.7499C43.7502 56.4374 43.7502 43.3124 43.7502 41.5624C43.7502 41.1874 43.5002 40.9374 43.1252 40.9374H41.8752C41.4377 40.9374 41.1252 40.5624 41.1252 40.1874C41.1252 39.8124 40.8127 40.3749 46.6877 31.6874C46.9377 31.3124 47.4377 31.3124 47.8127 31.5624C47.9377 31.6874 47.6252 31.1874 53.3752 39.7499C53.8127 40.2499 53.4377 40.9374 52.8127 40.9374Z" fill="white"/>
</g>
<defs>
<clipPath id="clip0_93_23">
<rect width="60" height="60" fill="white"/>
</clipPath>
</defs>
</svg>
