<svg width="56" height="68" viewBox="0 0 56 68" fill="none" xmlns="http://www.w3.org/2000/svg">
<path d="M21.613 57.8787C19.6681 57.3253 17.9373 56.1941 16.6497 54.635C16.4185 54.3949 16.092 54.0563 15.9014 53.8908C15.6523 53.8386 15.181 53.7879 14.853 53.7521C12.8604 53.684 10.9353 53.0131 9.33201 51.8279C8.48509 51.126 7.79243 50.2565 7.29752 49.2742L1.34235 59.5908C1.05443 60.0889 0.913143 60.6583 0.934776 61.2333C0.95641 61.8083 1.14008 62.3655 1.46462 62.8406C1.78916 63.3157 2.24136 63.6895 2.76909 63.9187C3.29682 64.148 3.87861 64.2235 4.44738 64.1365L9.76404 63.3282L11.7237 68.3406C11.9311 68.8775 12.287 69.3443 12.75 69.6863C13.2129 70.0283 13.7636 70.2314 14.3377 70.2719C14.4167 70.2779 14.4958 70.2809 14.5749 70.2809C15.1104 70.2822 15.6366 70.1416 16.1001 69.8733C16.5635 69.605 16.9475 69.2187 17.2131 68.7537L23.3911 58.0522C23.3453 58.0529 23.3026 58.0621 23.2561 58.0621C22.7032 58.0631 22.152 58.0015 21.613 57.8787Z" fill="#F16E0F"/>
<path d="M49.5379 49.2729C49.0435 50.2561 48.3514 51.1266 47.5049 51.8297C45.9014 53.0145 43.9764 53.6854 41.9839 53.754C41.6528 53.7897 41.18 53.8404 40.9324 53.8926C40.7415 54.0582 40.412 54.3996 40.1841 54.6383C38.8992 56.1928 37.1734 57.3216 35.2343 57.8759C34.6898 58.0013 34.1328 58.0643 33.5741 58.0636C33.53 58.0636 33.49 58.0549 33.4463 58.0541L39.6231 68.7537C39.8886 69.2187 40.2727 69.605 40.7361 69.8733C41.1995 70.1416 41.7258 70.2822 42.2612 70.2809C42.3402 70.2809 42.4193 70.2779 42.4984 70.2719C43.0729 70.2313 43.624 70.0279 44.0872 69.6857C44.5505 69.3434 44.9067 68.8764 45.1143 68.3391L47.0724 63.3282L52.3869 64.1365C52.9559 64.224 53.5379 64.1488 54.066 63.9197C54.5941 63.6906 55.0466 63.3169 55.3714 62.8417C55.6963 62.3665 55.8802 61.8092 55.9019 61.234C55.9236 60.6588 55.7823 60.0891 55.4942 59.5908L49.5379 49.2729Z" fill="#F16E0F"/>
<path d="M28.4191 12.2488C25.3987 12.2488 22.446 13.1444 19.9346 14.8225C17.4232 16.5006 15.4658 18.8857 14.31 21.6762C13.1541 24.4667 12.8516 27.5373 13.4409 30.4998C14.0302 33.4622 15.4846 36.1833 17.6204 38.3191C19.7562 40.4549 22.4773 41.9093 25.4397 42.4986C28.4022 43.0879 31.4728 42.7854 34.2633 41.6296C37.0538 40.4737 39.4389 38.5163 41.117 36.0049C42.7951 33.4935 43.6907 30.5409 43.6907 27.5204C43.686 23.4716 42.0755 19.59 39.2125 16.727C36.3495 13.8641 32.4679 12.2535 28.4191 12.2488ZM35.7983 23.786L29.6897 32.949C29.5643 33.1369 29.3988 33.2946 29.2051 33.4108C29.0115 33.527 28.7944 33.5988 28.5697 33.621C28.519 33.626 28.4683 33.6291 28.4191 33.6291C28.0141 33.629 27.6257 33.468 27.3394 33.1816L22.7579 28.6001C22.4797 28.3121 22.3258 27.9263 22.3293 27.5259C22.3327 27.1255 22.4934 26.7425 22.7765 26.4593C23.0597 26.1762 23.4427 26.0155 23.8431 26.0121C24.2435 26.0086 24.6293 26.1625 24.9173 26.4407L28.1819 29.7053L33.257 22.0918C33.4818 21.7552 33.8311 21.5216 34.2281 21.4424C34.6251 21.3631 35.0373 21.4448 35.3741 21.6693C35.7109 21.8939 35.9448 22.2429 36.0243 22.6399C36.1039 23.0368 36.0226 23.449 35.7983 23.786Z" fill="#F16E0F"/>
<path d="M34.5425 54.9004C35.8982 54.4621 37.0947 53.6342 37.9828 52.5201C38.4382 51.9819 38.9733 51.5166 39.5697 51.1406C40.2373 50.8915 40.9398 50.7486 41.6516 50.7171C43.0533 50.6945 44.4172 50.2589 45.5725 49.4648C46.5886 48.479 47.3016 47.2232 47.6276 45.8454C47.815 45.1418 48.1076 44.4706 48.4956 43.8545C48.9883 43.3404 49.5572 42.9053 50.1824 42.5645C51.4433 41.9213 52.49 40.9254 53.195 39.698C53.6866 38.3791 53.7952 36.948 53.5082 35.5699C53.3766 34.8369 53.357 34.0882 53.45 33.3493C53.6719 32.6768 53.9942 32.0417 54.406 31.4657C55.2732 30.321 55.7942 28.9519 55.9075 27.5204C55.7936 26.0899 55.273 24.7217 54.4073 23.5773C53.9947 23.0009 53.6718 22.3653 53.4497 21.6921C53.3567 20.9538 53.3763 20.2055 53.5079 19.473C53.7947 18.0951 53.6867 16.6642 53.1962 15.3449C52.4909 14.1187 51.4449 13.1235 50.1851 12.48C49.5592 12.1383 48.9898 11.7022 48.4968 11.1869C48.1086 10.5707 47.8155 9.89955 47.6274 9.19598C47.3024 7.81864 46.5898 6.56316 45.5738 5.57798C44.4185 4.78393 43.0547 4.34833 41.653 4.32571C40.9412 4.29422 40.2386 4.15133 39.571 3.90222C38.9754 3.52522 38.4404 3.06011 37.9842 2.52274C37.0959 1.40734 35.8989 0.578089 34.5425 0.138378C33.1702 -0.0557775 31.771 0.157377 30.5188 0.751381C29.8519 1.04411 29.1432 1.23045 28.4186 1.3036C27.6946 1.23071 26.9865 1.04452 26.3203 0.75184C25.0678 0.156865 23.6677 -0.0556161 22.2952 0.140975C20.9394 0.579078 19.7427 1.40677 18.8545 2.52075C18.3991 3.05894 17.8639 3.52416 17.2676 3.90024C16.6 4.14934 15.8975 4.29224 15.1856 4.32372C13.7839 4.34634 12.4201 4.78195 11.2648 5.57599C10.2487 6.56183 9.5356 7.81765 9.20966 9.19537C9.02224 9.89895 8.72959 10.5702 8.34162 11.1863C7.84897 11.7004 7.28005 12.1355 6.65487 12.4763C5.39394 13.1195 4.34723 14.1154 3.64223 15.3428C3.15059 16.6618 3.04201 18.0929 3.32901 19.4709C3.46061 20.2039 3.48023 20.9526 3.3872 21.6915C3.16535 22.364 2.84303 22.9991 2.43119 23.5751C1.56406 24.7198 1.043 26.0889 0.929688 27.5204C1.04364 28.9509 1.56419 30.3191 2.42997 31.4635C2.84257 32.0399 3.16541 32.6755 3.3875 33.3487C3.48062 34.0873 3.461 34.8358 3.32932 35.5686C3.04253 36.9465 3.15058 38.3774 3.64101 39.6966C4.34632 40.9229 5.39232 41.9181 6.65212 42.5616C7.27799 42.9033 7.84744 43.3394 8.3404 43.8546C8.7286 44.4708 9.02169 45.142 9.20981 45.8456C9.53483 47.2229 10.2474 48.4784 11.2634 49.4636C12.4187 50.2576 13.7825 50.6932 15.1842 50.7159C15.8961 50.7473 16.5986 50.8902 17.2662 51.1393C17.8618 51.5163 18.3969 51.9815 18.8531 52.5188C19.7415 53.6339 20.9384 54.4629 22.2947 54.9024C23.667 55.096 25.066 54.8829 26.3185 54.2894C26.9853 53.9967 27.694 53.8104 28.4186 53.7372C29.1426 53.8101 29.8507 53.9963 30.5169 54.289C31.4861 54.7061 32.5209 54.9499 33.5743 55.0093C33.9002 55.0104 34.2251 54.9739 34.5425 54.9004ZM28.4186 45.8464C24.7941 45.8464 21.2509 44.7716 18.2373 42.7579C15.2236 40.7442 12.8747 37.8821 11.4876 34.5334C10.1006 31.1848 9.73768 27.5001 10.4448 23.9452C11.1519 20.3903 12.8973 17.1249 15.4602 14.562C18.0231 11.9991 21.2885 10.2537 24.8434 9.54658C28.3983 8.83947 32.083 9.20238 35.4317 10.5894C38.7803 11.9765 41.6424 14.3254 43.6561 17.3391C45.6698 20.3527 46.7446 23.8959 46.7446 27.5204C46.7393 32.3791 44.8068 37.0373 41.3712 40.473C37.9355 43.9086 33.2773 45.8411 28.4186 45.8464Z" fill="#F16E0F"/>
</svg>
