<svg width="85" height="85" viewBox="0 0 85 85" fill="none" xmlns="http://www.w3.org/2000/svg">
<path d="M17.665 76.9778L14.1588 77.8677C13.7926 77.968 13.4016 77.9215 13.0692 77.7379C12.7368 77.5544 12.4892 77.2483 12.3791 76.8849L6.82752 56.5778C6.78389 56.4033 6.77593 56.2217 6.80409 56.044C6.83226 55.8663 6.89599 55.6961 6.99147 55.5436C7.08694 55.391 7.2122 55.2594 7.35975 55.1564C7.50729 55.0534 7.6741 54.9812 7.85018 54.9442L11.3564 54.0544C11.7208 53.9527 12.1106 53.997 12.4429 54.178C12.7752 54.3591 13.0239 54.6625 13.1361 55.0239V55.0372C19.2681 77.4312 18.3002 73.8881 18.6876 75.331C18.7305 75.5063 18.738 75.6885 18.7096 75.8668C18.6813 76.0451 18.6176 76.2159 18.5224 76.3693C18.4271 76.5226 18.3022 76.6555 18.155 76.76C18.0078 76.8645 17.8412 76.9385 17.665 76.9778Z" fill="#F16E0F"/>
<path d="M77.848 57.2307C78.0031 57.4406 78.1131 57.6804 78.1711 57.9349C78.2292 58.1894 78.2339 58.4531 78.1851 58.7096C78.1364 58.966 78.0351 59.2096 77.8877 59.425C77.7403 59.6404 77.5499 59.8231 77.3286 59.9614L47.9596 78.3459C47.4798 78.6525 46.944 78.8608 46.3832 78.9589C45.8224 79.0569 45.2477 79.0427 44.6924 78.917C44.681 78.9143 20.9405 73.48 20.9322 73.4717L15.7393 54.4529C18.701 53.8022 21.7025 53.1248 23.708 52.6732C25.2629 52.3288 26.8817 52.4068 28.3963 52.899L38.5033 56.1662C39.3907 56.457 40.3187 56.6049 41.2525 56.6045C45.8163 56.3025 50.395 56.3025 54.9588 56.6045C55.6045 56.6643 56.2115 56.9392 56.6824 57.3851C57.1533 57.831 57.4609 58.422 57.5558 59.0636C57.6507 59.7051 57.5275 60.3599 57.2059 60.9231C56.8843 61.4862 56.383 61.9251 55.7822 62.1693C52.1697 63.5107 41.0799 63.0459 37.1088 62.7537C36.7583 62.7273 36.4117 62.8412 36.1452 63.0703C35.8787 63.2995 35.7141 63.6251 35.6877 63.9756C35.6613 64.3261 35.7752 64.6727 36.0043 64.9392C36.2335 65.2057 36.5591 65.3703 36.9096 65.3967C39.6799 65.6278 52.2466 66.339 56.7252 64.6529C60.2507 63.3028 60.8686 59.7256 60.2049 58.3975C63.0338 57.0693 67.4697 55.0107 69.3689 54.2404C70.2528 53.8963 71.1976 53.7365 72.1454 53.7707C73.0932 53.805 74.024 54.0326 74.8807 54.4397C76.0121 55.2061 77.0138 56.1483 77.848 57.2307Z" fill="#F16E0F"/>
<path d="M42.5 5.97668C40.1359 5.97668 37.8249 6.67772 35.8592 7.99115C33.8935 9.30458 32.3615 11.1714 31.4568 13.3555C30.5521 15.5397 30.3153 17.9431 30.7766 20.2617C31.2378 22.5804 32.3762 24.7103 34.0479 26.3819C35.7195 28.0536 37.8494 29.192 40.1681 29.6533C42.4867 30.1145 44.8901 29.8778 47.0743 28.9731C49.2584 28.0684 51.1252 26.5363 52.4387 24.5706C53.7521 22.6049 54.4531 20.2939 54.4531 17.9298C54.4484 14.7611 53.1875 11.7235 50.9469 9.48292C48.7063 7.24231 45.6687 5.98144 42.5 5.97668ZM43.8281 23.7736V24.1454C43.8281 24.4977 43.6882 24.8355 43.4391 25.0846C43.1901 25.3336 42.8522 25.4736 42.5 25.4736C42.1478 25.4736 41.81 25.3336 41.5609 25.0846C41.3118 24.8355 41.1719 24.4977 41.1719 24.1454V23.7736C40.1925 23.5132 39.3451 22.8978 38.7945 22.047C38.6098 21.7494 38.5504 21.3907 38.6294 21.0495C38.7085 20.7082 38.9194 20.4121 39.2162 20.226C39.5129 20.0399 39.8713 19.9789 40.2129 20.0563C40.5545 20.1337 40.8516 20.3433 41.0391 20.6392C41.2115 20.8589 41.4342 21.0339 41.6885 21.1495C41.9428 21.2651 42.2211 21.3178 42.5 21.3032C43.4164 21.3032 44.0672 20.7587 44.0672 20.2806C44.0672 19.5385 43.0381 19.305 42.3274 19.2314C39.3484 18.8929 38.2766 17.1024 38.2766 15.579C38.3137 14.7612 38.6164 13.9777 39.1389 13.3474C39.6614 12.7171 40.3751 12.2742 41.1719 12.0861V11.7142C41.1719 11.3619 41.3118 11.0241 41.5609 10.7751C41.81 10.526 42.1478 10.3861 42.5 10.3861C42.8522 10.3861 43.1901 10.526 43.4391 10.7751C43.6882 11.0241 43.8281 11.3619 43.8281 11.7142V12.0993C44.7831 12.3427 45.6151 12.9289 46.1656 13.7462C46.3545 14.0403 46.4198 14.3971 46.3474 14.739C46.2749 15.081 46.0706 15.3806 45.7787 15.5729C45.4868 15.7651 45.1308 15.8346 44.7881 15.7661C44.4453 15.6976 44.1433 15.4968 43.9477 15.2072C43.7757 14.9911 43.5546 14.8194 43.3028 14.7062C43.051 14.5929 42.7757 14.5416 42.5 14.5563C41.5836 14.5563 40.9328 15.1008 40.9328 15.579C40.9328 16.3067 41.8721 16.5137 42.593 16.5884C45.373 16.853 46.7234 18.5838 46.7234 20.2805C46.6863 21.0984 46.3836 21.8819 45.8611 22.5122C45.3386 23.1425 44.6249 23.5854 43.8281 23.7736Z" fill="#F16E0F"/>
<path d="M43.7619 53.3774C43.8674 53.7111 43.837 54.0729 43.6771 54.3842C43.5172 54.6955 43.2409 54.931 42.9082 55.0396C42.5755 55.1481 42.2134 55.1209 41.9007 54.9638C41.588 54.8068 41.35 54.5325 41.2384 54.2009C38.9605 47.1439 38.6528 39.5988 40.3486 32.3798C41.2449 32.5154 42.1522 32.5644 43.058 32.5259C41.331 39.4047 41.5749 46.6307 43.7619 53.3774Z" fill="#F16E0F"/>
<path d="M43.7619 53.3774C43.8674 53.7111 43.837 54.0729 43.6771 54.3842C43.5172 54.6955 43.2409 54.931 42.9082 55.0396C42.5755 55.1481 42.2134 55.1209 41.9007 54.9638C41.588 54.8068 41.35 54.5325 41.2384 54.2009C38.9605 47.1439 38.6528 39.5988 40.3486 32.3798C41.2449 32.5154 42.1522 32.5644 43.058 32.5259C41.331 39.4047 41.5749 46.6307 43.7619 53.3774Z" fill="#F16E0F"/>
<path d="M61.7577 35.8329C56.752 44.0154 52.1045 45.5632 44.6249 43.5493C44.4938 41.0718 44.6274 38.5875 45.0233 36.1383C47.7036 33.3742 51.4372 30.4131 60.6022 32.7915C60.9085 32.8746 61.1907 33.029 61.4258 33.2421C61.661 33.4553 61.8423 33.721 61.955 34.0177C62.0677 34.3144 62.1086 34.6335 62.0743 34.949C62.04 35.2645 61.9315 35.5673 61.7577 35.8329Z" fill="#F16E0F"/>
<path d="M37.1611 34.8368C36.737 37.4531 36.5547 40.1028 36.6166 42.7524H36.59C27.5093 42.7524 23.8181 38.7997 21.7017 30.1087C21.6222 29.8014 21.6156 29.4799 21.6822 29.1696C21.7488 28.8593 21.8869 28.5688 22.0854 28.3212C22.284 28.0736 22.5376 27.8758 22.826 27.7434C23.1145 27.6111 23.4298 27.5478 23.747 27.5587C32.7697 28.1638 35.435 31.6621 37.1611 34.8368Z" fill="#F16E0F"/>
</svg>
