<svg width="81" height="81" viewBox="0 0 81 81" fill="none" xmlns="http://www.w3.org/2000/svg">
<path d="M31.4998 21.3751C32.9911 21.3768 34.4209 21.9699 35.4754 23.0244C36.5299 24.0789 37.1231 25.5087 37.1247 27V38.475H43.8747V27C43.8763 25.5087 44.4695 24.0789 45.524 23.0244C46.5785 21.9699 48.0083 21.3768 49.4996 21.3751C54.4508 21.3695 59.1977 19.4002 62.6987 15.8992C66.1998 12.3981 68.1691 7.65126 68.1747 2.70002C68.1747 2.521 68.1036 2.34931 67.977 2.22273C67.8504 2.09614 67.6787 2.02502 67.4997 2.02502H58.4998C54.4164 2.03019 50.4468 3.37115 47.1968 5.84327C43.9468 8.31539 41.5948 11.7829 40.4997 15.7167C39.4046 11.7829 37.0526 8.31539 33.8026 5.84327C30.5526 3.37115 26.583 2.03019 22.4996 2.02502H13.4997C13.3207 2.02502 13.149 2.09614 13.0224 2.22273C12.8958 2.34931 12.8247 2.521 12.8247 2.70002C12.8303 7.65126 14.7996 12.3981 18.3007 15.8992C21.8017 19.4002 26.5486 21.3695 31.4998 21.3751Z" fill="#F16E0F"/>
<path d="M77.9702 40.9051C77.6539 40.5648 77.271 40.2933 76.8452 40.1075C76.4194 39.9217 75.9599 39.8256 75.4954 39.8251H5.50436C5.03887 39.8254 4.57847 39.9219 4.15203 40.1085C3.72559 40.2951 3.34229 40.5678 3.02618 40.9095C2.71007 41.2512 2.46796 41.6545 2.31503 42.0941C2.1621 42.5338 2.10164 43.0003 2.13746 43.4644C2.19821 44.2614 2.28569 45.0534 2.39504 45.8404C4.45302 44.8577 6.61766 44.116 8.84588 43.6302C11.8788 42.9839 14.9926 42.8036 18.0799 43.0956C19.31 43.1982 20.4743 43.6946 21.4002 44.511C22.326 45.3274 22.9641 46.4205 23.2199 47.6281C23.4315 48.5441 23.4073 49.4989 23.1496 50.403C22.8919 51.3072 22.409 52.1312 21.7462 52.798C20.9596 53.6072 20.5125 54.6866 20.4964 55.815C20.4803 56.9433 20.8966 58.0351 21.6598 58.8663L22.9353 60.2811C24.9866 62.4765 26.5041 65.1154 27.3699 67.9925C28.2357 70.8697 28.4264 73.9078 27.9273 76.8707C31.0416 77.9451 34.2812 78.6143 37.5663 78.8617L37.8023 75.7891C37.9468 74.1059 38.6295 72.514 39.7492 71.249C40.8689 69.984 42.3661 69.1131 44.0193 68.7653C45.323 68.5004 46.5137 67.8412 47.4302 66.877C48.3467 65.9128 48.9447 64.6901 49.1431 63.3747L49.9026 58.1135C50.0684 57.0107 50.4652 55.9554 51.067 55.0166C51.6688 54.0777 52.4622 53.2766 53.395 52.6655C54.3279 52.0545 55.3793 51.6473 56.4804 51.4707C57.5815 51.294 58.7074 51.3519 59.7846 51.6405C61.0971 51.9959 62.4418 52.2193 63.7987 52.3074C66.4482 52.4858 69.1062 52.1238 71.6115 51.2435C74.1168 50.3632 76.417 48.9829 78.3725 47.1864L78.3995 47.1623C78.6123 45.9434 78.7668 44.7104 78.8631 43.4633C78.8979 42.9984 78.8366 42.5314 78.683 42.0912C78.5294 41.6511 78.2867 41.2473 77.9702 40.9051Z" fill="#F16E0F"/>
<path d="M63.7121 53.6557C62.2665 53.5618 60.8339 53.3238 59.4356 52.9454C58.5422 52.706 57.6084 52.6579 56.6952 52.8042C55.7819 52.9506 54.9099 53.2881 54.1361 53.7947C53.3623 54.3013 52.7042 54.9656 52.2048 55.744C51.7054 56.5225 51.376 57.3976 51.2381 58.3122L50.4778 63.5772C50.2392 65.1654 49.5181 66.6419 48.412 67.8064C47.306 68.9709 45.8686 69.7671 44.2948 70.0871C42.9272 70.3742 41.6884 71.0939 40.7617 72.1397C39.8349 73.1855 39.2694 74.5019 39.1489 75.894L38.915 78.9402C39.4421 78.9615 39.9705 78.9745 40.5005 78.9745C49.1784 78.973 57.6012 76.0392 64.402 70.649C71.2029 65.2588 75.9828 57.7286 77.966 49.2804C73.9 52.4144 68.8361 53.9688 63.7121 53.6557Z" fill="#F16E0F"/>
<path d="M20.6639 59.7781C19.6681 58.6925 19.1255 57.267 19.1472 55.7941C19.1688 54.3212 19.7532 52.9123 20.7805 51.8565C21.2855 51.3483 21.6532 50.7202 21.8492 50.0311C22.0452 49.3419 22.0631 48.6144 21.9013 47.9164C21.704 46.9895 21.2134 46.1508 20.5021 45.5246C19.7908 44.8984 18.8967 44.5179 17.9523 44.4396C15.0035 44.1613 12.0297 44.3333 9.1327 44.9497C6.87446 45.4406 4.68497 46.2068 2.61328 47.2309C3.77511 53.7469 6.59596 59.8538 10.8039 64.9628C15.0118 70.0718 20.465 74.0106 26.6376 76.3995C27.0571 73.6749 26.8523 70.8906 26.0388 68.2567C25.2252 65.6228 23.8241 63.208 21.9412 61.1945L20.6639 59.7781Z" fill="#F16E0F"/>
</svg>
