<svg width="100" height="82" viewBox="0 0 100 82" fill="none" xmlns="http://www.w3.org/2000/svg">
<path d="M98.5352 78.7025H92.8941C97.1836 75.7273 100 70.7709 100 65.1668C100 60.284 97.8615 55.8932 94.4744 52.8752V37.6871C94.4744 35.5494 92.865 33.7023 90.7309 33.391C90.7137 33.3885 90.6965 33.3863 90.6791 33.3844L81.5457 32.3812V29.8674C81.5457 29.0584 80.89 28.4025 80.0809 28.4025C79.2717 28.4025 78.616 29.0584 78.616 29.8674V32.0596L74.5721 31.6154V20.1359C74.5721 19.8668 74.791 19.6477 75.0603 19.6477H78.1277C78.3971 19.6477 78.616 19.8668 78.616 20.1359V22.8361C78.616 23.6451 79.2717 24.301 80.0809 24.301C80.89 24.301 81.5457 23.6451 81.5457 22.8361V20.1359C81.5457 18.275 80.05 16.7596 78.198 16.7215V8.12227L80.0312 6.74727C80.6783 6.26191 80.8096 5.34355 80.3242 4.69648C79.8387 4.04902 78.9203 3.91816 78.2734 4.40352L75.8543 6.21797C75.4854 6.49473 75.2684 6.92891 75.2684 7.38984V16.718H75.0603C73.1758 16.718 71.6424 18.2514 71.6424 20.1359V31.2936L56.1965 29.5971L49.8227 8.7582H49.9781C51.8629 8.7582 53.3961 7.2248 53.3961 5.34023V3.78613C53.3961 1.90156 51.8627 0.368164 49.9781 0.368164H9.40527C7.5207 0.368164 5.9873 1.90156 5.9873 3.78613V5.34023C5.9873 7.2248 7.5207 8.7582 9.40527 8.7582H9.86133V36.5137C7.5209 37.6361 5.33652 39.107 3.3793 40.9037C2.87891 41.3631 2.58379 42.017 2.56914 42.698C2.55449 43.3834 2.82402 44.0545 3.30879 44.5391L4.96992 46.2002L3.95977 47.2104C2.97871 48.1914 2.93027 49.7574 3.81465 50.7963C3.25527 51.8621 2.79121 52.9824 2.4334 54.132C1.07344 54.2408 0 55.3826 0 56.7703V63.4143C0 64.8018 1.07324 65.9434 2.43359 66.0525C2.79141 67.2021 3.25527 68.3223 3.81484 69.3883C2.93047 70.4271 2.97891 71.9932 3.95996 72.9742L8.65801 77.6723C9.63906 78.6531 11.2051 78.7018 12.2439 77.8174C12.8738 78.148 13.5244 78.4408 14.1871 78.7025H1.46484C0.655859 78.7025 0 79.3584 0 80.1674C0 80.9764 0.655859 81.6322 1.46484 81.6322H98.5352C99.3443 81.6322 100 80.9764 100 80.1674C100 79.3584 99.3443 78.7025 98.5352 78.7025ZM56.5428 32.5824L90.3291 36.2934C91.0238 36.4053 91.5447 37.0008 91.5447 37.6873V43.0889H60.1184C58.1467 43.0889 56.5428 41.485 56.5428 39.5133V32.5824ZM53.098 29.483H35.6119C34.8029 29.483 34.1471 30.1389 34.1471 30.9478C34.1471 31.7568 34.8029 32.4127 35.6119 32.4127H53.6131V39.5133C53.6131 43.1002 56.5312 46.0186 60.1184 46.0186H91.5447V50.7885C89.1721 49.4613 86.441 48.7014 83.5346 48.7014C74.4564 48.7014 67.0709 56.0863 67.0693 65.1643H47.5527C48.2273 61.3393 48.0639 57.3875 47.0607 53.6287C45.8611 49.1342 43.4791 45.0105 40.1719 41.7031C35.2891 36.8203 28.7988 34.0547 21.8969 33.9156C18.7586 33.8537 15.6859 34.3369 12.791 35.3189V32.4123H28.7109C29.5199 32.4123 30.1758 31.7564 30.1758 30.9475C30.1758 30.1385 29.5199 29.4826 28.7109 29.4826H25.3756V8.7582H46.759L53.098 29.483ZM12.7912 29.483V8.7582H22.4461V29.483H12.7912ZM9.40527 5.82852C9.13613 5.82852 8.91699 5.60937 8.91699 5.34023V3.78613C8.91699 3.51699 9.13613 3.29785 9.40527 3.29785H49.9781C50.2473 3.29785 50.4664 3.51699 50.4664 3.78613V5.34023C50.4664 5.60937 50.2473 5.82852 49.9781 5.82852H9.40527ZM21.8381 36.8451C27.9797 36.9688 33.7553 39.4297 38.1004 43.775C41.0438 46.7184 43.1635 50.3871 44.2303 54.3844C45.168 57.8979 45.2836 61.6014 44.5744 65.1645H42.4143C42.8273 64.6975 43.0799 64.0854 43.0799 63.4143V56.7703C43.0799 55.3828 42.0066 54.2412 40.6463 54.132C40.2885 52.9826 39.8246 51.8621 39.265 50.7963C40.1494 49.7574 40.101 48.1914 39.1199 47.2104L34.4219 42.5123C33.4406 41.5312 31.8746 41.4828 30.8359 42.3672C29.7701 41.8078 28.6498 41.3438 27.5002 40.9859C27.3912 39.6258 26.2494 38.5523 24.8617 38.5523H18.218C16.8305 38.5523 15.6889 39.6256 15.5797 40.9859C14.4301 41.3438 13.31 41.8076 12.2439 42.3672C11.2053 41.483 9.63945 41.5311 8.65801 42.5123L7.0418 44.1285L5.68398 42.7707C10.1404 38.826 15.8588 36.7268 21.8381 36.8451ZM24.5939 78.7025H18.4861C18.3754 77.648 17.6498 76.7625 16.6109 76.4504C15.5205 76.1229 14.4594 75.6834 13.4568 75.1443C12.5021 74.6307 11.3633 74.7441 10.5398 75.4109L6.2209 71.092C6.88809 70.2686 7.00117 69.1299 6.4877 68.1752C5.94863 67.1725 5.50918 66.1113 5.18164 65.0209C4.86953 63.9822 3.98418 63.2566 2.92949 63.1459V57.0381C3.98398 56.9273 4.86953 56.2018 5.18145 55.1629C5.50898 54.0725 5.94844 53.0113 6.4877 52.0088C7.00117 51.0539 6.88789 49.9154 6.2209 49.092L10.5398 44.773C11.3635 45.4402 12.5021 45.5531 13.4566 45.0398C14.4594 44.5008 15.5205 44.0613 16.6109 43.7338C17.6496 43.4217 18.3752 42.5363 18.4859 41.4816H24.5938C24.7045 42.5361 25.4301 43.4217 26.4689 43.7336C27.5594 44.0611 28.6205 44.5006 29.623 45.0398C30.5777 45.5533 31.7162 45.44 32.5398 44.773L36.8588 49.092C36.1918 49.9156 36.0787 51.0543 36.592 52.0088C37.1311 53.0113 37.5705 54.0727 37.898 55.1629C38.2102 56.2018 39.0955 56.9272 40.1502 57.0381V63.1459C39.0957 63.2566 38.2102 63.9822 37.898 65.0211C37.5705 66.1115 37.1311 67.1727 36.592 68.1752C36.0787 69.1299 36.1918 70.2684 36.8588 71.092L32.5398 75.4109C31.7164 74.7441 30.5777 74.6307 29.623 75.1441C28.6205 75.6832 27.5592 76.1227 26.4689 76.4502C25.4303 76.7625 24.7047 77.6479 24.5939 78.7025ZM28.893 78.7025C29.5557 78.4408 30.2062 78.148 30.8361 77.8174C31.875 78.702 33.4412 78.6533 34.4221 77.6723L39.1201 72.9742C40.1012 71.9932 40.1496 70.4269 39.2652 69.3883C39.4871 68.9656 39.6895 68.5322 39.8807 68.0941H67.3354C68.125 72.475 70.6508 76.258 74.1754 78.7025H28.893ZM69.9992 65.1668C69.9992 57.7031 76.0713 51.6311 83.5348 51.6311C90.9984 51.6311 97.0705 57.7031 97.0705 65.1668C97.0705 72.6303 90.9984 78.7023 83.5348 78.7023C76.0711 78.7025 69.9992 72.6305 69.9992 65.1668Z" fill="#F07E2C"/>
</svg>
