<svg width="100" height="100" viewBox="0 0 100 100" fill="none" xmlns="http://www.w3.org/2000/svg">
<circle cx="50" cy="50" r="49.5" fill="#FFE8D2" stroke="#F56311"/>
<path d="M85.3554 14.6446C75.9117 5.20096 63.3553 0 50 0C36.6447 0 24.0883 5.20096 14.6446 14.6446C5.20096 24.0883 0 36.6447 0 50C0 63.3553 5.20096 75.9117 14.6446 85.3554C24.0883 94.799 36.6447 100 50 100C63.3553 100 75.9117 94.799 85.3554 85.3554C94.799 75.9117 100 63.3553 100 50C100 36.6447 94.799 24.0883 85.3554 14.6446ZM21.7003 83.847C23.3513 69.6411 35.5652 58.6731 50 58.6731C57.6096 58.6731 64.7652 61.6379 70.1477 67.0197C74.6948 71.5675 77.5627 77.5055 78.3005 83.8463C70.6329 90.2679 60.7605 94.1406 50 94.1406C39.2395 94.1406 29.3678 90.2687 21.7003 83.847ZM50 52.6382C41.6267 52.6382 34.8137 45.8252 34.8137 37.4519C34.8137 29.0779 41.6267 22.2656 50 22.2656C58.3733 22.2656 65.1863 29.0779 65.1863 37.4519C65.1863 45.8252 58.3733 52.6382 50 52.6382ZM83.3435 78.8933C81.8504 72.8737 78.7369 67.3233 74.2905 62.8769C70.6894 59.2758 66.4291 56.5742 61.7828 54.8813C67.3683 51.0933 71.0457 44.6938 71.0457 37.4519C71.0457 25.8476 61.6043 16.4062 50 16.4062C38.3957 16.4062 28.9543 25.8476 28.9543 37.4519C28.9543 44.6976 32.6347 51.0994 38.2248 54.8866C33.95 56.4445 29.9942 58.8531 26.5907 62.0239C21.6621 66.6138 18.2396 72.4663 16.6527 78.8887C9.93195 71.1411 5.85938 61.0374 5.85938 50C5.85938 25.6607 25.6607 5.85938 50 5.85938C74.3393 5.85938 94.1406 25.6607 94.1406 50C94.1406 61.0397 90.0665 71.1456 83.3435 78.8933Z" fill="#F07E2C"/>
</svg>
