<svg width="40" height="40" viewBox="0 0 40 40" fill="none" xmlns="http://www.w3.org/2000/svg">
<path d="M15.0725 15.8826C15.0683 16.1235 15.1222 16.362 15.2297 16.5777C15.3373 16.7934 15.4952 16.98 15.6902 17.1216C15.8852 17.2633 16.1115 17.3558 16.3499 17.3914C16.5882 17.427 16.8317 17.4045 17.0595 17.326L19.9999 16.2805L22.9397 17.326C23.1676 17.4072 23.4118 17.4316 23.6513 17.3972C23.8907 17.3627 24.1182 17.2704 24.3139 17.1282C24.5097 16.9861 24.6679 16.7983 24.7747 16.5813C24.8816 16.3642 24.9339 16.1244 24.9273 15.8826L24.8415 12.7631L26.7446 10.2899C26.8921 10.0983 26.9907 9.87353 27.0319 9.63518C27.073 9.39682 27.0555 9.15203 26.9807 8.92199C26.906 8.69194 26.7763 8.48358 26.6029 8.31494C26.4295 8.14629 26.2176 8.02245 25.9856 7.95411L22.9921 7.07153L21.2279 4.49706C21.0912 4.2976 20.9079 4.13446 20.6939 4.02173C20.4799 3.90901 20.2417 3.8501 19.9999 3.8501C19.7581 3.8501 19.5198 3.90901 19.3059 4.02173C19.0919 4.13446 18.9086 4.2976 18.7719 4.49706L17.0076 7.07153L14.0142 7.9541C13.7822 8.02238 13.5703 8.14617 13.397 8.31476C13.2236 8.48335 13.0939 8.69166 13.0192 8.92164C12.9444 9.15163 12.9268 9.39637 12.968 9.63468C13.0091 9.87299 13.1077 10.0977 13.2552 10.2893L15.1583 12.7631L15.0725 15.8826ZM14.2458 9.52697C14.2209 9.49668 14.204 9.46061 14.1968 9.42209C14.1895 9.38356 14.192 9.34382 14.2042 9.30654C14.2163 9.26925 14.2376 9.23562 14.2662 9.20876C14.2947 9.18189 14.3296 9.16265 14.3675 9.15282L17.5744 8.2074C17.7123 8.16693 17.8319 8.08003 17.9131 7.96142L19.8028 5.20385C19.8239 5.17074 19.853 5.14348 19.8875 5.12461C19.922 5.10573 19.9606 5.09583 19.9999 5.09583C20.0392 5.09583 20.0778 5.10573 20.1123 5.12461C20.1468 5.14348 20.1759 5.17074 20.197 5.20385L22.0867 7.96145C22.1679 8.08005 22.2875 8.16695 22.4254 8.20742L25.6322 9.15285C25.6702 9.16273 25.7051 9.18202 25.7337 9.20894C25.7623 9.23585 25.7836 9.26954 25.7958 9.30687C25.8079 9.34421 25.8104 9.384 25.8031 9.42258C25.7958 9.46116 25.779 9.49727 25.754 9.5276L23.7154 12.1771C23.6278 12.2909 23.5821 12.4315 23.586 12.5751L23.6779 15.9167C23.6804 15.956 23.6728 15.9952 23.6561 16.0307C23.6393 16.0663 23.6139 16.097 23.5821 16.1201C23.5502 16.1432 23.5131 16.1578 23.4741 16.1627C23.4351 16.1676 23.3955 16.1626 23.359 16.1481L20.2093 15.0281C20.0738 14.9805 19.9261 14.9805 19.7906 15.0281L16.6402 16.1481C16.6038 16.1625 16.5642 16.1675 16.5253 16.1626C16.4863 16.1577 16.4492 16.143 16.4175 16.12C16.3857 16.0969 16.3603 16.0662 16.3436 16.0306C16.3269 15.9951 16.3195 15.956 16.3219 15.9168L16.4138 12.5751C16.4178 12.4315 16.3721 12.291 16.2844 12.1771L14.2458 9.52697Z" fill="#F07E2C"/>
<path d="M36.8749 34.375H36.2499V23.75C36.2492 23.0872 35.9856 22.4517 35.5169 21.983C35.0482 21.5143 34.4128 21.2507 33.7499 21.25H28.7499C28.0871 21.2507 27.4516 21.5143 26.9829 21.983C26.5143 22.4517 26.2506 23.0872 26.2499 23.75V34.375H24.9999V21.6125C24.9999 21.4468 24.9341 21.2878 24.8169 21.1706C24.6997 21.0534 24.5407 20.9875 24.3749 20.9875C24.2092 20.9875 24.0502 21.0534 23.933 21.1706C23.8158 21.2878 23.7499 21.4468 23.7499 21.6125V34.375H16.2499V21.6125C16.2499 21.4468 16.1841 21.2878 16.0669 21.1706C15.9497 21.0534 15.7907 20.9875 15.6249 20.9875C15.4592 20.9875 15.3002 21.0534 15.183 21.1706C15.0658 21.2878 14.9999 21.4468 14.9999 21.6125V34.375H13.7499V25.625C13.7492 24.9622 13.4856 24.3267 13.0169 23.858C12.5482 23.3893 11.9128 23.1257 11.2499 23.125H6.24993C5.5871 23.1257 4.95163 23.3893 4.48294 23.858C4.01425 24.3267 3.75063 24.9622 3.74993 25.625V34.375H3.12493C2.6314 34.3807 2.16002 34.5808 1.81304 34.9318C1.46607 35.2828 1.27148 35.7565 1.27148 36.25C1.27149 36.7436 1.4661 37.2173 1.81308 37.5683C2.16007 37.9193 2.63146 38.1193 3.12499 38.125H36.8749C37.3685 38.1193 37.8398 37.9192 38.1868 37.5682C38.5338 37.2172 38.7284 36.7436 38.7284 36.25C38.7284 35.7564 38.5338 35.2828 38.1868 34.9318C37.8398 34.5808 37.3685 34.3807 36.8749 34.375ZM27.4999 23.75C27.5003 23.4186 27.6321 23.1009 27.8665 22.8665C28.1008 22.6322 28.4185 22.5004 28.7499 22.5H33.7499C34.0813 22.5004 34.3991 22.6322 34.6334 22.8665C34.8677 23.1009 34.9995 23.4186 34.9999 23.75V34.375H27.4999V23.75ZM4.99993 25.625C5.00031 25.2936 5.13212 24.9759 5.36646 24.7415C5.6008 24.5072 5.91852 24.3754 6.24993 24.375H11.2499C11.5813 24.3754 11.8991 24.5072 12.1334 24.7415C12.3677 24.9759 12.4995 25.2936 12.4999 25.625V34.375H4.99993V25.625ZM36.8749 36.875H3.12493C2.96091 36.8724 2.80451 36.8053 2.68946 36.6884C2.57441 36.5715 2.50994 36.414 2.50994 36.25C2.50995 36.0859 2.57443 35.9285 2.68949 35.8116C2.80454 35.6946 2.96095 35.6276 3.12496 35.625H36.8749C37.0389 35.6276 37.1953 35.6947 37.3104 35.8116C37.4254 35.9285 37.4899 36.086 37.4899 36.25C37.4899 36.414 37.4254 36.5715 37.3104 36.6884C37.1953 36.8053 37.0389 36.8724 36.8749 36.875Z" fill="#F07E2C"/>
<path d="M20 21.2501C22.6512 21.247 25.193 20.1925 27.0677 18.3178C28.9424 16.4431 29.997 13.9013 30 11.2501C29.4506 -2.01627 10.5474 -2.01244 10 11.2501C10.0031 13.9014 11.0576 16.4431 12.9323 18.3178C14.807 20.1925 17.3488 21.247 20 21.2501ZM20 2.50006C22.3198 2.50266 24.5439 3.42537 26.1843 5.06575C27.8247 6.70613 28.7474 8.93022 28.75 11.2501C28.2695 22.8582 11.7287 22.8548 11.25 11.25C11.2526 8.93016 12.1753 6.70609 13.8157 5.06573C15.4561 3.42536 17.6802 2.50267 20 2.50006Z" fill="#F07E2C"/>
</svg>
