<svg width="30" height="30" viewBox="0 0 30 30" fill="none" xmlns="http://www.w3.org/2000/svg">
<path d="M21.8837 17.884L21.8724 17.9778C19.1237 16.6078 18.8362 16.4253 18.4812 16.9578C18.2349 17.3265 17.5174 18.1628 17.3012 18.4103C17.0824 18.654 16.8649 18.6728 16.4937 18.504C16.1187 18.3165 14.9149 17.9228 13.4899 16.6478C12.3799 15.6541 11.6349 14.4353 11.4149 14.0603C11.0487 13.4279 11.8149 13.3379 12.5124 12.0179C12.6374 11.7554 12.5737 11.5491 12.4812 11.3629C12.3874 11.1754 11.6412 9.33793 11.3287 8.60544C11.0287 7.87546 10.7199 7.96796 10.4887 7.96796C9.76868 7.90546 9.24243 7.91546 8.77868 8.39795C6.76118 10.6154 7.26993 12.9029 8.99618 15.3353C12.3887 19.7752 14.1962 20.5927 17.5012 21.7277C18.3937 22.0115 19.2074 21.9715 19.8512 21.879C20.5687 21.7652 22.0599 20.9777 22.3712 20.0965C22.6899 19.2153 22.6899 18.484 22.5962 18.3153C22.5037 18.1465 22.2587 18.0528 21.8837 17.884Z" fill="white"/>
<path d="M25.65 4.31171C16.0387 -4.97937 0.1325 1.75926 0.12625 14.8665C0.12625 17.4865 0.8125 20.0414 2.12 22.2976L0 30L7.91875 27.935C17.8 33.2724 29.995 26.1851 30 14.874C30 10.9041 28.45 7.16791 25.6312 4.36046L25.65 4.31171ZM27.5025 14.8328C27.495 24.3738 17.0212 30.3325 8.7375 25.4626L8.2875 25.1951L3.6 26.4138L4.85625 21.8576L4.5575 21.3889C-0.5975 13.1828 5.325 2.458 15.09 2.458C18.4075 2.458 21.5212 3.75172 23.8663 6.09543C26.21 8.41914 27.5025 11.5328 27.5025 14.8328Z" fill="white"/>
</svg>
